{"glyphs":{"0":{"ha":642,"x_min":44,"x_max":625,"o":"m 260 -16 q 105 55 166 -16 q 49 228 44 125 q 107 414 54 332 q 235 542 159 496 q 388 587 311 587 q 519 551 465 587 q 618 333 625 481 q 554 140 612 227 q 260 -16 452 -16 m 237 54 q 286 37 258 37 q 384 83 340 37 q 476 330 469 172 q 455 476 480 417 q 372 534 430 534 q 256 450 314 534 q 193 231 199 366 q 237 54 186 97 z "},"1":{"ha":361,"x_min":-1,"x_max":311,"o":"m 180 0 l 64 0 l 75 45 q 182 478 176 454 q 81 429 169 469 l 57 463 q 187 531 139 500 q 255 574 235 562 l 311 574 l 180 0 m 197 68 l 197 64 q 219 38 197 50 q 264 25 241 26 l 261 0 l -1 0 l 1 25 q 46 36 26 25 q 81 68 75 52 l 197 68 z "},"2":{"ha":538,"x_min":18,"x_max":477,"o":"m 83 408 l 41 428 q 130 542 71 498 q 262 587 190 587 q 408 535 350 587 q 452 434 452 496 q 437 355 452 384 q 411 310 422 327 q 382 273 401 292 q 350 240 363 254 q 312 208 336 227 q 274 178 287 189 q 194 120 241 153 q 270 121 223 121 q 387 113 316 121 q 421 153 407 125 q 442 198 435 180 l 450 216 l 477 212 l 406 -1 q 342 8 389 1 q 168 23 236 23 q 37 6 99 23 l 18 39 l 45 56 q 196 173 134 111 q 312 382 312 289 q 286 473 312 439 q 218 507 260 507 q 139 480 176 507 q 83 408 102 454 z "},"3":{"ha":530,"x_min":24,"x_max":492,"o":"m 365 458 q 293 507 365 507 q 211 478 250 507 q 152 408 172 448 l 112 428 q 212 543 151 500 q 341 587 274 587 q 450 558 408 587 q 492 474 492 529 q 455 379 492 420 q 362 325 418 339 q 436 284 409 317 q 463 204 463 252 q 438 114 463 155 q 374 46 414 72 q 194 -7 292 -7 q 96 14 135 -7 q 24 117 24 51 q 46 171 24 150 q 94 192 68 192 q 132 178 119 192 q 145 146 145 165 q 83 98 145 98 q 179 41 106 41 q 277 79 233 41 q 321 168 321 117 q 288 245 321 219 q 207 271 256 271 l 168 269 l 191 332 q 335 391 277 332 q 365 458 365 420 z "},"4":{"ha":549,"x_min":10,"x_max":513,"o":"m 414 191 l 359 191 l 330 66 q 360 40 333 50 q 416 28 387 29 l 413 0 l 116 0 l 119 28 q 198 50 159 28 q 212 62 207 56 l 242 191 l 20 191 l 10 227 l 410 587 l 449 587 l 369 232 l 424 232 q 462 264 441 234 q 491 322 483 294 l 513 322 l 467 93 l 445 93 q 436 163 445 136 q 414 191 427 191 m 303 440 l 84 232 l 252 232 l 303 440 z "},"5":{"ha":564,"x_min":7,"x_max":551,"o":"m 551 600 l 483 397 l 454 397 q 458 432 458 412 q 444 452 458 452 l 215 452 l 174 343 q 301 370 224 370 q 426 323 377 370 q 474 209 474 276 q 406 62 474 127 q 196 -8 330 -8 q 92 12 138 -8 q 7 125 7 51 q 29 178 7 159 q 74 197 50 197 q 128 152 128 197 q 109 118 128 130 q 66 106 90 106 q 184 41 94 41 q 294 75 255 41 q 332 157 332 109 q 296 240 332 204 q 205 275 259 275 q 104 269 151 275 l 218 566 l 487 566 q 503 573 497 566 q 511 583 509 581 q 522 600 522 595 l 551 600 z "},"6":{"ha":601,"x_min":33,"x_max":559,"o":"m 254 -16 q 92 38 150 -16 q 33 182 33 92 q 74 351 33 272 q 182 488 115 429 q 500 654 320 610 l 519 609 q 339 522 426 591 q 202 346 252 454 q 385 428 283 428 q 509 383 458 428 q 559 265 559 338 q 477 78 559 165 q 381 11 439 37 q 254 -16 322 -15 m 158 170 q 185 73 158 111 q 263 36 212 36 q 355 73 315 36 q 417 161 396 109 q 439 263 439 212 q 415 345 439 313 q 346 376 392 376 q 220 314 281 376 q 158 170 158 251 z "},"7":{"ha":450,"x_min":49,"x_max":467,"o":"m 126 446 q 76 377 105 435 l 49 381 l 106 559 q 168 551 125 557 q 334 534 265 534 q 449 556 402 534 l 467 523 l 448 503 q 227 109 290 331 q 201 0 212 59 l 101 0 q 194 252 134 132 q 332 444 254 372 q 260 436 303 436 q 126 446 217 436 z "},"8":{"ha":560,"x_min":26,"x_max":509,"o":"m 494 471 q 365 336 494 402 q 509 142 509 245 q 484 71 509 102 q 422 20 460 39 q 264 -18 345 -18 q 128 4 183 -18 q 49 54 73 26 q 26 127 26 83 q 177 285 26 209 q 81 435 81 352 q 106 504 81 473 q 168 552 131 534 q 319 589 245 589 q 464 538 410 589 q 494 471 494 511 m 394 119 q 237 253 394 180 q 109 134 109 197 q 210 44 109 63 q 272 39 235 39 q 351 61 309 39 q 394 119 394 83 m 274 388 q 304 371 286 381 q 414 464 414 421 q 382 519 414 500 q 311 539 351 539 q 238 521 271 539 q 205 465 205 503 q 274 388 205 428 z "},"9":{"ha":600,"x_min":54,"x_max":568,"o":"m 347 587 q 513 532 458 587 q 568 391 568 476 q 529 225 568 305 q 426 85 490 146 q 115 -83 294 -39 l 96 -38 q 339 127 260 30 q 399 225 375 172 q 231 144 330 144 q 106 191 157 144 q 54 320 54 238 q 133 499 54 416 q 227 563 170 538 q 347 587 283 587 m 437 384 q 437 418 437 384 q 413 494 437 452 q 343 535 390 535 q 256 499 296 535 q 196 411 217 463 q 176 311 176 359 q 199 232 176 262 q 274 201 222 201 q 381 258 326 201 q 437 384 437 315 z "},"\u0000":{"ha":236,"x_min":0,"x_max":0,"o":""},"\u0001":{"ha":0,"x_min":0,"x_max":0,"o":""},"\r":{"ha":236,"x_min":0,"x_max":0,"o":""}," ":{"ha":237,"x_min":0,"x_max":0,"o":""},"!":{"ha":529,"x_min":86,"x_max":426,"o":"m 319 916 l 426 916 q 201 235 280 517 l 159 235 q 319 916 174 502 m 160 122 q 173 122 160 122 q 205 106 187 122 q 222 57 222 90 q 200 4 222 24 q 151 -16 178 -16 q 104 1 123 -16 q 86 50 86 18 q 109 102 86 82 q 160 122 132 122 z "},"\"":{"ha":403,"x_min":77,"x_max":346,"o":"m 273 709 l 252 709 q 236 911 252 770 l 231 961 l 346 962 q 273 709 292 751 m 120 709 l 98 709 q 83 911 98 770 l 77 961 l 193 962 q 120 709 139 751 z "},"#":{"ha":494,"x_min":45,"x_max":504,"o":"m 188 -36 l 294 320 l 203 320 l 104 -12 l 51 -36 l 157 320 l 45 320 l 51 365 l 170 365 l 191 431 l 71 431 l 76 476 l 203 476 l 309 826 l 361 848 l 250 476 l 340 476 l 446 826 l 498 848 l 387 476 l 504 476 l 491 431 l 373 431 l 353 365 l 478 365 l 465 320 l 340 320 l 241 -12 l 188 -36 m 236 431 l 216 365 l 307 365 l 328 431 l 236 431 z "},"$":{"ha":608,"x_min":1,"x_max":571,"o":"m 58 208 q 72 208 58 208 q 105 188 85 208 q 124 136 124 168 q 77 83 124 103 l 75 83 q 238 39 134 44 l 276 253 q 157 305 188 285 q 98 403 98 345 q 205 562 98 507 q 337 598 261 591 l 356 707 l 399 696 l 382 600 q 489 581 445 599 q 571 486 571 549 q 553 433 571 455 q 509 411 536 411 q 465 428 482 411 q 448 473 448 446 q 492 529 448 500 l 494 529 q 385 558 452 558 l 375 558 l 343 378 q 499 293 460 334 q 542 194 542 248 q 517 101 542 140 q 452 38 492 62 q 274 -15 371 -11 l 242 -199 l 198 -191 l 229 -15 q 16 76 63 -4 q 1 132 1 102 q 15 185 1 161 q 58 208 30 208 m 392 83 q 413 139 413 106 q 388 195 413 172 q 318 236 363 217 l 283 39 q 392 83 357 44 m 202 475 q 227 431 202 449 q 301 394 252 413 l 329 555 q 202 475 202 540 z "},"%":{"ha":1092,"x_min":47,"x_max":972,"o":"m 109 -192 l 941 1202 l 972 1178 l 140 -214 l 109 -192 m 203 452 q 172 452 203 452 q 94 499 140 452 q 47 616 47 547 q 81 742 47 686 q 167 829 115 798 q 273 860 219 860 q 398 810 354 860 q 443 688 443 760 q 385 528 443 600 q 311 473 357 494 q 203 452 265 452 m 143 618 q 162 529 143 566 q 223 492 182 492 q 294 522 264 492 q 351 685 351 580 q 330 782 351 743 q 265 821 309 821 q 182 764 222 821 q 143 618 143 708 m 711 -8 q 680 -8 711 -8 q 602 39 648 -8 q 555 156 555 86 q 589 282 555 226 q 675 369 623 338 q 781 399 727 399 q 906 350 862 399 q 951 228 951 300 q 893 68 951 140 q 819 13 865 33 q 711 -8 773 -8 m 651 157 q 670 68 651 106 q 731 31 690 31 q 802 61 772 31 q 859 224 859 119 q 838 321 859 282 q 773 360 817 360 q 690 304 730 360 q 651 157 651 248 z "},"&":{"ha":1126,"x_min":31,"x_max":1143,"o":"m 587 844 q 646 803 629 844 q 656 846 656 823 q 643 886 656 869 q 608 913 629 904 q 521 930 568 930 q 352 868 414 930 q 290 711 290 805 q 302 629 290 666 q 410 643 357 643 q 543 555 543 643 q 510 493 543 517 q 437 469 477 469 q 271 532 365 469 q 182 314 182 431 q 229 156 182 229 q 355 43 277 84 q 525 1 434 1 q 800 105 692 1 q 880 297 880 180 q 831 407 880 360 q 728 454 782 454 q 638 424 673 454 q 603 357 603 393 q 624 297 603 321 q 677 265 645 273 q 661 312 661 286 q 677 356 661 338 q 721 374 692 374 q 766 355 749 374 q 783 307 783 336 q 758 254 783 278 q 684 231 732 231 q 594 270 635 231 q 554 361 554 309 q 572 450 554 414 q 622 508 591 487 q 694 542 653 528 q 779 562 734 555 q 868 575 823 569 q 954 590 913 581 q 1025 613 994 599 q 1093 718 1093 643 q 1057 809 1093 774 q 974 844 1021 844 q 913 810 926 844 q 983 753 983 800 q 963 707 983 726 q 913 688 942 688 q 864 713 884 688 q 843 766 843 738 q 881 853 843 819 q 972 888 919 888 q 1099 831 1054 888 q 1143 693 1143 774 q 1027 500 1143 561 q 860 447 962 467 q 908 372 892 407 q 925 280 925 336 q 900 166 925 224 q 833 70 875 108 q 738 5 792 31 q 513 -45 636 -45 q 324 -22 405 -45 q 196 28 243 1 q 111 94 149 56 q 31 306 31 173 q 151 552 31 446 q 210 595 179 577 q 184 649 196 614 q 172 715 172 684 q 220 854 172 793 q 340 947 268 916 q 494 978 413 978 q 619 955 568 978 q 715 831 715 913 q 688 747 715 783 q 619 711 660 711 q 555 730 578 711 q 532 782 532 748 q 587 844 532 844 m 317 575 q 438 525 386 525 q 490 554 490 525 q 429 591 490 591 q 344 581 398 591 l 317 575 z "},"'":{"ha":273,"x_min":77,"x_max":193,"o":"m 120 709 l 98 709 q 83 911 98 770 l 77 961 l 193 962 q 120 709 139 751 z "},"(":{"ha":387,"x_min":85,"x_max":580,"o":"m 233 -149 l 212 -168 q 85 160 85 -52 q 129 421 85 283 q 241 672 173 559 q 395 868 309 785 q 562 972 481 951 l 580 936 q 413 817 491 906 q 285 610 336 728 q 177 111 177 359 q 233 -149 177 -48 z "},")":{"ha":448,"x_min":-28,"x_max":374,"o":"m -7 -183 l -28 -149 q 104 4 41 -101 q 208 228 168 109 q 297 668 297 488 q 252 936 297 848 l 288 956 q 351 829 328 912 q 374 624 374 747 q 342 367 374 502 q 255 126 309 233 q 133 -60 201 20 q -7 -183 65 -141 z "},"*":{"ha":703,"x_min":96,"x_max":607,"o":"m 152 505 q 140 505 152 505 q 112 523 128 505 q 96 567 96 540 q 142 617 96 593 q 237 653 189 642 q 309 664 286 664 l 313 664 l 322 655 q 248 571 319 637 q 152 505 176 505 m 179 719 q 163 722 179 719 q 121 745 147 726 q 96 789 96 764 q 110 832 96 814 q 146 850 125 850 q 209 816 167 850 q 285 746 252 782 q 320 701 318 710 l 309 688 q 251 703 292 695 q 179 719 210 711 m 380 699 q 427 750 389 707 q 551 844 510 844 l 569 844 q 596 824 585 838 q 607 802 607 810 q 602 779 607 793 l 604 774 q 575 735 604 751 q 511 712 546 719 q 392 685 401 691 l 380 699 m 604 561 q 604 550 604 561 q 587 521 604 539 q 550 503 570 503 q 512 513 530 503 q 474 543 494 524 q 440 578 454 562 q 405 619 425 595 q 378 650 385 643 l 391 664 l 392 664 q 439 652 399 662 q 560 618 546 629 q 591 601 578 618 q 604 561 604 583 m 341 718 q 316 801 338 734 q 295 896 295 869 q 310 943 295 924 q 351 963 325 963 q 392 946 376 963 q 408 897 408 929 q 386 802 408 864 q 359 718 363 740 l 349 713 l 341 718 m 348 392 q 294 460 294 392 q 317 551 294 492 q 344 634 340 610 l 351 640 q 382 556 359 637 q 406 457 406 475 q 348 392 406 392 z "},"+":{"ha":484,"x_min":63,"x_max":413,"o":"m 63 248 l 77 303 l 205 303 l 239 443 l 319 443 l 283 303 l 413 303 l 399 248 l 268 248 l 232 106 l 157 106 l 190 248 l 63 248 z "},",":{"ha":273,"x_min":31,"x_max":193,"o":"m 52 -155 l 31 -155 q 77 62 68 0 l 193 100 q 139 -26 193 68 q 52 -155 85 -119 z "},"-":{"ha":433,"x_min":37,"x_max":437,"o":"m 437 302 l 430 274 q 366 266 410 272 q 234 252 275 252 q 162 256 193 252 q 94 266 132 259 q 37 274 56 272 q 45 302 37 283 q 109 311 67 304 q 240 325 204 325 q 309 321 276 325 q 379 311 341 317 q 437 302 416 304 z "},".":{"ha":229,"x_min":54,"x_max":190,"o":"m 127 122 q 141 122 127 122 q 172 106 155 122 q 190 57 190 90 q 168 4 190 24 q 118 -16 146 -16 q 72 1 90 -16 q 54 50 54 18 q 77 102 54 82 q 127 122 100 122 z "},"/":{"ha":743,"x_min":-56,"x_max":808,"o":"m -56 -192 l 777 1202 l 808 1178 l -24 -214 l -56 -192 z "},":":{"ha":314,"x_min":52,"x_max":253,"o":"m 125 122 q 139 122 125 122 q 170 106 153 122 q 188 57 188 90 q 166 4 188 24 q 116 -16 144 -16 q 70 1 88 -16 q 52 50 52 18 q 75 102 52 82 q 125 122 98 122 m 190 395 q 204 395 190 395 q 235 378 218 395 q 253 330 253 362 q 231 277 253 297 q 181 257 209 257 q 136 274 154 257 q 117 322 117 290 q 140 375 117 355 q 190 395 163 395 z "},";":{"ha":302,"x_min":40,"x_max":230,"o":"m 62 -155 l 40 -155 q 87 62 77 0 l 202 100 q 149 -26 202 68 q 62 -155 95 -119 m 167 395 q 181 395 167 395 q 212 378 195 395 q 230 330 230 362 q 208 277 230 297 q 158 257 186 257 q 113 274 131 257 q 94 322 94 290 q 117 375 94 355 q 167 395 140 395 z "},"<":{"ha":452,"x_min":37,"x_max":339,"o":"m 279 46 l 219 -1 q 37 232 37 222 q 178 358 104 296 q 296 446 252 419 l 339 389 q 127 229 206 298 q 279 46 147 214 z "},"=":{"ha":633,"x_min":71,"x_max":549,"o":"m 71 283 l 74 328 l 528 328 l 518 283 l 71 283 m 77 374 l 80 419 l 549 419 l 538 374 l 77 374 z "},">":{"ha":406,"x_min":14,"x_max":311,"o":"m 66 -5 l 14 46 q 214 228 189 216 l 212 228 q 39 389 142 304 l 84 443 q 182 358 125 414 q 275 262 239 302 l 311 220 q 294 204 311 219 q 66 -5 221 141 z "},"?":{"ha":509,"x_min":64,"x_max":563,"o":"m 185 235 l 145 241 q 228 403 168 334 q 283 462 254 433 q 339 518 313 491 q 388 576 366 546 q 436 722 436 640 q 396 842 436 803 q 306 880 357 880 q 215 858 255 880 q 147 789 174 836 q 119 685 119 742 q 139 574 119 629 l 102 562 q 64 709 64 635 q 141 889 64 817 q 340 962 218 962 q 486 909 416 962 q 541 839 519 883 q 563 743 563 795 q 549 648 563 690 q 511 574 536 606 q 457 515 487 543 q 390 457 427 487 q 319 398 354 428 q 185 235 238 328 m 144 122 q 158 122 144 122 q 189 106 172 122 q 207 57 207 90 q 185 4 207 24 q 135 -16 163 -16 q 89 1 107 -16 q 71 50 71 18 q 94 102 71 82 q 144 122 117 122 z "},"@":{"ha":1023,"x_min":50,"x_max":956,"o":"m 796 611 q 773 630 796 611 q 694 669 751 649 q 562 689 637 689 q 412 664 486 689 q 285 596 337 639 q 197 498 233 554 q 125 253 125 389 q 154 94 125 165 q 234 -26 183 22 q 492 -123 340 -123 q 790 -39 645 -123 l 836 -81 q 496 -197 677 -197 q 183 -80 312 -197 q 86 59 122 -24 q 50 229 50 142 q 70 386 50 315 q 133 520 90 456 q 235 631 175 583 q 381 707 295 679 q 557 735 468 735 q 714 713 646 735 q 837 648 783 690 q 924 536 892 605 q 956 381 956 467 q 926 217 956 295 q 843 87 897 138 q 721 37 788 37 q 618 161 618 37 q 618 177 618 171 q 574 103 607 136 q 439 39 514 39 q 320 91 364 39 q 275 218 275 142 q 348 393 275 322 q 516 465 421 465 q 603 438 568 465 q 649 370 638 412 l 671 456 l 777 456 l 722 247 q 707 161 707 195 q 749 98 707 98 q 842 167 795 98 q 894 374 894 243 q 867 512 894 450 q 796 611 841 573 m 543 406 q 439 350 481 406 q 398 231 398 294 q 482 105 398 105 q 544 127 515 105 q 590 180 573 149 q 625 305 625 249 q 543 406 625 406 z "},"A":{"ha":1211,"x_min":-7,"x_max":1198,"o":"m 753 14 l 772 47 q 827 32 800 32 q 925 90 881 32 q 999 243 969 147 l 554 243 l 498 160 q 357 26 437 68 q 180 -16 278 -16 q 38 22 83 -16 q -7 101 -7 59 q 17 168 -7 142 q 79 193 42 193 q 134 170 116 193 q 151 107 151 146 q 115 49 151 68 q 130 36 117 42 q 166 29 143 29 q 212 35 190 29 q 262 60 233 41 q 321 119 290 80 q 489 378 389 204 q 685 668 589 552 q 912 875 780 783 q 816 916 873 901 q 688 932 759 932 q 540 906 617 932 q 410 838 463 881 q 320 735 357 794 q 249 471 249 622 q 284 267 249 367 l 240 245 q 164 506 164 368 q 201 684 164 599 q 303 834 237 768 q 471 939 370 900 q 694 978 573 978 q 821 966 783 978 l 869 951 q 927 923 894 943 q 961 903 960 903 q 1073 942 1026 933 q 1181 951 1120 951 l 1198 920 q 1004 868 1090 920 q 1124 688 1084 798 q 1163 447 1163 578 q 1126 197 1163 315 q 1026 9 1088 79 q 892 -60 964 -60 q 753 14 819 -60 m 961 837 q 774 640 847 752 q 657 437 711 543 q 578 286 604 331 l 1011 286 q 1043 540 1043 414 q 961 837 1043 749 z "},"B":{"ha":1311,"x_min":-20,"x_max":1255,"o":"m 368 214 l 326 202 q 303 282 315 232 q 292 345 292 332 q 190 330 241 345 q 107 298 138 315 q 54 249 76 281 q 32 176 32 218 q 53 102 32 134 q 110 54 75 71 q 252 22 178 22 q 380 38 326 22 q 470 79 433 54 q 538 144 507 105 q 587 225 568 184 q 625 319 606 266 q 655 418 643 372 q 722 623 688 541 q 821 786 755 706 q 970 918 887 867 q 867 928 930 928 q 723 900 804 928 q 574 824 643 873 q 450 711 505 774 q 364 572 395 648 q 333 419 333 496 q 549 309 482 389 l 520 279 q 416 332 450 324 q 374 342 381 340 q 332 346 343 346 q 361 235 340 296 l 368 214 m 1242 1017 l 1255 985 q 1139 951 1193 973 l 1121 943 q 1199 877 1170 919 q 1227 800 1227 835 q 1221 741 1227 765 q 1206 699 1215 718 q 1183 659 1198 680 q 1156 624 1168 638 q 1126 593 1144 610 q 1098 567 1108 576 q 1053 530 1080 552 q 1200 436 1149 490 q 1251 299 1251 381 q 1202 141 1251 218 q 1072 19 1153 64 q 900 -26 991 -26 q 746 30 800 -26 q 717 101 717 60 q 742 167 717 142 q 802 192 766 192 q 857 174 837 192 q 878 133 878 157 q 869 97 878 110 q 850 76 861 83 q 827 64 839 68 q 798 56 806 56 q 872 18 798 26 q 896 17 885 17 q 1054 88 990 17 q 1118 254 1118 159 q 1097 342 1118 302 q 1045 407 1076 382 q 984 449 1015 431 q 933 475 954 466 q 912 488 912 485 q 932 505 912 491 q 982 540 953 518 q 1041 591 1012 562 q 1090 660 1070 619 q 1111 743 1111 701 q 1088 831 1111 784 q 1021 897 1065 878 q 837 654 893 819 q 800 527 812 583 q 757 331 770 385 q 703 210 743 276 q 603 90 663 143 q 458 7 543 37 q 272 -24 372 -24 q 48 39 134 -24 q -20 179 -20 90 q 9 288 -20 239 q 85 363 39 336 q 292 420 180 420 q 344 634 292 530 q 480 812 395 737 q 680 932 566 887 q 915 978 794 978 q 1051 966 957 978 q 1242 1017 1179 1013 z "},"C":{"ha":823,"x_min":21,"x_max":890,"o":"m 701 204 l 734 174 q 363 -26 580 -26 q 123 65 221 -26 q 48 178 76 109 q 21 334 21 246 q 54 518 21 422 q 146 694 87 613 q 281 840 205 776 q 449 941 357 904 q 642 978 541 978 q 817 913 743 978 q 890 733 890 849 q 859 589 890 665 q 778 452 827 513 q 660 351 728 391 q 525 311 592 311 q 418 354 458 311 q 379 455 379 397 q 461 647 379 554 q 673 783 544 739 l 689 747 q 566 675 624 726 q 476 566 509 624 q 444 465 444 508 q 543 376 444 376 q 682 437 612 376 q 793 581 751 498 q 835 740 835 663 q 783 864 835 816 q 646 913 732 913 q 471 861 561 913 q 311 729 380 810 q 197 544 241 648 q 153 338 153 439 q 262 98 153 174 q 407 53 326 53 q 566 93 488 53 q 701 204 645 132 z "},"D":{"ha":1097,"x_min":75,"x_max":1061,"o":"m 195 265 l 149 245 q 75 521 75 388 q 180 803 75 686 q 435 958 283 917 q 593 978 511 978 q 744 961 676 978 q 870 896 812 944 q 1048 947 933 947 l 1061 905 q 916 855 952 884 q 1023 683 987 789 q 1060 478 1060 577 q 1048 313 1060 380 q 1011 188 1037 247 q 945 88 985 130 q 730 -2 862 -2 q 445 64 597 -2 q 343 15 409 37 q 219 -7 277 -7 q 103 83 103 -7 q 162 172 103 136 q 310 208 221 208 q 484 165 398 208 q 604 439 560 264 q 643 579 621 508 q 825 861 693 744 q 731 912 789 895 q 616 930 672 930 q 384 880 487 930 q 220 728 281 829 q 158 488 158 626 q 195 265 158 389 m 981 476 q 981 526 981 476 q 950 666 981 575 q 873 806 920 757 q 806 618 832 743 q 653 260 760 397 q 534 142 603 196 q 758 75 665 75 q 900 138 851 75 q 966 290 950 202 q 981 476 981 377 m 399 96 q 226 134 307 134 q 146 85 146 134 q 220 43 146 43 q 312 57 262 43 q 399 96 362 72 z "},"E":{"ha":928,"x_min":75,"x_max":977,"o":"m 682 629 q 718 605 718 629 q 680 581 718 581 q 496 550 583 581 q 353 472 410 519 q 263 368 296 425 q 231 256 231 311 q 304 110 231 168 q 525 53 378 53 q 776 133 692 53 q 819 242 819 175 q 775 347 819 309 q 662 386 731 386 q 526 359 593 386 q 419 286 458 332 l 382 319 q 498 400 421 370 q 640 431 576 431 q 742 419 703 431 q 813 385 781 408 q 886 235 882 336 q 849 125 883 174 q 760 45 815 76 q 494 -17 647 -17 q 206 59 331 -17 q 111 154 146 96 q 75 285 75 213 q 521 612 75 540 q 412 681 446 638 q 379 770 379 724 q 470 915 379 852 q 700 978 562 978 q 911 910 827 978 q 977 778 975 860 q 955 721 977 740 q 901 701 932 701 q 848 719 870 701 q 826 759 826 736 q 834 795 826 782 q 852 815 842 808 q 875 825 862 821 q 905 829 894 829 q 828 901 884 874 q 700 928 773 928 q 567 886 627 928 q 507 772 507 844 q 560 651 507 695 q 630 627 589 627 l 682 629 z "},"F":{"ha":963,"x_min":-22,"x_max":1180,"o":"m 1149 965 l 1180 937 q 991 835 1125 835 q 944 838 975 835 q 845 562 865 746 q 840 488 841 523 l 1017 494 l 969 436 l 838 436 q 579 41 818 163 q 267 -29 442 -29 q 73 13 159 -29 q 4 71 30 34 q -22 158 -22 107 q -1 249 -22 209 q 52 311 20 289 q 132 346 83 333 q 325 367 208 367 q 248 575 248 467 q 287 728 248 654 q 389 858 326 803 q 538 945 452 912 q 698 978 624 978 q 885 949 772 978 q 1051 920 998 920 q 1149 965 1104 920 m 73 229 q 58 157 58 197 q 80 90 58 118 q 136 46 102 62 q 283 16 203 16 q 437 38 364 16 q 567 110 509 61 q 716 437 686 210 l 570 437 l 597 481 l 721 488 q 755 631 730 574 q 796 719 779 688 q 829 773 812 750 q 886 847 856 812 q 688 890 782 890 q 529 871 594 890 q 412 813 464 851 q 329 714 359 776 q 298 574 298 652 q 322 453 298 496 q 338 424 332 436 q 361 396 345 412 q 386 372 377 381 q 416 348 395 363 q 467 313 444 328 q 490 297 489 298 q 493 296 492 296 l 473 271 q 283 325 363 325 q 73 229 119 325 z "},"G":{"ha":863,"x_min":-61,"x_max":929,"o":"m 850 831 q 648 920 759 920 q 302 716 437 920 q 224 465 224 598 q 277 292 224 359 q 450 218 334 218 q 626 275 541 218 q 751 427 711 332 l 850 428 q 609 -60 781 115 q 197 -235 436 -235 q 6 -184 73 -235 q -61 -62 -61 -133 q 6 61 -61 9 q 190 114 73 114 q 374 61 306 114 l 345 1 q 197 28 282 28 q 56 0 113 28 q 0 -70 0 -28 q 55 -140 0 -111 q 208 -170 109 -170 q 496 -46 366 -170 q 718 317 626 78 q 581 196 661 238 q 425 154 500 154 q 293 173 350 154 q 190 229 235 193 q 118 324 145 265 q 92 456 92 382 q 116 603 92 529 q 188 745 140 677 q 301 864 236 812 q 456 947 367 916 q 646 978 546 978 q 831 932 743 978 q 902 869 874 909 q 929 778 929 829 q 899 698 929 726 q 830 670 868 670 q 766 690 791 670 q 741 746 741 711 q 850 831 741 831 z "},"H":{"ha":1155,"x_min":31,"x_max":1328,"o":"m 851 9 q 839 22 851 9 q 819 66 827 35 q 811 145 811 98 q 826 269 811 193 q 897 526 846 368 q 825 514 871 522 q 760 503 779 505 q 552 90 702 237 q 430 8 500 39 q 275 -23 359 -23 q 132 26 191 -23 q 74 157 74 75 q 140 325 74 239 q 31 567 31 427 q 61 720 31 650 q 143 836 92 789 q 262 915 195 882 q 549 977 391 977 l 917 977 q 935 965 929 977 q 930 956 934 960 q 925 949 926 952 q 792 659 840 846 q 766 550 781 618 l 916 575 q 1156 886 1025 810 q 1237 911 1198 911 q 1302 891 1276 911 q 1328 830 1328 872 q 1298 740 1328 787 q 1221 656 1267 692 q 1029 553 1127 585 q 962 334 998 479 q 926 126 926 189 q 953 64 926 64 q 1055 153 991 64 l 1093 117 q 1010 23 1057 63 q 919 -17 963 -17 q 851 9 876 -17 m 110 536 q 174 357 110 434 q 382 479 258 435 q 635 533 507 523 q 783 926 699 825 q 661 935 732 935 q 528 925 589 935 q 406 897 467 916 q 291 846 344 878 q 198 770 239 813 q 110 536 110 680 m 178 298 q 127 166 127 229 q 162 63 127 104 q 253 22 196 22 q 357 42 309 22 q 441 101 404 63 q 507 183 477 138 q 560 282 537 227 q 628 485 602 382 q 210 330 342 461 q 314 300 267 300 q 379 301 362 300 l 395 265 q 322 261 359 261 q 178 298 243 261 m 1251 868 q 1190 838 1223 868 q 1128 763 1157 808 q 1050 611 1080 684 q 1173 680 1118 637 q 1275 829 1275 762 q 1251 868 1275 868 z "},"I":{"ha":897,"x_min":-24,"x_max":1029,"o":"m 1029 933 q 828 488 832 729 l 957 488 l 957 436 l 825 436 q 577 46 806 168 q 288 -24 445 -24 q 53 33 130 -24 q -24 171 -24 89 q 45 310 -24 252 q 239 368 115 368 q 285 367 268 368 q 239 576 239 467 q 299 778 239 684 q 465 925 359 872 q 703 978 571 978 q 866 956 758 978 q 1029 933 975 933 m 709 488 q 873 847 729 677 q 654 890 770 890 q 388 801 488 890 q 288 568 288 711 q 342 361 288 469 l 503 315 l 489 273 q 367 307 418 297 q 425 214 382 278 l 379 199 l 309 315 q 253 319 279 319 q 104 279 155 319 q 53 178 53 239 q 111 70 53 117 q 263 22 170 22 q 428 44 356 22 q 557 113 499 65 q 704 437 674 210 l 558 437 l 558 488 l 709 488 z "},"J":{"ha":901,"x_min":-43,"x_max":1031,"o":"m 1031 933 q 829 488 833 729 l 958 488 l 958 436 l 827 436 q 784 200 820 307 q 692 21 747 94 q 563 -101 636 -52 q 241 -196 421 -196 q -26 -52 33 -196 q -43 40 -43 -11 q -20 145 -43 91 q 42 243 3 199 q 143 314 82 287 q 274 342 203 342 q 314 339 286 342 q 240 567 240 450 q 300 778 240 684 q 466 925 360 872 q 704 978 572 978 q 868 956 760 978 q 1031 933 976 933 m 710 488 q 875 847 730 677 q 656 890 771 890 q 389 801 489 890 q 289 568 289 711 q 371 334 289 455 l 532 288 l 518 245 q 396 279 452 268 q 454 186 411 250 l 408 171 l 338 288 q 268 293 311 293 q 176 271 224 293 q 96 212 127 248 q 31 46 31 134 q 85 -96 31 -41 q 241 -151 140 -151 q 417 -119 342 -151 q 552 -18 492 -87 q 705 437 674 122 l 559 437 l 559 488 l 710 488 z "},"K":{"ha":1216,"x_min":36,"x_max":1345,"o":"m 1142 144 l 1175 115 q 1068 -5 1152 18 q 1029 -11 1048 -11 q 944 15 977 -11 q 895 84 910 41 q 872 171 880 127 q 855 263 865 216 q 831 334 846 310 q 774 322 800 322 q 721 338 749 322 q 608 173 672 243 q 476 62 543 102 q 221 -16 344 -16 q 89 13 142 -16 q 36 80 36 42 q 57 136 36 117 q 105 155 79 155 q 149 141 132 155 q 165 100 165 126 q 144 54 165 75 q 236 33 186 33 q 399 96 317 33 q 539 252 481 159 q 635 456 598 346 q 672 641 672 566 q 662 762 672 715 q 629 848 651 809 q 488 929 584 929 q 349 898 417 929 q 231 814 281 866 q 149 690 180 762 q 118 541 118 618 q 140 424 118 471 q 188 353 163 378 q 350 294 246 294 q 389 297 361 294 l 403 265 q 334 262 385 262 q 229 283 283 262 q 141 336 175 304 q 85 411 108 368 q 45 571 45 488 q 77 729 45 654 q 165 858 109 803 q 306 945 222 913 q 479 978 389 978 q 631 952 570 978 q 728 879 692 926 q 798 647 798 789 q 762 437 798 547 q 818 432 798 437 q 860 410 837 427 q 946 566 912 449 q 976 668 960 614 q 1013 771 991 722 q 1063 860 1034 820 q 1253 947 1128 947 q 1315 933 1285 947 q 1345 891 1345 919 q 1326 841 1345 863 q 1285 818 1308 818 q 1223 832 1263 832 q 1157 814 1183 832 q 1117 764 1131 795 q 1095 692 1103 732 q 1074 607 1086 652 q 1044 518 1062 561 q 990 434 1027 475 q 900 364 953 393 q 969 270 934 330 q 1022 144 1004 210 q 1071 78 1040 78 q 1142 144 1086 78 m 754 403 l 742 376 q 781 363 767 363 q 814 370 795 363 q 754 403 798 403 z "},"L":{"ha":1079,"x_min":-20,"x_max":1173,"o":"m 1083 782 q 945 928 1083 928 q 842 891 886 928 q 775 797 799 854 q 729 658 751 739 q 688 496 706 576 q 564 168 644 299 q 638 133 588 157 q 719 95 688 109 q 869 56 804 56 q 922 71 897 56 q 961 101 947 85 q 984 132 974 118 q 996 146 994 146 l 1026 129 q 900 -11 966 16 q 823 -23 870 -23 q 721 -6 777 -23 q 595 41 665 10 q 497 83 526 73 q 358 6 443 36 q 165 -23 274 -23 q 65 -3 110 -23 q -20 97 -20 37 q 18 199 -20 157 q 215 277 89 277 q 406 240 305 277 q 501 201 442 226 q 551 387 530 281 q 589 561 571 492 q 625 687 606 629 q 674 800 644 745 q 741 894 704 855 q 951 978 821 978 q 1111 921 1049 978 q 1173 761 1173 864 q 1142 612 1173 684 q 1061 485 1112 540 q 943 392 1010 430 q 805 342 876 354 l 795 379 q 945 462 878 399 q 1047 609 1011 525 q 1083 782 1083 694 m 23 105 q 90 33 23 52 q 363 57 227 -5 q 441 116 414 81 q 195 208 306 208 q 23 105 23 208 z "},"M":{"ha":1509,"x_min":42,"x_max":1498,"o":"m 1438 192 l 1472 163 q 1390 35 1441 85 q 1286 -16 1338 -16 q 1213 18 1235 -16 q 1191 102 1191 51 q 1222 265 1191 153 q 1291 481 1254 378 q 1392 837 1392 758 q 1363 882 1392 882 q 1074 509 1247 882 q 964 256 1004 358 q 865 0 882 41 l 714 0 l 777 163 q 940 688 888 446 q 960 836 960 781 q 916 921 960 921 q 814 853 871 921 q 707 682 758 785 q 604 460 655 580 q 514 239 552 341 q 424 0 427 0 l 291 0 l 367 212 q 491 625 469 475 q 502 768 502 695 q 465 889 502 840 q 362 939 427 939 q 250 911 297 939 q 172 842 203 884 q 121 747 142 800 q 81 558 81 650 q 171 211 81 361 l 142 189 q 67 365 93 267 q 42 534 42 462 q 53 663 42 607 q 89 776 64 719 q 151 877 114 833 q 246 950 188 922 q 368 978 304 978 q 475 954 431 978 q 544 888 519 929 q 593 690 593 806 q 521 353 593 574 q 558 446 546 419 q 586 511 570 472 q 612 571 603 549 q 642 636 622 593 q 676 706 661 678 q 713 773 690 733 q 755 838 736 812 q 799 893 774 864 q 846 939 823 922 q 947 978 899 978 q 1063 823 1063 978 q 1024 581 1063 726 q 988 457 1011 533 q 963 370 966 380 q 1041 541 993 425 q 1126 725 1089 658 q 1199 840 1162 792 q 1287 919 1236 887 q 1389 951 1338 951 q 1469 918 1439 951 q 1498 831 1498 886 q 1479 700 1498 777 q 1432 545 1460 622 q 1377 393 1404 469 q 1303 107 1308 209 q 1326 64 1303 64 q 1380 103 1349 64 q 1438 192 1411 142 z "},"N":{"ha":1095,"x_min":45,"x_max":1084,"o":"m 1032 192 l 1067 163 q 979 32 1034 80 q 871 -16 925 -16 q 817 14 840 -16 q 793 95 793 43 q 822 251 793 147 q 884 453 850 354 q 975 828 975 718 q 934 908 975 908 q 842 858 893 908 q 743 728 791 808 q 645 551 694 648 q 554 357 595 454 q 479 180 512 260 q 426 50 446 100 q 404 0 406 0 l 278 0 l 349 199 q 476 744 476 559 q 336 929 477 929 q 240 900 284 929 q 167 825 195 870 q 118 724 138 780 q 81 522 81 620 q 165 197 81 337 l 139 175 q 69 340 93 249 q 45 504 45 431 q 55 636 45 576 q 89 759 65 697 q 147 869 113 821 q 236 947 182 917 q 345 978 290 978 q 435 963 399 978 q 493 923 470 948 q 532 863 516 897 q 560 720 560 798 q 544 542 560 643 q 496 317 524 419 q 534 410 518 377 q 571 489 550 443 q 610 572 593 535 q 654 662 627 609 q 707 755 682 715 q 763 840 731 796 q 826 912 795 884 q 959 978 897 978 q 1053 937 1021 978 q 1084 832 1084 896 q 1065 684 1084 768 q 1021 519 1047 600 q 968 361 994 438 q 905 121 905 179 q 924 64 905 64 q 982 114 944 64 q 1032 192 1021 165 z "},"O":{"ha":978,"x_min":14,"x_max":1012,"o":"m 414 359 q 375 359 414 359 q 291 416 337 359 q 245 553 245 473 q 280 711 245 634 q 370 847 314 788 q 501 942 425 905 q 652 978 577 978 q 791 955 728 978 q 904 890 855 932 q 983 784 954 848 q 1012 631 1012 719 q 980 446 1012 543 q 890 267 949 349 q 753 121 831 184 q 576 21 675 57 q 370 -16 476 -16 q 106 72 199 -16 q 14 322 14 160 q 119 652 14 500 q 245 779 173 729 l 266 753 q 172 574 206 682 q 137 378 137 466 q 152 232 137 290 q 198 126 168 173 q 398 25 264 25 q 730 229 589 25 q 844 494 810 344 q 859 629 859 565 q 846 746 859 694 q 806 840 833 799 q 630 928 749 928 q 467 872 541 928 q 353 731 393 817 q 313 561 313 645 q 342 440 313 477 q 416 404 370 404 q 509 434 462 404 q 589 515 556 463 q 625 623 623 566 l 690 633 q 653 499 690 563 q 553 398 616 436 q 414 359 490 359 z "},"P":{"ha":1018,"x_min":-12,"x_max":1181,"o":"m 26 73 q -12 175 -12 120 q 6 270 -12 230 q 56 337 25 310 q 128 383 87 364 q 298 420 203 418 q 350 633 304 532 q 468 811 395 734 q 647 932 541 887 q 871 978 752 978 q 1077 923 983 978 q 1153 849 1124 896 q 1181 734 1181 803 q 1147 592 1181 665 q 1057 469 1113 520 q 785 346 937 363 q 586 75 726 172 q 253 -21 446 -21 q 26 73 102 -21 m 131 307 q 62 251 89 287 q 35 174 35 216 q 57 103 35 133 q 115 56 80 73 q 264 21 187 21 q 488 99 387 21 q 641 296 589 176 q 684 442 661 343 q 720 578 707 541 q 934 895 797 807 q 891 910 925 903 q 816 917 857 917 q 639 873 726 917 q 487 761 552 830 q 382 601 422 692 q 342 418 342 509 q 538 339 442 403 l 509 294 q 348 347 417 347 q 359 286 348 332 q 384 201 370 239 l 344 189 q 316 266 328 214 q 300 347 304 318 q 131 307 216 347 m 984 869 q 862 666 910 793 q 795 386 814 539 q 900 417 848 386 q 989 495 952 448 q 1050 599 1027 542 q 1073 691 1073 656 q 1069 747 1073 727 q 1058 792 1066 768 q 984 869 1039 848 z "},"Q":{"ha":978,"x_min":-102,"x_max":1012,"o":"m 414 359 q 375 359 414 359 q 291 416 337 359 q 245 553 245 473 q 280 711 245 634 q 370 847 314 788 q 501 942 425 905 q 652 978 577 978 q 791 955 728 978 q 904 890 855 932 q 983 784 954 848 q 1012 633 1012 719 q 983 454 1012 547 q 900 281 954 361 q 773 137 846 201 q 416 -14 619 1 q 338 -124 389 -54 q 410 -151 364 -134 q 480 -176 456 -168 q 573 -200 547 -200 q 705 -109 639 -200 l 734 -129 q 714 -156 729 -136 q 689 -189 700 -176 q 660 -221 679 -202 q 621 -251 640 -239 q 519 -279 576 -279 q 315 -214 475 -279 q 273 -198 287 -203 q 177 -255 229 -238 q 51 -272 125 -272 q -63 -244 -24 -272 q -102 -173 -102 -216 q -57 -96 -102 -130 q 67 -61 -12 -61 q 285 -106 147 -61 q 352 -15 333 -42 q 101 77 189 -10 q 14 322 14 164 q 119 652 14 500 q 245 779 173 729 l 266 753 q 172 574 206 682 q 137 379 137 466 q 151 235 137 292 q 194 132 165 178 q 380 26 256 33 q 464 144 427 94 l 515 143 l 443 28 q 611 102 532 41 q 744 249 691 163 q 828 436 798 335 q 859 615 859 536 q 846 746 859 694 q 806 840 833 799 q 630 928 749 928 q 467 872 541 928 q 353 731 393 817 q 313 561 313 645 q 342 440 313 477 q 416 404 370 404 q 509 434 462 404 q 589 515 556 463 q 625 623 623 566 l 690 633 q 653 499 690 563 q 553 398 616 436 q 414 359 490 359 m -53 -174 q -53 -184 -53 -174 q -23 -211 -53 -194 q 61 -228 7 -228 q 150 -217 114 -228 q 220 -177 186 -205 q 38 -127 87 -127 q -32 -140 -11 -127 q -53 -174 -53 -153 z "},"R":{"ha":1242,"x_min":-1,"x_max":1231,"o":"m 1188 144 l 1231 123 q 1180 38 1211 71 q 1057 -20 1126 -20 q 947 58 994 -20 q 886 189 910 119 q 848 293 861 259 q 788 371 817 371 q 595 75 723 173 q 287 -23 467 -23 q 94 24 178 -23 q 25 87 51 47 q -1 181 -1 127 q 27 283 -1 235 q 100 359 55 330 q 311 421 194 421 q 433 746 315 601 q 715 949 551 894 q 872 978 801 978 q 995 964 943 978 q 1090 923 1046 950 q 1161 849 1135 896 q 1188 742 1188 802 q 1165 627 1188 682 q 1102 528 1143 572 q 909 386 1026 445 q 1009 202 955 348 q 1055 110 1029 151 q 1109 69 1082 69 q 1153 92 1135 69 q 1188 144 1175 121 m 388 212 l 347 203 q 316 317 330 235 l 311 345 q 111 292 199 345 q 63 244 82 273 q 43 177 43 215 q 64 107 43 139 q 121 58 85 76 q 275 22 190 22 q 508 100 420 22 q 645 321 596 177 q 672 402 655 351 q 699 485 688 454 q 726 563 709 516 q 759 640 744 609 q 797 711 774 671 q 846 780 821 750 q 979 896 906 850 q 919 913 962 905 q 828 921 876 921 q 662 878 747 921 q 508 765 576 834 q 396 603 440 696 q 351 418 351 510 q 585 288 500 397 l 563 264 q 541 278 559 266 q 505 300 522 291 q 463 321 488 310 q 351 346 412 346 q 371 258 354 302 q 388 212 387 214 m 791 385 q 992 511 912 422 q 1072 721 1072 600 q 1055 805 1072 762 q 1010 871 1039 847 q 899 749 935 817 q 865 683 878 709 q 838 602 852 656 q 808 469 821 536 q 791 385 794 401 z "},"S":{"ha":899,"x_min":-14,"x_max":971,"o":"m 615 32 q 582 17 615 32 q 480 -10 549 3 q 352 -22 412 -22 q 242 -16 291 -22 q 146 6 194 -9 q 64 47 98 22 q -14 203 -14 102 q 14 314 -14 262 q 87 400 42 366 q 294 473 182 473 q 495 394 429 473 q 528 297 528 354 q 474 198 528 240 q 360 157 420 157 q 346 171 346 157 q 359 192 346 186 q 392 204 373 199 q 430 218 411 210 q 477 287 477 239 q 434 358 477 334 q 284 382 391 382 q 119 328 178 382 q 61 199 61 274 q 149 60 61 101 q 335 22 227 22 q 637 129 522 22 q 718 317 718 203 q 670 448 718 385 q 623 505 649 477 q 572 560 597 532 q 525 616 546 588 q 477 730 477 677 q 494 821 477 783 q 540 887 511 859 q 606 936 569 916 q 766 978 682 978 q 902 943 839 978 q 971 827 971 905 q 949 773 971 796 q 901 750 928 750 q 856 766 873 750 q 839 801 839 781 q 856 842 839 820 q 872 879 872 864 q 860 905 872 893 q 829 924 848 918 q 760 935 791 935 q 636 892 688 935 q 585 774 585 850 q 636 677 585 732 q 687 625 659 652 q 742 566 714 597 q 793 502 770 535 q 844 350 844 429 q 813 208 844 271 q 731 102 782 144 q 615 32 681 60 z "},"T":{"ha":940,"x_min":-22,"x_max":1200,"o":"m 475 275 q 285 328 375 328 q 138 281 195 328 q 82 172 82 235 q 137 65 82 110 q 282 21 193 21 q 434 42 372 21 q 537 101 496 63 q 609 188 578 138 q 659 296 639 237 q 695 417 679 355 q 729 542 711 478 q 766 663 746 606 q 892 863 810 791 q 618 896 762 896 q 465 851 536 896 q 350 732 393 807 q 307 566 307 656 q 358 412 307 475 q 504 302 409 350 l 494 268 l 475 275 m 87 23 q 8 83 39 44 q -22 173 -22 122 q 3 263 -22 223 q 68 326 28 303 q 250 374 151 374 q 343 359 300 374 q 251 572 251 475 q 349 819 251 713 q 575 959 445 921 q 704 978 641 978 q 886 951 767 978 q 1044 924 1006 924 q 1099 932 1083 924 q 1148 977 1120 944 l 1200 977 q 1164 913 1191 940 q 1101 875 1137 887 q 977 852 1036 852 q 863 649 892 852 q 848 496 855 595 q 813 321 840 397 q 745 190 787 244 q 651 95 703 136 q 536 29 598 54 q 282 -18 416 -18 q 87 23 180 -18 z "},"U":{"ha":1136,"x_min":7,"x_max":1125,"o":"m 969 43 q 1083 160 1019 43 l 1119 139 q 1035 23 1083 63 q 937 -17 987 -17 q 851 28 886 -17 q 817 146 817 74 q 829 297 817 218 q 872 508 846 403 q 899 618 898 614 q 905 643 902 629 q 876 570 897 622 q 837 474 855 519 q 789 367 818 429 q 734 254 761 304 q 672 151 707 203 q 601 64 636 99 q 440 -17 522 -17 q 351 24 382 -17 q 319 133 319 65 q 338 290 319 200 q 378 454 356 380 q 436 783 436 652 q 400 897 436 852 q 306 942 365 942 q 202 912 246 942 q 129 835 157 882 q 80 730 100 788 q 43 522 43 622 q 127 197 43 337 l 101 175 q 31 340 55 249 q 7 504 7 431 q 17 636 7 576 q 51 758 27 696 q 109 868 75 820 q 198 946 144 916 q 308 977 252 977 q 401 961 364 977 q 463 921 439 946 q 503 861 487 895 q 533 721 533 798 q 517 565 533 644 q 480 422 500 485 q 428 134 428 257 q 469 53 428 53 q 561 103 510 53 q 662 233 612 153 q 761 410 711 313 q 853 604 811 507 q 979 911 939 800 l 998 961 l 1125 961 q 924 155 924 398 q 969 43 924 43 z "},"V":{"ha":943,"x_min":14,"x_max":1059,"o":"m 317 978 q 559 693 559 978 q 416 114 559 477 q 726 359 613 220 q 896 668 831 490 q 793 747 834 699 q 751 851 751 795 q 785 942 751 907 q 871 978 819 978 q 951 941 922 978 q 981 838 981 904 q 956 685 981 772 q 1059 648 1004 660 l 1046 616 q 945 646 968 636 q 716 278 878 443 q 302 0 554 113 l 246 0 q 338 246 290 85 q 433 730 433 557 q 309 937 433 937 q 208 909 253 937 q 136 838 163 881 q 90 738 108 794 q 56 529 56 637 q 76 369 56 437 q 185 199 113 247 l 153 172 q 48 332 81 233 q 14 513 14 431 q 24 655 14 596 q 58 773 35 714 q 115 877 81 831 q 201 950 149 922 q 317 978 254 978 m 886 913 q 844 894 862 913 q 827 843 827 876 q 850 775 827 811 q 910 711 873 739 q 932 834 932 792 q 886 913 932 913 z "},"W":{"ha":1352,"x_min":47,"x_max":1466,"o":"m 850 0 l 795 0 q 916 616 825 134 l 947 785 q 740 502 862 680 q 405 0 618 324 l 279 0 q 372 244 322 81 q 467 730 467 557 q 342 937 467 937 q 242 909 287 937 q 170 838 197 881 q 123 738 142 794 q 90 534 90 637 q 120 337 90 430 q 218 199 151 244 l 186 172 q 81 332 115 233 q 47 513 47 431 q 58 655 47 596 q 91 773 68 714 q 149 877 115 831 q 235 950 182 922 q 352 978 288 978 q 465 956 417 978 q 541 894 513 934 q 592 693 592 818 q 449 155 592 494 q 800 699 673 532 q 1013 932 916 851 l 1061 909 l 939 119 q 1179 362 1086 218 q 1302 668 1272 506 q 1188 751 1236 699 q 1141 858 1141 802 q 1170 945 1141 913 q 1241 978 1200 978 q 1306 963 1282 978 q 1345 922 1331 948 q 1371 810 1371 873 q 1360 685 1371 747 q 1466 648 1409 660 l 1456 616 q 1352 646 1370 638 q 1183 278 1309 443 q 850 0 1057 113 m 1216 851 q 1312 711 1223 773 q 1322 799 1322 764 q 1321 845 1322 833 q 1316 875 1320 857 q 1272 913 1308 913 q 1232 896 1248 913 q 1216 856 1216 879 l 1216 851 z "},"X":{"ha":1065,"x_min":-14,"x_max":1154,"o":"m 216 497 l 475 497 q 484 621 484 560 q 342 937 484 937 q 253 910 296 937 q 185 850 211 882 q 137 776 159 818 q 91 538 91 684 q 101 401 91 469 l 64 391 q 47 568 47 478 q 73 739 47 658 q 142 871 98 819 q 362 978 234 978 q 597 735 552 978 q 610 587 610 668 q 778 864 669 755 q 1036 978 892 978 q 1123 947 1091 978 q 1154 876 1154 917 q 1132 807 1154 834 q 1064 779 1109 779 q 988 815 1019 779 q 947 909 958 850 q 747 755 835 874 q 635 497 659 637 l 873 497 l 893 457 l 630 457 q 628 413 628 435 q 669 156 628 249 q 785 64 709 64 q 902 128 840 64 q 1024 321 964 192 l 1053 296 q 925 72 1015 160 q 741 -17 834 -17 q 579 73 644 -17 q 507 370 510 168 q 349 80 456 176 q 99 -16 243 -16 q 15 15 43 -16 q -14 86 -14 46 q 10 154 -14 126 q 71 182 34 182 q 130 171 107 182 q 165 136 153 160 q 186 74 182 101 q 191 45 190 47 q 293 91 245 54 q 375 186 341 129 q 469 457 443 302 l 179 457 l 216 497 z "},"Y":{"ha":1050,"x_min":-7,"x_max":1133,"o":"m 424 143 q 651 76 559 76 q 840 268 802 76 q 854 342 845 296 q 868 418 863 389 q 883 491 873 448 q 900 564 892 534 q 919 631 907 593 q 944 696 931 669 q 973 753 956 723 q 1009 807 990 784 q 1105 887 1051 857 l 1133 866 q 1029 718 1067 817 q 981 537 991 618 q 963 345 970 456 q 952 197 956 235 q 941 93 949 160 q 924 -12 933 25 q 897 -103 914 -48 q 858 -189 880 -158 q 803 -256 836 -219 q 729 -311 770 -292 q 513 -356 631 -356 q 316 -249 316 -356 q 342 -192 316 -214 q 400 -171 368 -171 q 452 -190 431 -171 q 473 -243 473 -209 q 458 -312 473 -277 q 525 -317 488 -317 q 600 -304 562 -317 q 665 -271 637 -292 q 715 -216 692 -250 q 753 -146 738 -182 q 783 -62 769 -111 q 821 134 802 12 q 739 27 789 58 q 621 -3 688 -3 q 332 64 494 -3 q 237 15 303 37 q 112 -7 172 -7 q -7 83 -7 -7 q 48 170 -7 133 q 195 208 104 208 q 372 165 286 208 q 504 308 439 220 q 613 503 568 397 q 659 694 659 609 q 597 892 659 827 q 440 958 535 958 q 317 931 380 958 q 204 861 255 905 q 121 752 153 817 q 88 612 88 686 q 124 468 88 538 l 90 453 q 50 625 50 537 q 85 789 50 713 q 178 913 121 864 q 450 1016 301 1016 q 660 937 573 1016 q 752 684 752 852 q 654 396 752 551 q 424 143 556 242 m 288 96 q 129 136 184 136 q 35 87 35 136 q 106 43 35 43 q 207 60 152 43 q 288 96 262 77 z "},"Z":{"ha":1194,"x_min":21,"x_max":1249,"o":"m 254 550 q 421 615 356 550 l 458 590 q 358 533 419 554 q 219 513 296 513 q 81 561 142 513 q 21 705 21 609 q 126 899 21 821 q 410 978 231 978 q 581 953 500 978 q 709 898 662 928 q 815 828 757 867 q 907 774 873 789 q 1012 850 953 823 q 1126 878 1072 878 q 1214 851 1180 878 q 1249 769 1249 824 q 1188 681 1249 715 q 1053 648 1128 648 q 921 668 978 648 l 817 497 l 1090 497 l 1110 457 l 793 457 l 633 200 q 787 113 684 155 q 947 71 889 71 q 1096 199 1074 71 l 1160 189 q 1085 46 1160 107 q 895 -16 1010 -16 q 656 57 789 -16 q 601 89 637 67 q 550 118 565 110 q 275 -16 424 -16 q 107 36 164 -16 q 50 164 50 87 q 115 296 50 237 q 295 359 183 359 q 517 285 393 359 q 583 245 541 271 l 716 457 l 464 457 l 500 497 l 741 497 l 859 689 q 620 823 730 741 q 538 879 580 852 q 342 935 452 935 q 234 914 283 935 q 155 861 185 894 q 90 712 90 793 q 138 591 90 631 q 254 550 186 550 m 500 153 q 361 233 448 195 q 214 271 275 271 q 124 239 154 271 q 95 161 95 208 q 139 75 95 113 q 267 36 183 36 q 500 153 393 36 m 958 746 q 1070 720 1013 720 q 1162 736 1128 720 q 1196 778 1196 753 q 1179 816 1196 803 q 1129 829 1162 829 q 1047 807 1095 829 q 958 746 999 785 z "},"[":{"ha":381,"x_min":56,"x_max":576,"o":"m 246 -7 l 56 -14 q 211 562 159 387 q 406 1072 315 909 q 576 1069 481 1072 l 552 1003 l 465 1003 q 442 992 452 1003 q 429 971 433 982 q 421 940 426 960 q 405 884 416 921 q 368 770 393 847 q 327 635 344 692 q 282 485 309 578 q 243 350 254 392 q 159 60 210 233 l 264 58 l 246 -7 z "},"\\":{"ha":743,"x_min":-56,"x_max":808,"o":"m -24 1202 l 808 -192 l 777 -214 l -56 1178 l -24 1202 z "},"]":{"ha":355,"x_min":-52,"x_max":437,"o":"m 134 -14 l -52 -7 l -31 58 l 75 60 q 126 224 83 87 q 185 411 170 361 q 233 567 201 461 q 314 843 293 764 q 340 935 335 921 q 354 985 354 968 q 336 1003 354 1003 l 249 1003 l 265 1069 q 437 1072 361 1072 q 328 571 429 899 q 195 164 252 326 q 134 -14 139 2 z "},"^":{"ha":514,"x_min":38,"x_max":485,"o":"m 266 659 l 336 659 l 485 288 l 370 288 l 299 632 l 153 288 l 38 288 l 266 659 z "},"_":{"ha":555,"x_min":1,"x_max":556,"o":"m 281 -36 l 1 -14 l 1 0 l 281 23 l 556 0 l 556 -14 l 281 -36 z "},"`":{"ha":347,"x_min":53,"x_max":301,"o":"m 301 456 l 265 456 q 94 622 214 508 l 53 660 l 168 660 q 301 456 174 652 z "},"a":{"ha":577,"x_min":-1,"x_max":541,"o":"m 375 395 l 481 395 l 427 192 q 414 114 414 149 q 427 79 414 79 q 460 101 439 79 q 496 144 481 122 l 512 165 l 541 138 q 484 59 519 95 q 368 -11 417 -11 q 309 79 309 -11 q 311 102 309 94 q 272 41 300 67 q 150 -11 218 -11 q 40 36 81 -11 q -1 152 -1 82 q 70 335 -1 260 q 235 410 140 410 q 314 384 283 410 q 355 315 345 357 l 375 395 m 262 351 q 188 318 222 351 q 136 239 154 286 q 117 149 117 193 q 137 77 117 104 q 196 50 156 50 q 269 87 237 50 q 331 254 331 157 q 262 351 331 351 z "},"b":{"ha":519,"x_min":8,"x_max":465,"o":"m 395 79 q 378 59 395 79 q 307 14 361 39 q 180 -11 252 -11 q 58 32 108 -11 q 8 140 8 75 q 11 168 8 148 q 112 577 39 355 q 269 908 185 799 l 385 908 q 263 666 334 851 q 149 301 192 481 q 333 410 231 410 q 431 367 397 410 q 465 268 465 323 q 447 166 465 212 q 395 79 429 119 m 127 168 q 122 113 122 140 q 142 59 122 86 q 202 31 161 31 q 277 66 243 31 q 342 248 342 135 q 326 323 342 294 q 278 353 311 353 q 197 300 245 353 q 127 168 149 248 z "},"c":{"ha":455,"x_min":-2,"x_max":422,"o":"m 353 140 l 380 121 q 289 25 351 60 q 159 -11 227 -11 q 44 31 91 -11 q -2 148 -2 72 q 44 284 -2 223 q 159 377 91 345 q 296 410 227 410 q 410 369 380 410 q 422 328 422 353 q 405 286 422 303 q 364 269 388 269 q 324 284 340 269 q 308 323 308 300 q 337 367 308 347 q 290 375 311 375 q 203 340 243 375 q 144 257 164 306 q 123 160 123 208 q 146 84 123 113 q 212 55 169 55 q 294 79 254 55 q 353 140 333 103 z "},"d":{"ha":597,"x_min":0,"x_max":682,"o":"m 329 83 q 159 -11 258 -11 q 46 38 92 -11 q 0 161 0 86 q 76 336 0 262 q 246 410 152 410 q 330 390 295 410 q 375 338 365 371 q 465 635 406 466 q 573 901 524 804 l 682 901 q 526 478 618 777 q 434 106 434 180 q 445 79 434 79 q 532 165 472 79 l 561 138 q 469 26 518 62 q 391 -11 420 -11 q 345 11 361 -11 q 328 73 328 32 q 329 78 328 74 q 329 83 329 81 m 123 165 q 207 56 123 56 q 336 161 286 56 q 360 241 360 211 q 277 351 360 351 q 172 300 221 351 q 123 165 123 249 z "},"e":{"ha":479,"x_min":-1,"x_max":431,"o":"m 125 134 q 230 56 129 56 q 308 77 267 56 q 373 127 348 98 l 402 109 q 222 -7 346 14 q 170 -11 195 -11 q 48 38 97 -11 q -1 156 -1 86 q 42 285 -1 226 q 149 377 85 345 q 275 410 213 410 q 384 381 338 410 q 430 304 429 353 q 402 221 431 256 q 328 168 373 186 q 154 132 239 132 l 125 134 m 121 171 q 242 195 196 174 q 306 244 288 216 q 323 301 323 271 q 308 346 323 332 q 275 361 292 361 q 195 331 231 361 q 140 257 159 300 q 121 171 121 214 z "},"f":{"ha":385,"x_min":-144,"x_max":671,"o":"m 240 350 l 224 281 q 149 11 178 89 q 1 -177 91 -138 q -75 -193 -37 -193 q -129 -179 -113 -193 q -144 -143 -144 -164 q -131 -108 -144 -123 q -97 -93 -117 -93 q -62 -102 -76 -93 q -49 -129 -49 -112 q -58 -160 -49 -145 q 67 104 12 -149 q 87 200 76 144 q 104 281 98 255 l 121 350 l -7 350 l 4 395 l 130 395 q 319 852 211 722 q 536 958 409 958 q 632 935 593 958 q 671 859 671 912 q 649 809 671 827 q 599 791 628 791 q 550 808 570 791 q 530 851 530 825 q 549 903 530 878 q 496 914 515 914 q 451 896 477 914 q 405 846 425 877 q 250 395 326 724 l 412 395 l 401 350 l 240 350 z "},"g":{"ha":484,"x_min":-66,"x_max":506,"o":"m 3 -100 q -26 -56 -26 -76 q -9 -25 -26 -35 l 73 56 q 1 200 1 116 q 75 349 1 285 q 242 414 149 414 q 274 412 263 414 q 325 510 279 464 q 438 555 370 555 q 506 494 506 555 q 491 453 506 468 q 454 437 475 437 q 417 450 433 437 q 395 486 401 463 q 329 451 354 475 q 304 408 304 427 q 394 341 359 389 q 429 241 429 293 q 358 89 429 153 q 197 25 287 25 q 100 40 138 25 q 60 -5 60 7 q 94 -26 60 -24 l 228 -32 q 335 -55 296 -35 q 374 -111 374 -75 q 353 -176 374 -148 q 295 -219 332 -203 q 119 -249 225 -249 q 21 -237 66 -249 q -66 -168 -66 -215 q -12 -106 -66 -131 q 3 -100 -3 -102 m 173 339 q 158 324 173 339 q 131 271 144 309 q 119 202 119 233 q 122 152 119 172 q 134 110 125 131 q 196 65 151 65 q 269 96 241 65 q 317 250 317 150 q 297 329 317 289 q 239 368 277 368 q 173 339 202 368 m 130 -210 q 281 -157 281 -210 q 47 -111 281 -111 q 18 -130 31 -111 q 6 -165 6 -149 q 38 -200 6 -191 q 130 -210 70 -210 z "},"h":{"ha":559,"x_min":-11,"x_max":523,"o":"m 292 62 q 292 80 292 62 q 321 176 292 98 q 349 287 349 254 q 326 321 349 321 q 269 288 302 321 q 205 208 236 255 q 104 33 155 131 l 87 0 l -11 0 q 53 363 22 245 q 111 565 83 481 q 171 713 139 648 q 336 932 243 861 l 388 908 q 255 653 315 836 q 120 149 194 470 q 137 177 124 155 q 156 211 149 199 q 177 244 163 222 q 200 280 191 267 q 225 313 210 293 q 252 344 240 332 q 280 370 264 356 q 311 392 296 384 q 385 410 346 410 q 445 388 425 410 q 465 330 465 366 q 431 207 465 293 q 397 100 397 120 q 408 79 397 79 q 494 165 436 79 l 523 138 q 432 26 479 64 q 355 -11 385 -11 q 309 8 325 -11 q 292 62 292 27 z "},"i":{"ha":328,"x_min":-8,"x_max":314,"o":"m 121 -11 q 107 -11 121 -11 q 76 7 92 -11 q 60 55 60 24 q 76 139 60 86 q 107 236 92 193 q 123 294 123 279 q 114 309 123 309 q 37 215 90 309 l -8 241 q 175 410 92 410 q 232 338 232 410 q 218 271 232 317 l 170 131 q 162 95 162 111 q 174 79 162 79 q 259 165 197 79 l 288 138 q 200 30 251 71 q 121 -11 150 -11 m 314 610 q 314 596 314 610 q 296 560 314 583 q 246 538 277 538 q 199 556 215 538 q 184 604 184 575 q 203 654 184 632 q 253 676 222 676 q 299 657 283 676 q 314 610 314 637 z "},"j":{"ha":287,"x_min":-138,"x_max":318,"o":"m -50 -88 q -93 -51 -50 -51 q -126 -64 -113 -51 q -138 -98 -138 -77 q -116 -136 -138 -119 q -59 -153 -94 -153 q 1 -148 -23 -153 q 43 -136 24 -143 q 78 -113 61 -128 q 106 -83 94 -97 q 130 -43 118 -68 q 151 3 142 -18 q 170 58 159 23 q 188 119 180 92 q 208 189 195 145 q 231 271 220 232 q 243 345 243 310 q 179 410 243 410 q -4 241 96 410 l 41 215 q 118 309 94 309 q 127 286 127 309 q 96 184 117 250 q 65 82 75 118 q 48 24 56 47 q 30 -28 41 1 q 7 -75 18 -58 q -56 -117 -20 -114 q -50 -88 -50 -108 m 318 610 q 318 596 318 610 q 300 560 318 583 q 250 538 281 538 q 203 556 219 538 q 188 604 188 575 q 207 654 188 632 q 257 676 227 676 q 303 657 288 676 q 318 610 318 637 z "},"k":{"ha":583,"x_min":-11,"x_max":620,"o":"m 188 733 q 317 900 236 837 q 488 964 397 964 q 581 937 542 964 q 620 854 620 909 q 598 805 620 823 q 548 787 577 787 q 499 804 519 787 q 479 846 479 821 q 498 899 479 871 q 453 909 475 909 q 403 892 431 909 q 353 845 376 874 q 278 719 312 793 q 170 359 243 644 q 96 0 96 73 l -11 0 q 55 351 -11 116 q 188 733 120 585 m 528 119 q 453 28 498 68 q 362 -11 407 -11 q 294 28 317 -11 q 252 98 271 66 q 222 148 233 130 q 201 182 211 167 q 188 206 192 198 q 179 220 183 214 q 173 235 175 227 l 193 256 q 495 461 385 461 q 560 441 537 461 q 583 395 583 420 q 567 351 583 370 q 522 332 551 332 q 478 345 494 332 q 460 372 463 359 l 458 386 q 274 261 354 330 q 254 243 257 246 q 389 82 273 229 q 414 66 401 66 q 446 83 427 66 q 500 143 464 100 l 528 119 z "},"l":{"ha":275,"x_min":7,"x_max":362,"o":"m 252 902 l 362 902 q 273 679 333 852 q 162 332 212 507 q 113 118 113 157 q 122 79 113 79 q 211 165 151 79 l 239 138 q 175 52 210 87 q 76 -11 114 -11 q 7 73 7 -11 q 89 464 7 197 q 252 902 172 731 z "},"m":{"ha":939,"x_min":-29,"x_max":903,"o":"m 432 0 l 332 0 l 345 45 q 369 122 351 71 q 408 294 408 233 q 386 321 408 321 q 320 288 358 321 q 248 208 283 255 q 134 33 191 128 l 115 0 l 20 0 q 41 64 20 0 q 100 273 100 240 q 89 306 100 306 q 42 259 69 306 q 32 242 36 248 q 23 226 28 235 q 16 215 18 217 l -29 241 q 68 369 24 328 q 158 410 112 410 q 194 392 179 410 q 210 350 210 374 q 207 308 210 326 q 201 273 204 289 q 191 236 197 258 q 181 203 185 214 q 172 172 178 191 q 164 149 165 152 q 208 220 178 172 q 249 280 239 267 q 275 312 258 292 q 303 344 291 332 q 334 370 316 355 q 367 391 351 384 q 444 410 405 410 q 503 388 483 410 q 524 336 524 366 q 514 275 524 307 q 489 200 505 243 q 468 143 473 158 q 568 292 533 249 q 754 410 662 410 q 819 388 800 410 q 839 329 839 366 q 807 205 839 292 q 775 99 775 119 q 787 79 775 79 q 873 165 814 79 l 903 138 q 814 28 863 67 q 732 -11 766 -11 q 684 12 698 -11 q 671 65 671 34 q 698 174 671 96 q 725 294 725 252 q 701 321 725 321 q 505 122 633 321 q 432 0 453 41 z "},"n":{"ha":613,"x_min":-22,"x_max":577,"o":"m 184 191 q 439 410 326 410 q 496 387 477 410 q 515 328 515 363 q 483 206 515 293 q 452 99 452 119 q 462 78 452 78 q 502 106 475 78 q 549 165 528 134 l 577 138 q 488 27 536 64 q 409 -11 439 -11 q 362 9 379 -11 q 345 64 345 29 q 373 177 345 98 q 400 288 400 255 q 378 321 400 321 q 317 288 352 321 q 248 208 281 255 q 140 33 195 132 l 122 0 l 26 0 l 47 64 q 106 273 106 240 q 96 306 106 306 q 49 259 76 306 q 39 242 43 248 q 30 226 35 235 q 23 215 24 217 l -22 241 q 75 369 31 328 q 165 410 119 410 q 201 392 186 410 q 216 349 216 374 q 212 300 216 324 q 204 260 208 276 q 192 219 199 244 q 184 191 185 194 z "},"o":{"ha":526,"x_min":-1,"x_max":471,"o":"m -1 161 q 24 259 -1 212 q 88 339 49 307 q 265 410 175 410 q 413 361 355 410 q 471 241 471 313 q 431 111 471 169 q 326 21 391 54 q 184 -11 261 -11 q 53 38 107 -11 q -1 161 -1 86 m 221 31 q 280 52 252 31 q 321 104 307 72 q 349 233 349 167 q 325 334 349 300 q 256 368 300 368 q 167 310 211 368 q 123 161 123 252 q 221 31 123 31 z "},"p":{"ha":553,"x_min":-182,"x_max":498,"o":"m 468 130 q 452 100 468 130 q 381 29 437 69 q 252 -11 325 -11 q 136 45 180 -11 q 82 -134 104 -81 q -111 -301 12 -300 q -161 -281 -141 -301 q -182 -234 -182 -260 q -168 -192 -182 -207 q -132 -176 -155 -176 q -95 -187 -110 -176 q -80 -219 -80 -197 q -104 -267 -80 -241 l -100 -272 q -23 -149 -58 -272 q -3 -72 -9 -100 q 4 -39 3 -44 l 75 241 q -9 157 42 220 l -36 188 q 35 269 -6 229 q 86 319 75 308 q 189 553 139 475 q 302 677 240 632 l 321 661 q 248 532 278 610 q 210 380 218 453 q 348 410 282 410 q 456 368 413 410 q 498 259 498 327 q 468 130 498 191 m 203 319 l 151 92 q 192 52 163 65 q 258 38 220 38 q 326 70 295 38 q 385 225 385 130 q 338 340 385 311 q 290 353 320 353 q 203 319 260 353 z "},"q":{"ha":512,"x_min":-2,"x_max":547,"o":"m 180 -338 l 159 -313 q 216 -198 194 -266 q 257 -64 237 -130 q 288 35 277 1 q 256 10 279 22 q 172 -11 214 -11 q 94 3 129 -11 q 39 39 59 16 q -2 147 -2 84 q 34 271 -2 210 q 129 371 69 332 q 253 410 189 410 q 370 368 317 410 q 438 508 404 455 q 528 604 473 562 l 547 585 q 492 460 515 543 q 472 377 485 436 q 455 304 458 317 l 373 -39 q 300 -210 352 -123 q 180 -338 248 -296 m 307 111 l 356 319 q 276 350 319 350 q 191 313 233 350 q 126 224 149 276 q 102 128 102 172 q 124 58 102 85 q 190 31 145 31 q 270 57 239 31 q 307 111 300 82 z "},"r":{"ha":518,"x_min":-28,"x_max":508,"o":"m 372 321 q 311 288 347 321 q 243 208 276 255 q 135 33 190 132 l 117 0 l 21 0 q 42 64 21 0 q 101 273 101 240 q 90 306 101 306 q 43 259 71 306 q 33 242 37 248 q 24 226 29 235 q 18 215 19 217 l -28 241 q 69 369 25 328 q 159 410 113 410 q 196 392 180 410 q 211 350 211 374 q 208 308 211 326 q 202 273 205 289 q 193 236 199 258 q 183 203 186 214 q 173 172 179 191 q 165 149 167 152 q 207 220 178 173 q 245 280 236 268 q 269 313 254 292 q 297 344 285 333 q 325 370 309 355 q 357 392 342 385 q 430 410 395 410 q 487 389 465 410 q 508 341 508 368 q 491 293 508 313 q 451 272 473 272 q 415 280 428 272 q 397 296 402 288 q 372 321 383 321 z "},"s":{"ha":446,"x_min":-19,"x_max":391,"o":"m 63 5 q 41 13 63 5 q 0 42 19 20 q -19 89 -19 63 q -5 132 -19 115 q 33 149 9 149 q 74 135 56 149 q 92 95 92 121 q 61 53 92 70 q 140 31 87 31 q 254 96 254 31 q 182 161 254 136 q 122 182 152 171 q 69 216 92 194 q 45 271 47 239 q 75 349 45 317 q 248 410 133 410 q 347 388 304 410 q 391 333 391 367 q 373 284 391 299 q 333 269 356 269 q 294 282 310 269 q 278 317 278 294 q 304 355 278 339 q 248 367 288 367 q 176 355 208 367 q 144 323 144 343 q 168 289 144 302 q 224 264 191 275 q 291 237 258 252 q 348 195 324 222 q 371 126 371 167 q 338 52 371 85 q 165 -11 275 -11 q 63 5 108 -11 z "},"t":{"ha":304,"x_min":7,"x_max":319,"o":"m 92 395 q 235 758 162 612 l 319 751 q 282 647 311 730 q 201 395 219 465 l 307 395 l 296 350 l 186 350 q 124 116 124 157 q 133 74 124 74 q 148 77 141 74 q 227 176 166 87 l 254 151 q 161 29 209 68 q 81 -11 113 -11 q 34 11 50 -11 q 18 66 18 33 q 79 350 18 153 l 7 350 l 18 395 l 92 395 z "},"u":{"ha":608,"x_min":-17,"x_max":572,"o":"m 536 395 q 445 101 445 153 q 456 79 445 79 q 543 166 486 79 l 572 138 q 487 32 536 74 q 407 -11 437 -11 q 344 53 344 -11 q 367 174 344 102 q 390 245 390 245 q 374 217 387 239 q 355 184 361 195 q 335 152 349 174 q 312 117 321 130 q 287 85 302 104 q 260 54 272 65 q 232 28 248 42 q 201 7 216 14 q 134 -11 167 -11 q 54 78 54 -11 q 83 204 54 119 q 112 306 112 290 q 102 321 112 321 q 27 235 75 321 l -17 261 q 162 410 76 410 q 208 394 191 410 q 223 345 224 378 q 190 228 222 312 q 158 98 158 143 q 180 74 158 74 q 242 107 206 74 q 311 187 277 140 q 420 362 363 262 l 439 395 l 536 395 z "},"v":{"ha":543,"x_min":-31,"x_max":497,"o":"m 184 65 q 301 106 242 65 q 395 201 360 146 q 431 298 431 256 q 401 293 427 293 q 360 310 376 293 q 345 350 345 326 q 362 391 345 373 q 411 410 380 410 q 497 315 497 410 q 471 218 497 273 q 398 111 444 163 q 280 24 353 60 q 128 -11 208 -11 q 47 67 47 -11 q 73 187 47 111 q 98 283 98 262 q 86 304 98 304 q 14 216 68 304 l -31 241 q 153 410 69 410 q 192 393 175 410 q 208 339 208 376 q 181 200 208 301 q 154 93 154 99 q 184 65 154 65 z "},"w":{"ha":717,"x_min":-31,"x_max":667,"o":"m 425 296 l 421 171 q 450 47 421 47 q 516 89 479 47 q 577 191 552 131 q 603 298 603 250 q 571 293 596 293 q 530 309 547 293 q 514 348 514 324 q 532 391 514 372 q 586 410 550 410 q 644 387 622 410 q 667 323 667 363 q 649 227 667 283 q 602 117 632 170 q 525 26 572 63 q 422 -11 477 -11 q 354 45 374 -11 q 335 126 337 91 q 332 180 333 161 q 173 4 239 38 q 114 -11 144 -11 q 47 67 47 -11 q 73 187 47 111 q 98 283 98 262 q 86 304 98 304 q 14 216 68 304 l -31 241 q 153 410 69 410 q 192 393 175 410 q 208 339 208 376 q 181 200 208 301 q 154 93 154 99 q 172 65 154 65 q 224 110 189 65 q 292 209 259 155 q 406 353 376 353 q 425 296 425 353 z "},"x":{"ha":524,"x_min":-26,"x_max":503,"o":"m 297 184 q 348 64 297 64 q 458 165 386 64 l 488 138 q 431 58 464 95 q 313 -11 368 -11 q 251 27 275 -11 q 227 110 227 65 q 152 21 199 52 q 62 -11 106 -11 q -26 66 -26 -11 q -11 107 -26 90 q 26 123 4 123 q 61 117 48 123 q 81 96 75 111 q 97 35 92 75 q 156 78 124 35 q 196 184 188 121 l 93 184 l 109 207 l 197 207 q 197 225 197 210 q 197 258 197 241 q 193 301 196 275 q 161 354 186 354 q 96 308 135 354 q 73 278 84 292 q 61 262 62 264 q 58 258 60 260 l 16 283 q 183 410 106 410 q 269 327 245 410 q 276 293 274 309 q 437 410 340 410 q 484 395 465 410 q 503 351 503 380 q 489 303 503 322 q 450 285 475 285 q 408 301 426 285 q 382 332 389 317 l 375 349 q 318 287 340 326 q 297 207 297 248 l 394 207 l 403 184 l 297 184 z "},"y":{"ha":542,"x_min":-54,"x_max":525,"o":"m 32 235 l -12 261 q 72 365 22 320 q 163 410 123 410 q 228 351 228 410 q 194 233 228 327 q 161 113 161 138 q 164 81 161 88 q 179 74 168 74 q 306 120 241 74 q 391 223 372 167 l 439 361 q 462 395 446 382 q 492 407 477 407 q 516 397 507 407 q 525 372 525 388 q 519 340 525 357 l 467 189 q 335 -73 425 56 q 474 -100 413 -81 l 469 -138 q 303 -116 375 -119 q 169 -251 237 -201 q 48 -302 100 -302 q -28 -281 -3 -302 q -54 -224 -54 -260 q -26 -159 -54 -189 q 46 -111 1 -130 q 258 -68 138 -73 q 303 8 267 -57 q 342 91 339 74 q 130 -11 222 -11 q 76 15 93 -11 q 59 77 59 40 q 87 205 59 115 q 115 308 115 296 q 110 321 115 321 q 97 318 104 321 q 84 308 90 315 q 72 296 77 302 q 60 280 66 290 q 50 264 54 270 q 32 235 36 242 m 228 -116 q 116 -136 173 -119 q 6 -209 6 -167 q 37 -234 6 -234 q 139 -189 68 -234 q 228 -116 210 -144 z "},"z":{"ha":469,"x_min":-24,"x_max":430,"o":"m 75 37 q 20 -1 57 28 l -24 33 q 111 179 -20 47 q 250 322 241 312 q 114 368 158 368 l 107 367 q 136 313 136 338 q 115 274 136 288 q 69 260 94 260 q 25 275 43 260 q 7 315 7 290 q 42 389 7 363 q 120 415 77 415 q 229 394 162 415 q 328 372 296 372 q 402 387 359 372 l 430 347 q 351 293 402 293 q 328 300 342 293 l 131 89 q 226 62 167 89 q 319 33 286 35 q 296 79 296 52 q 316 122 296 106 q 359 138 336 138 q 400 120 382 138 q 418 70 418 103 q 390 13 418 36 q 315 -11 361 -11 q 75 37 221 -11 z "},"{":{"ha":445,"x_min":77,"x_max":604,"o":"m 249 345 l 233 112 q 241 21 233 42 q 256 -14 248 0 q 309 -43 273 -43 q 345 -37 324 -43 l 352 -77 q 286 -84 321 -84 q 222 -66 252 -84 q 176 -21 193 -48 q 149 43 159 5 q 133 182 133 103 l 144 348 q 128 412 144 385 q 77 439 112 439 l 87 481 q 205 581 152 481 q 254 677 229 624 q 307 783 278 730 q 369 879 336 836 q 449 950 401 923 q 540 978 497 978 q 604 972 583 978 l 584 930 q 548 935 570 935 q 497 914 526 935 q 446 864 467 893 q 402 792 425 836 q 366 716 379 749 q 336 642 353 684 q 315 587 320 600 q 172 460 277 502 q 228 411 206 441 q 249 345 249 381 z "},"|":{"ha":340,"x_min":26,"x_max":375,"o":"m 97 -7 l 26 -7 q 55 111 31 11 q 92 263 79 211 q 131 418 105 316 q 175 590 156 520 q 218 745 195 661 q 306 1016 263 906 l 375 1016 q 217 451 314 821 q 97 -7 121 81 z "},"}":{"ha":458,"x_min":-106,"x_max":420,"o":"m 249 549 l 264 782 q 257 873 264 852 q 241 907 250 894 q 189 937 224 937 q 153 930 174 937 l 146 970 q 212 978 177 978 q 276 960 246 978 q 322 915 305 942 q 349 850 338 888 q 365 712 365 791 l 354 546 q 370 481 354 509 q 420 454 386 454 l 411 412 q 292 313 346 412 q 244 217 269 270 q 191 111 220 164 q 129 15 162 58 q 48 -57 96 -29 q -42 -84 1 -84 q -106 -78 -85 -84 l -86 -37 q -50 -41 -72 -41 q 1 -20 -28 -41 q 52 29 30 0 q 96 101 73 58 q 132 178 118 144 q 183 307 174 286 q 326 434 220 392 q 270 483 292 452 q 249 549 249 513 z "},"~":{"ha":1158,"x_min":309,"x_max":883,"o":"m 715 435 q 691 435 715 435 q 560 465 667 435 q 403 496 454 496 q 317 465 353 496 l 309 475 q 368 554 326 520 q 466 587 410 587 q 632 556 521 587 q 783 524 744 524 q 845 541 821 524 q 874 557 868 557 l 883 549 q 820 471 876 507 q 715 435 763 435 z "},"":{"ha":218,"x_min":0,"x_max":0,"o":""},"":{"ha":529,"x_min":86,"x_max":426,"o":"m 339 665 l 193 -16 l 86 -16 q 298 665 196 383 l 339 665 m 352 778 q 339 778 352 778 q 307 794 325 778 q 290 843 290 810 q 312 896 290 876 q 361 916 334 916 q 408 899 389 916 q 426 850 426 882 q 403 798 426 818 q 352 778 380 778 z "},"":{"ha":456,"x_min":21,"x_max":445,"o":"m 163 -179 l 128 -170 l 180 42 q 66 85 112 43 q 21 201 21 127 q 61 333 21 275 q 160 424 100 390 q 286 465 220 457 l 339 682 l 374 677 l 322 467 q 418 441 391 466 q 445 389 445 416 q 428 344 445 361 q 387 327 411 327 q 347 342 363 327 q 331 381 331 357 q 360 425 331 405 q 314 433 335 433 l 233 108 l 238 108 q 317 133 277 108 q 376 198 356 158 l 404 178 q 328 89 378 123 q 218 45 277 54 l 163 -179 m 276 427 q 183 345 220 408 q 146 209 146 281 q 199 115 146 137 l 276 427 z "},"":{"ha":1108,"x_min":16,"x_max":1173,"o":"m 524 615 l 591 612 q 637 613 618 612 q 788 906 695 823 q 986 978 869 978 q 1122 943 1071 978 q 1173 852 1173 907 q 1145 752 1173 797 q 1075 679 1118 708 q 972 626 1032 649 q 741 570 873 587 q 708 448 709 454 q 770 441 740 441 q 912 488 860 441 l 937 467 q 768 368 892 368 q 688 376 733 368 q 599 175 648 255 q 673 140 623 164 q 754 102 724 116 q 904 64 840 64 q 958 78 932 64 q 996 109 983 92 q 1019 140 1009 125 q 1031 154 1029 154 l 1061 136 q 935 -3 1002 24 q 859 -16 905 -16 q 757 2 812 -16 q 637 51 702 20 q 541 93 572 81 q 398 15 486 46 q 200 -16 309 -16 q 100 5 145 -16 q 16 104 16 44 q 53 206 16 165 q 250 285 124 285 q 441 247 340 285 q 536 208 477 233 q 587 399 559 273 q 491 412 537 412 q 387 392 444 412 l 369 421 q 505 479 419 479 q 601 465 540 479 q 623 560 614 528 q 513 576 575 560 l 524 615 m 1095 844 q 1095 864 1095 844 q 1063 906 1095 884 q 991 928 1031 928 q 927 920 952 928 q 884 898 903 911 q 848 862 865 884 q 819 815 831 839 q 794 758 806 792 q 754 625 773 701 q 1011 712 910 647 q 1071 769 1047 735 q 1095 844 1095 804 m 58 113 q 125 41 58 59 q 220 26 176 26 q 305 34 263 26 q 398 65 347 41 q 477 123 450 88 q 436 138 476 123 q 373 161 397 153 q 309 180 350 168 q 170 203 230 203 q 58 113 58 203 z "},"":{"ha":642,"x_min":56,"x_max":632,"o":"m 85 176 l 56 201 l 123 280 q 60 460 60 351 q 153 654 60 568 l 109 718 l 140 740 l 182 680 q 369 741 267 741 q 541 679 470 741 l 603 751 l 632 726 l 568 651 q 623 486 623 582 q 596 371 623 428 q 517 274 568 315 l 577 189 l 547 165 l 485 252 q 310 205 406 205 q 152 254 214 205 l 85 176 m 353 684 q 325 684 353 684 q 249 621 296 684 q 202 458 202 557 q 234 313 202 359 q 321 267 266 267 q 429 330 376 267 q 481 487 481 393 q 445 633 481 581 q 353 684 409 684 z "},"":{"ha":1050,"x_min":50,"x_max":1133,"o":"m 424 184 q 651 117 559 117 q 840 349 802 117 q 856 421 846 375 q 871 495 865 467 q 888 565 878 523 q 908 634 899 606 q 932 697 918 662 q 963 757 946 732 q 1000 808 979 782 q 1105 887 1042 858 l 1133 866 q 1008 628 1042 791 q 973 353 980 490 q 935 -43 961 85 l 1055 -43 l 1044 -88 l 924 -88 q 910 -135 920 -104 l 1034 -135 l 1024 -180 l 893 -180 q 766 -340 848 -283 q 547 -397 683 -397 q 350 -290 350 -397 q 376 -233 350 -254 q 434 -212 402 -212 q 486 -231 465 -212 q 507 -284 507 -250 q 492 -353 507 -318 q 551 -357 522 -357 q 752 -180 687 -357 l 576 -180 l 580 -135 l 766 -135 q 779 -88 772 -115 l 583 -88 l 586 -43 l 789 -43 q 821 174 806 45 q 739 68 789 99 q 621 37 688 37 q 332 105 494 37 q 258 81 303 81 q 185 100 214 81 q 157 155 157 119 q 184 213 157 191 q 264 235 212 235 q 372 206 317 235 q 564 424 474 284 q 632 562 606 490 q 659 694 659 635 q 597 892 659 827 q 440 958 535 958 q 317 931 380 958 q 204 861 255 905 q 121 752 153 817 q 88 612 88 686 q 124 468 88 538 l 90 453 q 50 625 50 537 q 85 789 50 713 q 178 913 121 864 q 450 1016 301 1016 q 660 937 573 1016 q 752 684 752 852 q 655 417 752 557 q 424 184 558 277 z "},"":{"ha":340,"x_min":26,"x_max":375,"o":"m 266 631 l 186 631 q 306 1016 255 885 l 375 1016 q 266 631 337 895 m 124 394 l 203 395 q 97 -7 123 87 l 26 -7 q 124 394 123 393 z "},"":{"ha":583,"x_min":41,"x_max":555,"o":"m 437 748 q 484 827 437 780 q 410 869 484 869 q 289 822 333 869 q 265 764 265 797 q 291 702 265 730 q 352 651 316 674 q 425 602 388 627 q 511 459 511 541 q 463 330 511 378 q 335 267 415 281 q 365 232 342 256 q 407 142 407 184 q 339 -2 407 57 q 186 -62 272 -62 q 88 -34 134 -62 q 41 35 41 -6 q 66 107 41 77 q 115 138 90 138 q 166 104 166 138 q 152 68 166 85 q 124 37 138 52 q 110 7 110 22 q 139 -23 110 -14 q 197 -33 169 -33 q 301 2 252 -33 q 350 91 350 37 q 262 201 350 136 q 189 259 225 229 q 127 330 153 289 q 101 417 101 372 q 150 540 101 494 q 275 594 198 586 q 258 614 273 597 q 238 638 242 632 q 224 660 233 645 q 208 729 208 686 q 240 815 208 772 q 426 900 304 900 q 515 874 476 900 q 555 808 555 848 q 535 739 555 768 q 484 710 515 710 q 437 748 437 710 m 301 297 q 392 313 358 297 q 454 403 454 343 q 414 484 454 448 q 348 537 383 514 q 301 569 312 561 q 178 527 220 569 q 154 467 154 503 q 208 373 154 431 q 301 297 262 315 z "},"":{"ha":510,"x_min":75,"x_max":457,"o":"m 149 593 q 162 593 149 593 q 194 577 176 593 q 212 528 212 561 q 189 476 212 496 q 139 456 167 456 q 94 472 112 456 q 75 521 75 489 q 98 573 75 553 q 149 593 121 593 m 394 593 q 408 593 394 593 q 439 577 422 593 q 457 528 457 561 q 435 476 457 496 q 385 456 412 456 q 339 472 357 456 q 321 521 321 489 q 344 573 321 553 q 394 593 367 593 z "},"":{"ha":1023,"x_min":73,"x_max":951,"o":"m 273 98 q 226 123 273 98 q 126 242 179 149 q 73 437 73 334 q 99 616 73 540 q 171 746 126 692 q 276 838 216 800 q 538 913 393 913 q 718 879 638 913 q 848 786 798 844 q 951 503 951 666 q 875 245 951 360 q 650 72 793 119 q 470 46 573 46 q 273 98 366 46 m 490 104 q 814 275 706 104 q 876 498 876 375 q 754 787 876 681 q 535 861 669 861 q 316 795 414 861 q 146 451 146 680 q 240 200 146 296 q 490 104 335 104 m 682 417 l 715 393 q 604 273 679 317 q 446 229 528 229 q 307 279 363 229 q 250 424 250 330 q 307 591 250 517 q 446 705 363 665 q 612 744 528 744 q 738 706 695 744 q 764 648 764 683 q 744 593 764 614 q 695 573 724 573 q 646 592 666 573 q 627 640 627 610 q 661 691 627 669 q 604 702 633 702 q 500 660 547 702 q 428 558 452 618 q 403 439 403 498 q 430 344 403 380 q 509 308 457 308 q 609 338 562 308 q 682 417 657 368 z "},"":{"ha":488,"x_min":20,"x_max":472,"o":"m 332 561 q 285 633 285 561 q 286 652 285 646 q 240 591 276 621 q 148 561 204 561 q 56 601 92 561 q 20 701 20 642 q 79 843 20 785 q 214 900 138 900 q 285 879 257 900 q 321 824 313 858 l 340 893 l 425 893 l 380 724 q 370 659 370 684 q 379 633 370 633 q 407 651 389 633 q 436 686 424 669 l 448 703 l 472 682 q 412 603 454 644 q 332 561 370 561 m 119 703 q 187 610 119 610 q 250 640 222 610 q 302 775 302 696 q 236 853 302 853 q 153 808 186 853 q 119 703 119 763 z "},"":{"ha":452,"x_min":37,"x_max":534,"o":"m 460 46 l 400 -1 q 212 232 212 222 q 362 357 282 295 q 491 446 443 419 l 534 389 q 301 229 399 305 q 460 46 324 212 m 279 46 l 219 -1 q 37 232 37 222 q 178 358 104 296 q 296 446 252 419 l 339 389 q 127 229 206 298 q 279 46 147 214 z "},"":{"ha":524,"x_min":3,"x_max":502,"o":"m 3 248 l 18 303 l 502 303 l 454 106 l 378 106 l 412 248 l 3 248 z "},"":{"ha":337,"x_min":14,"x_max":323,"o":"m 254 244 l 73 257 q 14 245 39 257 l 18 307 q 81 319 50 319 q 170 311 113 319 q 261 302 228 302 q 323 307 294 302 l 319 252 q 254 244 298 244 z "},"":{"ha":1023,"x_min":73,"x_max":951,"o":"m 718 218 l 688 219 q 607 236 642 219 q 554 277 572 252 q 522 335 536 302 q 502 397 508 368 q 468 496 485 473 q 420 492 451 492 l 381 238 l 272 238 q 377 774 339 627 q 543 787 463 787 q 674 754 623 787 q 726 670 726 722 q 681 573 726 618 q 564 511 637 529 q 611 372 604 390 q 664 303 635 317 q 736 289 694 289 l 718 218 m 463 723 l 431 545 q 601 630 563 557 q 610 671 610 649 q 583 708 610 693 q 516 724 556 724 q 463 723 475 724 m 273 98 q 226 123 273 98 q 126 242 179 149 q 73 437 73 334 q 99 616 73 540 q 171 746 126 692 q 276 838 216 800 q 538 913 393 913 q 718 879 638 913 q 848 786 798 844 q 951 503 951 666 q 875 245 951 360 q 650 72 793 119 q 470 46 573 46 q 273 98 366 46 m 490 104 q 814 279 706 104 q 876 505 876 381 q 792 752 876 649 q 685 832 751 802 q 548 861 618 861 q 421 845 477 861 q 316 795 366 829 q 228 713 266 761 q 146 453 146 610 q 240 200 146 296 q 490 104 335 104 z "},"":{"ha":337,"x_min":21,"x_max":330,"o":"m 219 496 l 80 497 q 21 492 45 497 l 24 554 q 146 559 60 559 q 330 554 233 559 l 326 499 q 219 496 280 496 z "},"":{"ha":285,"x_min":18,"x_max":266,"o":"m 138 481 q 153 481 138 481 q 193 505 168 481 q 218 566 218 528 q 199 623 218 604 q 149 642 179 642 q 93 618 118 642 q 67 557 67 595 q 87 500 67 519 q 138 481 108 481 m 150 684 q 175 684 150 684 q 233 654 201 684 q 266 566 266 625 q 227 472 266 507 q 138 438 189 438 q 53 468 88 438 q 18 555 18 498 q 59 648 18 612 q 150 684 100 684 z "},"":{"ha":484,"x_min":0,"x_max":427,"o":"m 77 316 l 91 371 l 219 371 l 253 511 l 332 511 l 297 371 l 427 371 l 412 316 l 281 316 l 245 174 l 170 174 l 203 316 l 77 316 m 400 106 l 393 79 q 328 71 372 77 q 197 57 238 57 q 125 60 156 57 q 56 70 94 64 q 0 79 18 77 q 8 106 0 87 q 71 115 30 109 q 203 130 167 130 q 271 125 239 130 q 341 115 304 121 q 400 106 379 109 z "},"":{"ha":565,"x_min":84,"x_max":472,"o":"m 138 345 l 103 361 q 179 458 128 421 q 278 496 229 496 q 362 484 328 496 q 424 441 397 471 q 450 378 450 410 q 444 324 450 345 q 431 286 438 302 q 406 249 423 269 q 378 217 389 229 q 343 185 368 205 q 308 157 319 165 q 269 129 298 149 q 233 102 241 108 q 395 96 338 102 q 425 130 414 106 q 442 167 436 153 q 449 182 448 181 l 472 179 l 412 -1 q 357 7 395 1 q 212 20 271 20 q 100 5 152 20 l 84 33 l 106 47 q 275 191 218 117 q 332 319 332 266 q 311 400 332 372 q 253 429 289 429 q 186 406 217 429 q 138 345 155 383 z "},"":{"ha":469,"x_min":32,"x_max":410,"o":"m 322 389 q 261 430 322 430 q 191 405 224 430 q 141 345 157 380 l 107 363 q 192 461 140 424 q 297 498 245 498 q 380 473 350 498 q 410 402 410 449 q 379 321 410 355 q 300 275 347 287 q 362 241 339 268 q 385 165 385 214 q 353 75 385 117 q 177 -7 289 -7 q 56 37 99 -7 q 32 94 32 62 q 51 144 32 126 q 91 162 69 162 q 124 150 113 162 q 135 123 135 138 q 82 81 135 81 q 156 34 102 34 q 247 66 210 34 q 285 142 285 98 q 257 207 285 185 q 188 229 230 229 l 154 227 l 174 281 q 273 311 224 281 q 322 389 322 341 z "},"":{"ha":334,"x_min":64,"x_max":310,"o":"m 100 456 l 64 456 q 171 622 92 494 l 195 660 l 310 660 q 256 605 300 650 q 100 456 144 490 z "},"":{"ha":589,"x_min":-26,"x_max":562,"o":"m 526 395 q 435 101 435 153 q 446 79 435 79 q 533 166 476 79 l 562 138 q 477 32 526 74 q 397 -11 428 -11 q 334 53 334 -11 q 357 174 334 102 q 380 245 380 245 q 364 217 377 239 q 345 184 351 195 q 325 152 339 174 q 302 117 311 130 q 278 85 293 104 q 251 54 262 65 q 222 28 239 42 q 191 7 206 14 q 86 -4 134 -23 q 79 -61 81 -26 q 73 -109 76 -96 q 39 -130 66 -130 q -9 -76 -9 -130 q 6 7 -9 -38 q 36 94 22 52 q 57 157 51 136 q 76 213 64 178 q 102 304 102 288 q 93 321 102 321 q 18 235 66 321 l -26 261 q 153 410 66 410 q 198 394 181 410 q 214 345 215 378 q 181 228 213 312 q 149 98 149 143 q 171 74 149 74 q 232 107 197 74 q 301 187 268 140 q 411 362 354 262 l 429 395 l 526 395 z "},"":{"ha":835,"x_min":44,"x_max":782,"o":"m 536 890 l 461 891 l 453 891 q 413 631 446 844 q 322 11 326 69 l 231 11 q 302 494 279 373 q 156 572 189 551 q 44 753 45 645 q 141 911 44 861 q 459 962 239 961 q 782 962 680 962 q 780 927 781 949 q 777 893 778 905 q 627 890 738 890 l 494 11 l 404 11 l 536 890 z "},"":{"ha":269,"x_min":54,"x_max":191,"o":"m 128 467 q 142 467 128 467 q 173 451 155 467 q 191 402 191 435 q 169 350 191 370 q 119 330 146 330 q 73 347 91 330 q 54 395 54 363 q 77 447 54 427 q 128 467 100 467 z "},"":{"ha":885,"x_min":330,"x_max":570,"o":"m 338 -221 l 427 -229 q 492 -190 492 -229 q 401 -151 492 -151 l 386 -151 l 435 -1 l 480 -1 l 456 -75 q 539 -101 507 -75 q 570 -172 570 -128 q 535 -237 570 -216 q 441 -258 500 -258 q 336 -231 381 -258 q 330 -224 330 -227 q 338 -221 330 -221 z "},"":{"ha":368,"x_min":26,"x_max":290,"o":"m 190 56 l 189 52 q 208 31 189 40 q 244 21 227 22 l 243 0 l 26 0 l 28 21 q 36 22 29 21 q 48 25 43 24 q 62 28 54 26 q 76 34 70 31 q 94 54 90 41 q 183 405 177 385 q 100 365 161 391 l 80 392 q 192 447 146 420 q 254 484 237 475 l 290 484 l 190 56 z "},"":{"ha":414,"x_min":18,"x_max":396,"o":"m 168 564 q 61 603 104 564 q 18 699 18 642 q 51 803 18 756 q 136 876 85 850 q 245 901 187 901 q 350 863 303 901 q 396 764 396 824 q 328 622 396 680 q 168 564 260 564 m 148 614 q 193 597 165 597 q 243 614 221 597 q 276 656 264 630 q 298 760 298 707 q 279 841 298 813 q 223 868 259 868 q 153 821 188 868 q 117 708 117 774 q 148 614 117 642 z "},"":{"ha":406,"x_min":14,"x_max":483,"o":"m 66 -5 l 14 46 q 214 228 189 216 l 212 228 q 39 389 142 304 l 84 443 q 182 358 125 414 q 275 262 239 302 l 311 220 q 294 204 311 219 q 66 -5 221 141 m 245 -5 l 193 46 q 385 221 362 210 l 384 221 q 231 389 330 293 l 276 443 q 450 256 349 385 l 483 214 q 466 198 483 212 q 245 -5 399 142 z "},"":{"ha":1130,"x_min":122,"x_max":993,"o":"m 286 533 l 285 530 q 303 508 285 517 q 340 498 322 499 l 338 477 l 122 477 l 124 498 q 132 500 125 498 q 144 502 138 501 q 157 506 149 503 q 172 511 165 509 q 190 531 186 519 q 279 882 273 862 q 195 842 257 869 l 176 869 q 288 925 242 897 q 349 961 333 952 l 385 961 l 286 533 m 865 158 l 841 55 q 866 33 844 41 q 912 23 888 24 l 910 0 l 664 0 l 666 23 q 698 29 675 23 q 743 51 734 39 l 768 158 l 585 158 l 576 188 l 907 486 l 940 486 l 873 192 l 917 192 q 950 217 932 192 q 975 267 968 242 l 993 267 l 955 77 l 937 77 q 931 127 937 98 q 913 158 926 156 l 865 158 m 130 -97 l 861 1017 l 967 979 l 162 -119 l 130 -97 m 819 364 l 637 192 l 777 192 l 819 364 z "},"":{"ha":1166,"x_min":122,"x_max":1027,"o":"m 286 533 l 285 530 q 303 508 285 517 q 340 498 322 499 l 338 477 l 122 477 l 124 498 q 132 500 125 498 q 144 502 138 501 q 157 506 149 503 q 172 511 165 509 q 190 531 186 519 q 279 882 273 862 q 195 842 257 869 l 176 869 q 288 925 242 897 q 349 961 333 952 l 385 961 l 286 533 m 130 -97 l 861 1017 l 967 979 l 162 -119 l 130 -97 m 694 345 l 659 361 q 734 458 684 421 q 834 496 785 496 q 918 484 883 496 q 979 441 952 471 q 1006 378 1006 410 q 1000 324 1006 345 q 986 286 994 302 q 962 249 979 269 q 934 217 945 229 q 899 185 923 205 q 864 157 874 165 q 825 129 853 149 q 788 102 796 108 q 951 96 894 102 q 980 130 969 106 q 998 167 991 153 q 1004 182 1004 181 l 1027 179 l 967 -1 q 911 7 951 1 q 655 5 749 31 l 640 33 l 662 47 q 830 191 773 117 q 888 319 888 266 q 866 400 888 372 q 808 429 844 429 q 742 406 772 429 q 694 345 711 383 z "},"":{"ha":1175,"x_min":63,"x_max":1018,"o":"m 890 158 l 866 55 q 891 33 869 41 q 937 23 913 24 l 935 0 l 689 0 l 691 23 q 723 29 700 23 q 768 51 759 39 l 793 158 l 610 158 l 602 188 l 932 486 l 965 486 l 899 192 l 942 192 q 975 217 957 192 q 1000 267 993 242 l 1018 267 l 980 77 l 962 77 q 956 127 962 98 q 938 158 951 156 l 890 158 m 155 -97 l 886 1017 l 992 979 l 187 -119 l 155 -97 m 844 364 l 663 192 l 802 192 l 844 364 m 353 862 q 292 903 353 903 q 222 878 256 903 q 172 819 189 853 l 138 836 q 223 934 171 897 q 341 971 276 971 q 407 945 378 971 q 435 871 435 918 q 407 792 435 824 q 338 748 380 760 q 400 714 377 741 q 423 639 423 687 q 389 548 423 591 q 208 466 324 466 q 87 510 130 466 q 63 567 63 535 q 82 617 63 600 q 122 635 100 635 q 155 624 144 635 q 166 596 166 612 q 113 555 166 555 q 187 507 133 507 q 278 539 241 507 q 316 617 316 572 q 289 685 316 662 q 219 709 261 709 l 185 707 l 205 755 q 304 785 256 755 q 353 862 353 814 z "},"":{"ha":509,"x_min":64,"x_max":563,"o":"m 442 716 l 482 711 q 399 548 460 617 q 344 489 373 518 q 288 433 315 460 q 239 376 261 406 q 191 230 191 311 q 231 110 191 149 q 321 71 271 71 q 413 93 372 71 q 480 162 453 115 q 508 266 508 210 q 488 378 508 323 l 525 390 q 563 242 563 317 q 486 62 563 134 q 288 -10 410 -10 q 142 43 212 -10 q 86 113 108 68 q 64 209 64 157 q 78 303 64 261 q 116 377 92 345 q 171 437 140 409 q 237 494 201 465 q 308 553 273 524 q 442 716 389 624 m 483 829 q 469 829 483 829 q 438 845 456 829 q 420 894 420 861 q 443 947 420 927 q 492 967 465 967 q 538 950 520 967 q 557 901 557 933 q 534 849 557 869 q 483 829 511 829 z "},"":{"ha":1211,"x_min":-7,"x_max":1198,"o":"m 753 14 l 772 47 q 827 32 800 32 q 925 90 881 32 q 999 243 969 147 l 554 243 l 498 160 q 357 26 437 68 q 180 -16 278 -16 q 38 22 83 -16 q -7 101 -7 59 q 17 168 -7 142 q 79 193 42 193 q 134 170 116 193 q 151 107 151 146 q 115 49 151 68 q 130 36 117 42 q 166 29 143 29 q 212 35 190 29 q 262 60 233 41 q 321 119 290 80 q 489 378 389 204 q 685 668 589 552 q 912 875 780 783 q 816 916 873 901 q 688 932 759 932 q 540 906 617 932 q 410 838 463 881 q 320 735 357 794 q 249 471 249 622 q 284 267 249 367 l 240 245 q 164 506 164 368 q 201 684 164 599 q 303 834 237 768 q 471 939 370 900 q 694 978 573 978 q 821 966 783 978 l 869 951 q 927 923 894 943 q 961 903 960 903 q 1073 942 1026 933 q 1181 951 1120 951 l 1198 920 q 1004 868 1090 920 q 1124 688 1084 798 q 1163 447 1163 578 q 1126 197 1163 315 q 1026 9 1088 79 q 892 -60 964 -60 q 753 14 819 -60 m 961 837 q 774 640 847 752 q 657 437 711 543 q 578 286 604 331 l 1011 286 q 1043 540 1043 414 q 961 837 1043 749 m 985 1039 l 949 1039 q 777 1205 898 1091 l 736 1243 l 852 1243 q 985 1039 857 1235 z "},"":{"ha":1211,"x_min":-7,"x_max":1198,"o":"m 753 14 l 772 47 q 827 32 800 32 q 925 90 881 32 q 999 243 969 147 l 554 243 l 498 160 q 357 26 437 68 q 180 -16 278 -16 q 38 22 83 -16 q -7 101 -7 59 q 17 168 -7 142 q 79 193 42 193 q 134 170 116 193 q 151 107 151 146 q 115 49 151 68 q 130 36 117 42 q 166 29 143 29 q 212 35 190 29 q 262 60 233 41 q 321 119 290 80 q 489 378 389 204 q 685 668 589 552 q 912 875 780 783 q 816 916 873 901 q 688 932 759 932 q 540 906 617 932 q 410 838 463 881 q 320 735 357 794 q 249 471 249 622 q 284 267 249 367 l 240 245 q 164 506 164 368 q 201 684 164 599 q 303 834 237 768 q 471 939 370 900 q 694 978 573 978 q 821 966 783 978 l 869 951 q 927 923 894 943 q 961 903 960 903 q 1073 942 1026 933 q 1181 951 1120 951 l 1198 920 q 1004 868 1090 920 q 1124 688 1084 798 q 1163 447 1163 578 q 1126 197 1163 315 q 1026 9 1088 79 q 892 -60 964 -60 q 753 14 819 -60 m 961 837 q 774 640 847 752 q 657 437 711 543 q 578 286 604 331 l 1011 286 q 1043 540 1043 414 q 961 837 1043 749 m 947 1039 l 911 1039 q 1018 1205 938 1078 l 1042 1243 l 1157 1243 q 1103 1188 1147 1234 q 947 1039 991 1073 z "},"":{"ha":1211,"x_min":-7,"x_max":1198,"o":"m 753 14 l 772 47 q 827 32 800 32 q 925 90 881 32 q 999 243 969 147 l 554 243 l 498 160 q 357 26 437 68 q 180 -16 278 -16 q 38 22 83 -16 q -7 101 -7 59 q 17 168 -7 142 q 79 193 42 193 q 134 170 116 193 q 151 107 151 146 q 115 49 151 68 q 130 36 117 42 q 166 29 143 29 q 212 35 190 29 q 262 60 233 41 q 321 119 290 80 q 489 378 389 204 q 685 668 589 552 q 912 875 780 783 q 816 916 873 901 q 688 932 759 932 q 540 906 617 932 q 410 838 463 881 q 320 735 357 794 q 249 471 249 622 q 284 267 249 367 l 240 245 q 164 506 164 368 q 201 684 164 599 q 303 834 237 768 q 471 939 370 900 q 694 978 573 978 q 821 966 783 978 l 869 951 q 927 923 894 943 q 961 903 960 903 q 1073 942 1026 933 q 1181 951 1120 951 l 1198 920 q 1004 868 1090 920 q 1124 688 1084 798 q 1163 447 1163 578 q 1126 197 1163 315 q 1026 9 1088 79 q 892 -60 964 -60 q 753 14 819 -60 m 961 837 q 774 640 847 752 q 657 437 711 543 q 578 286 604 331 l 1011 286 q 1043 540 1043 414 q 961 837 1043 749 m 970 1242 l 1006 1242 l 1141 1038 l 1026 1038 l 983 1215 l 864 1038 l 749 1038 l 970 1242 z "},"":{"ha":1211,"x_min":-7,"x_max":1198,"o":"m 753 14 l 772 47 q 827 32 800 32 q 925 90 881 32 q 999 243 969 147 l 554 243 l 498 160 q 357 26 437 68 q 180 -16 278 -16 q 38 22 83 -16 q -7 101 -7 59 q 17 168 -7 142 q 79 193 42 193 q 134 170 116 193 q 151 107 151 146 q 115 49 151 68 q 130 36 117 42 q 166 29 143 29 q 212 35 190 29 q 262 60 233 41 q 321 119 290 80 q 489 378 389 204 q 685 668 589 552 q 912 875 780 783 q 816 916 873 901 q 688 932 759 932 q 540 906 617 932 q 410 838 463 881 q 320 735 357 794 q 249 471 249 622 q 284 267 249 367 l 240 245 q 164 506 164 368 q 201 684 164 599 q 303 834 237 768 q 471 939 370 900 q 694 978 573 978 q 821 966 783 978 l 869 951 q 927 923 894 943 q 961 903 960 903 q 1073 942 1026 933 q 1181 951 1120 951 l 1198 920 q 1004 868 1090 920 q 1124 688 1084 798 q 1163 447 1163 578 q 1126 197 1163 315 q 1026 9 1088 79 q 892 -60 964 -60 q 753 14 819 -60 m 961 837 q 774 640 847 752 q 657 437 711 543 q 578 286 604 331 l 1011 286 q 1043 540 1043 414 q 961 837 1043 749 m 1045 1053 q 1028 1053 1045 1053 q 950 1077 1012 1053 q 856 1100 888 1100 q 797 1076 824 1100 l 790 1084 q 836 1145 803 1119 q 905 1171 869 1171 q 1006 1146 941 1171 q 1097 1122 1072 1122 q 1140 1134 1122 1122 q 1163 1147 1158 1147 l 1170 1141 q 1121 1081 1164 1109 q 1045 1053 1078 1053 z "},"":{"ha":1211,"x_min":-7,"x_max":1198,"o":"m 753 14 l 772 47 q 827 32 800 32 q 925 90 881 32 q 999 243 969 147 l 554 243 l 498 160 q 357 26 437 68 q 180 -16 278 -16 q 38 22 83 -16 q -7 101 -7 59 q 17 168 -7 142 q 79 193 42 193 q 134 170 116 193 q 151 107 151 146 q 115 49 151 68 q 130 36 117 42 q 166 29 143 29 q 212 35 190 29 q 262 60 233 41 q 321 119 290 80 q 489 378 389 204 q 685 668 589 552 q 912 875 780 783 q 816 916 873 901 q 688 932 759 932 q 540 906 617 932 q 410 838 463 881 q 320 735 357 794 q 249 471 249 622 q 284 267 249 367 l 240 245 q 164 506 164 368 q 201 684 164 599 q 303 834 237 768 q 471 939 370 900 q 694 978 573 978 q 821 966 783 978 l 869 951 q 927 923 894 943 q 961 903 960 903 q 1073 942 1026 933 q 1181 951 1120 951 l 1198 920 q 1004 868 1090 920 q 1124 688 1084 798 q 1163 447 1163 578 q 1126 197 1163 315 q 1026 9 1088 79 q 892 -60 964 -60 q 753 14 819 -60 m 961 837 q 774 640 847 752 q 657 437 711 543 q 578 286 604 331 l 1011 286 q 1043 540 1043 414 q 961 837 1043 749 m 859 1176 q 872 1176 859 1176 q 904 1160 886 1176 q 922 1112 922 1144 q 899 1059 922 1079 q 849 1039 877 1039 q 804 1056 822 1039 q 785 1104 785 1072 q 808 1156 785 1137 q 859 1176 831 1176 m 1104 1176 q 1118 1176 1104 1176 q 1149 1160 1132 1176 q 1167 1112 1167 1144 q 1145 1059 1167 1079 q 1095 1039 1122 1039 q 1049 1056 1067 1039 q 1031 1104 1031 1072 q 1054 1156 1031 1136 q 1104 1176 1077 1176 z "},"":{"ha":1211,"x_min":-7,"x_max":1198,"o":"m 753 14 l 772 47 q 827 32 800 32 q 925 90 881 32 q 999 243 969 147 l 554 243 l 498 160 q 357 26 437 68 q 180 -16 278 -16 q 38 22 83 -16 q -7 101 -7 59 q 17 168 -7 142 q 79 193 42 193 q 134 170 116 193 q 151 107 151 146 q 115 49 151 68 q 130 36 117 42 q 166 29 143 29 q 212 35 190 29 q 262 60 233 41 q 321 119 290 80 q 489 378 389 204 q 685 668 589 552 q 912 875 780 783 q 816 916 873 901 q 688 932 759 932 q 540 906 617 932 q 410 838 463 881 q 320 735 357 794 q 249 471 249 622 q 284 267 249 367 l 240 245 q 164 506 164 368 q 201 684 164 599 q 303 834 237 768 q 471 939 370 900 q 694 978 573 978 q 821 966 783 978 l 869 951 q 927 923 894 943 q 961 903 960 903 q 1073 942 1026 933 q 1181 951 1120 951 l 1198 920 q 1004 868 1090 920 q 1124 688 1084 798 q 1163 447 1163 578 q 1126 197 1163 315 q 1026 9 1088 79 q 892 -60 964 -60 q 753 14 819 -60 m 961 837 q 774 640 847 752 q 657 437 711 543 q 578 286 604 331 l 1011 286 q 1043 540 1043 414 q 961 837 1043 749 m 967 1084 q 982 1084 967 1084 q 1023 1108 998 1084 q 1048 1170 1048 1132 q 1028 1227 1048 1208 q 978 1246 1008 1246 q 922 1222 947 1246 q 897 1161 897 1198 q 917 1104 897 1123 q 967 1084 937 1084 m 980 1287 q 1005 1287 980 1287 q 1063 1258 1030 1287 q 1095 1169 1095 1228 q 1057 1076 1095 1110 q 968 1042 1018 1042 q 883 1072 918 1042 q 848 1159 848 1102 q 888 1252 848 1216 q 980 1287 929 1287 z "},"":{"ha":1830,"x_min":-21,"x_max":1879,"o":"m 1583 629 q 1619 605 1619 629 q 1581 581 1619 581 q 1397 553 1482 581 q 1254 481 1312 526 q 1164 377 1197 436 q 1132 256 1132 319 q 1206 110 1132 168 q 1426 53 1280 53 q 1677 133 1594 53 q 1721 242 1721 175 q 1676 347 1721 309 q 1564 386 1632 386 q 1427 359 1495 386 q 1320 286 1360 332 l 1283 319 q 1400 400 1322 370 q 1541 431 1477 431 q 1644 419 1605 431 q 1714 385 1683 408 q 1787 235 1783 336 q 1750 125 1784 174 q 1662 45 1716 76 q 1396 -17 1548 -17 q 1216 16 1301 -17 q 1078 111 1131 50 q 988 -14 1040 31 q 882 -60 937 -60 q 739 14 806 -60 l 759 47 q 814 32 786 32 q 911 90 867 32 q 985 243 956 147 l 541 243 l 485 160 q 344 26 423 68 q 167 -16 264 -16 q 24 22 69 -16 q -21 101 -21 59 q 4 168 -21 142 q 65 193 28 193 q 120 170 102 193 q 138 107 138 146 q 101 49 138 68 q 116 36 103 42 q 153 29 130 29 q 198 35 176 29 q 248 60 220 41 q 308 119 277 80 q 475 378 375 204 q 671 668 576 552 q 899 875 766 783 q 802 918 859 901 q 696 935 745 935 q 491 898 584 935 q 338 799 398 861 q 212 493 212 669 q 269 264 212 373 l 237 244 q 158 507 158 368 q 250 778 158 658 q 499 952 348 905 q 643 978 581 978 q 735 976 705 978 q 791 967 765 973 q 833 958 817 962 q 871 944 850 954 q 899 930 892 934 q 947 903 923 919 q 1059 942 1013 933 q 1168 951 1106 951 l 1185 920 q 990 868 1077 920 q 1140 467 1133 722 q 1256 563 1177 526 q 1422 612 1334 599 q 1314 681 1347 638 q 1280 770 1280 724 q 1372 915 1280 852 q 1601 978 1463 978 q 1813 910 1728 978 q 1879 778 1876 860 q 1856 721 1879 740 q 1803 701 1834 701 q 1749 719 1771 701 q 1727 759 1727 736 q 1735 795 1727 782 q 1753 815 1744 808 q 1777 825 1763 821 q 1807 829 1795 829 q 1730 901 1785 874 q 1601 928 1674 928 q 1468 886 1528 928 q 1408 772 1408 844 q 1461 651 1408 695 q 1531 627 1491 627 l 1583 629 m 947 837 q 761 640 833 752 q 644 437 698 543 q 565 286 590 331 l 998 286 q 1029 540 1029 414 q 947 837 1029 749 z "},"":{"ha":823,"x_min":21,"x_max":890,"o":"m 701 204 l 734 174 q 363 -26 580 -26 q 123 65 221 -26 q 48 178 76 109 q 21 334 21 246 q 54 518 21 422 q 146 694 87 613 q 281 840 205 776 q 449 941 357 904 q 642 978 541 978 q 817 913 743 978 q 890 733 890 849 q 859 589 890 665 q 778 452 827 513 q 660 351 728 391 q 525 311 592 311 q 418 354 458 311 q 379 455 379 397 q 461 647 379 554 q 673 783 544 739 l 689 747 q 566 675 624 726 q 476 566 509 624 q 444 465 444 508 q 543 376 444 376 q 682 437 612 376 q 793 581 751 498 q 835 740 835 663 q 783 864 835 816 q 646 913 732 913 q 471 861 561 913 q 311 729 380 810 q 197 544 241 648 q 153 338 153 439 q 262 98 153 174 q 407 53 326 53 q 566 93 488 53 q 701 204 645 132 m 245 -220 l 333 -229 q 399 -189 399 -229 q 308 -150 399 -150 l 292 -150 l 342 0 l 387 0 l 363 -74 q 445 -101 414 -74 q 477 -171 477 -127 q 442 -236 477 -215 q 347 -258 407 -258 q 243 -230 288 -258 q 237 -223 237 -227 q 245 -220 237 -220 z "},"":{"ha":928,"x_min":75,"x_max":977,"o":"m 682 629 q 718 605 718 629 q 680 581 718 581 q 496 550 583 581 q 353 472 410 519 q 263 368 296 425 q 231 256 231 311 q 304 110 231 168 q 525 53 378 53 q 776 133 692 53 q 819 242 819 175 q 775 347 819 309 q 662 386 731 386 q 526 359 593 386 q 419 286 458 332 l 382 319 q 498 400 421 370 q 640 431 576 431 q 742 419 703 431 q 813 385 781 408 q 886 235 882 336 q 849 125 883 174 q 760 45 815 76 q 494 -17 647 -17 q 206 59 331 -17 q 111 154 146 96 q 75 285 75 213 q 521 612 75 540 q 412 681 446 638 q 379 770 379 724 q 470 915 379 852 q 700 978 562 978 q 911 910 827 978 q 977 778 975 860 q 955 721 977 740 q 901 701 932 701 q 848 719 870 701 q 826 759 826 736 q 834 795 826 782 q 852 815 842 808 q 875 825 862 821 q 905 829 894 829 q 828 901 884 874 q 700 928 773 928 q 567 886 627 928 q 507 772 507 844 q 560 651 507 695 q 630 627 589 627 l 682 629 m 784 1039 l 748 1039 q 576 1205 697 1091 l 536 1243 l 651 1243 q 784 1039 656 1235 z "},"":{"ha":928,"x_min":75,"x_max":977,"o":"m 682 629 q 718 605 718 629 q 680 581 718 581 q 496 550 583 581 q 353 472 410 519 q 263 368 296 425 q 231 256 231 311 q 304 110 231 168 q 525 53 378 53 q 776 133 692 53 q 819 242 819 175 q 775 347 819 309 q 662 386 731 386 q 526 359 593 386 q 419 286 458 332 l 382 319 q 498 400 421 370 q 640 431 576 431 q 742 419 703 431 q 813 385 781 408 q 886 235 882 336 q 849 125 883 174 q 760 45 815 76 q 494 -17 647 -17 q 206 59 331 -17 q 111 154 146 96 q 75 285 75 213 q 521 612 75 540 q 412 681 446 638 q 379 770 379 724 q 470 915 379 852 q 700 978 562 978 q 911 910 827 978 q 977 778 975 860 q 955 721 977 740 q 901 701 932 701 q 848 719 870 701 q 826 759 826 736 q 834 795 826 782 q 852 815 842 808 q 875 825 862 821 q 905 829 894 829 q 828 901 884 874 q 700 928 773 928 q 567 886 627 928 q 507 772 507 844 q 560 651 507 695 q 630 627 589 627 l 682 629 m 747 1039 l 710 1039 q 817 1205 737 1078 l 841 1243 l 956 1243 q 903 1188 947 1234 q 747 1039 791 1073 z "},"":{"ha":928,"x_min":75,"x_max":977,"o":"m 682 629 q 718 605 718 629 q 680 581 718 581 q 496 550 583 581 q 353 472 410 519 q 263 368 296 425 q 231 256 231 311 q 304 110 231 168 q 525 53 378 53 q 776 133 692 53 q 819 242 819 175 q 775 347 819 309 q 662 386 731 386 q 526 359 593 386 q 419 286 458 332 l 382 319 q 498 400 421 370 q 640 431 576 431 q 742 419 703 431 q 813 385 781 408 q 886 235 882 336 q 849 125 883 174 q 760 45 815 76 q 494 -17 647 -17 q 206 59 331 -17 q 111 154 146 96 q 75 285 75 213 q 521 612 75 540 q 412 681 446 638 q 379 770 379 724 q 470 915 379 852 q 700 978 562 978 q 911 910 827 978 q 977 778 975 860 q 955 721 977 740 q 901 701 932 701 q 848 719 870 701 q 826 759 826 736 q 834 795 826 782 q 852 815 842 808 q 875 825 862 821 q 905 829 894 829 q 828 901 884 874 q 700 928 773 928 q 567 886 627 928 q 507 772 507 844 q 560 651 507 695 q 630 627 589 627 l 682 629 m 769 1242 l 805 1242 l 941 1038 l 825 1038 l 782 1215 l 663 1038 l 548 1038 l 769 1242 z "},"":{"ha":928,"x_min":75,"x_max":977,"o":"m 682 629 q 718 605 718 629 q 680 581 718 581 q 496 550 583 581 q 353 472 410 519 q 263 368 296 425 q 231 256 231 311 q 304 110 231 168 q 525 53 378 53 q 776 133 692 53 q 819 242 819 175 q 775 347 819 309 q 662 386 731 386 q 526 359 593 386 q 419 286 458 332 l 382 319 q 498 400 421 370 q 640 431 576 431 q 742 419 703 431 q 813 385 781 408 q 886 235 882 336 q 849 125 883 174 q 760 45 815 76 q 494 -17 647 -17 q 206 59 331 -17 q 111 154 146 96 q 75 285 75 213 q 521 612 75 540 q 412 681 446 638 q 379 770 379 724 q 470 915 379 852 q 700 978 562 978 q 911 910 827 978 q 977 778 975 860 q 955 721 977 740 q 901 701 932 701 q 848 719 870 701 q 826 759 826 736 q 834 795 826 782 q 852 815 842 808 q 875 825 862 821 q 905 829 894 829 q 828 901 884 874 q 700 928 773 928 q 567 886 627 928 q 507 772 507 844 q 560 651 507 695 q 630 627 589 627 l 682 629 m 658 1176 q 672 1176 658 1176 q 703 1160 686 1176 q 721 1112 721 1144 q 699 1059 721 1079 q 649 1039 676 1039 q 603 1056 621 1039 q 585 1104 585 1072 q 607 1156 585 1137 q 658 1176 630 1176 m 904 1176 q 917 1176 904 1176 q 949 1160 931 1176 q 966 1112 966 1144 q 944 1059 966 1079 q 894 1039 922 1039 q 848 1056 867 1039 q 830 1104 830 1072 q 853 1156 830 1136 q 904 1176 876 1176 z "},"":{"ha":897,"x_min":-24,"x_max":1029,"o":"m 1029 933 q 828 488 832 729 l 957 488 l 957 436 l 825 436 q 577 46 806 168 q 288 -24 445 -24 q 53 33 130 -24 q -24 171 -24 89 q 45 310 -24 252 q 239 368 115 368 q 285 367 268 368 q 239 576 239 467 q 299 778 239 684 q 465 925 359 872 q 703 978 571 978 q 866 956 758 978 q 1029 933 975 933 m 709 488 q 873 847 729 677 q 654 890 770 890 q 388 801 488 890 q 288 568 288 711 q 342 361 288 469 l 503 315 l 489 273 q 367 307 418 297 q 425 214 382 278 l 379 199 l 309 315 q 253 319 279 319 q 104 279 155 319 q 53 178 53 239 q 111 70 53 117 q 263 22 170 22 q 428 44 356 22 q 557 113 499 65 q 704 437 674 210 l 558 437 l 558 488 l 709 488 m 849 1021 l 813 1021 q 642 1187 762 1074 l 601 1225 l 716 1225 q 849 1021 722 1217 z "},"":{"ha":897,"x_min":-24,"x_max":1029,"o":"m 1029 933 q 828 488 832 729 l 957 488 l 957 436 l 825 436 q 577 46 806 168 q 288 -24 445 -24 q 53 33 130 -24 q -24 171 -24 89 q 45 310 -24 252 q 239 368 115 368 q 285 367 268 368 q 239 576 239 467 q 299 778 239 684 q 465 925 359 872 q 703 978 571 978 q 866 956 758 978 q 1029 933 975 933 m 709 488 q 873 847 729 677 q 654 890 770 890 q 388 801 488 890 q 288 568 288 711 q 342 361 288 469 l 503 315 l 489 273 q 367 307 418 297 q 425 214 382 278 l 379 199 l 309 315 q 253 319 279 319 q 104 279 155 319 q 53 178 53 239 q 111 70 53 117 q 263 22 170 22 q 428 44 356 22 q 557 113 499 65 q 704 437 674 210 l 558 437 l 558 488 l 709 488 m 812 1021 l 775 1021 q 882 1187 803 1060 l 906 1225 l 1021 1225 q 968 1171 1012 1216 q 812 1021 856 1055 z "},"":{"ha":897,"x_min":-24,"x_max":1029,"o":"m 1029 933 q 828 488 832 729 l 957 488 l 957 436 l 825 436 q 577 46 806 168 q 288 -24 445 -24 q 53 33 130 -24 q -24 171 -24 89 q 45 310 -24 252 q 239 368 115 368 q 285 367 268 368 q 239 576 239 467 q 299 778 239 684 q 465 925 359 872 q 703 978 571 978 q 866 956 758 978 q 1029 933 975 933 m 709 488 q 873 847 729 677 q 654 890 770 890 q 388 801 488 890 q 288 568 288 711 q 342 361 288 469 l 503 315 l 489 273 q 367 307 418 297 q 425 214 382 278 l 379 199 l 309 315 q 253 319 279 319 q 104 279 155 319 q 53 178 53 239 q 111 70 53 117 q 263 22 170 22 q 428 44 356 22 q 557 113 499 65 q 704 437 674 210 l 558 437 l 558 488 l 709 488 m 834 1225 l 870 1225 l 1006 1021 l 890 1021 l 847 1198 l 728 1021 l 613 1021 l 834 1225 z "},"":{"ha":897,"x_min":-24,"x_max":1031,"o":"m 1029 933 q 828 488 832 729 l 957 488 l 957 436 l 825 436 q 577 46 806 168 q 288 -24 445 -24 q 53 33 130 -24 q -24 171 -24 89 q 45 310 -24 252 q 239 368 115 368 q 285 367 268 368 q 239 576 239 467 q 299 778 239 684 q 465 925 359 872 q 703 978 571 978 q 866 956 758 978 q 1029 933 975 933 m 709 488 q 873 847 729 677 q 654 890 770 890 q 388 801 488 890 q 288 568 288 711 q 342 361 288 469 l 503 315 l 489 273 q 367 307 418 297 q 425 214 382 278 l 379 199 l 309 315 q 253 319 279 319 q 104 279 155 319 q 53 178 53 239 q 111 70 53 117 q 263 22 170 22 q 428 44 356 22 q 557 113 499 65 q 704 437 674 210 l 558 437 l 558 488 l 709 488 m 723 1158 q 737 1158 723 1158 q 768 1142 751 1158 q 786 1094 786 1126 q 764 1041 786 1061 q 714 1021 741 1021 q 668 1038 686 1021 q 650 1087 650 1055 q 672 1139 650 1119 q 723 1158 695 1158 m 969 1158 q 982 1158 969 1158 q 1014 1142 996 1158 q 1031 1094 1031 1126 q 1009 1041 1031 1061 q 959 1021 987 1021 q 913 1038 932 1021 q 895 1086 895 1055 q 918 1138 895 1118 q 969 1158 941 1158 z "},"":{"ha":1061,"x_min":29,"x_max":1025,"o":"m 443 473 l 446 549 q 510 560 479 560 q 599 556 542 560 q 670 720 627 646 q 789 861 713 794 q 583 929 724 929 q 397 883 486 929 q 245 761 309 836 q 145 587 182 686 q 107 396 107 489 q 133 228 107 303 l 64 212 q 29 409 29 304 q 69 618 29 514 q 178 802 109 723 q 345 930 246 882 q 541 978 443 978 q 707 961 640 978 q 833 896 775 944 q 1011 947 897 947 l 1025 905 q 879 855 916 884 q 987 683 950 789 q 1023 478 1023 577 q 1012 313 1023 380 q 974 188 1000 247 q 909 88 948 130 q 693 -2 825 -2 q 408 64 561 -2 q 306 15 372 37 q 182 -7 240 -7 q 66 83 66 -7 q 125 172 66 136 q 273 208 184 208 q 448 165 361 208 q 507 264 481 208 q 543 355 532 319 q 565 433 554 391 q 578 482 576 475 q 496 485 525 485 q 443 473 468 485 m 944 476 q 944 526 944 476 q 914 666 944 575 q 836 806 884 757 q 795 716 809 765 q 769 617 781 667 q 751 545 756 566 q 794 544 765 544 q 853 549 824 544 l 850 494 q 804 473 825 475 q 762 472 783 472 q 729 473 741 472 q 644 296 697 378 q 498 142 590 214 q 721 75 629 75 q 863 138 814 75 q 929 290 913 202 q 944 476 944 377 m 363 96 q 190 134 270 134 q 109 85 109 134 q 184 43 109 43 q 276 57 226 43 q 363 96 326 72 z "},"":{"ha":1095,"x_min":45,"x_max":1084,"o":"m 1032 192 l 1067 163 q 979 32 1034 80 q 871 -16 925 -16 q 817 14 840 -16 q 793 95 793 43 q 822 251 793 147 q 884 453 850 354 q 975 828 975 718 q 934 908 975 908 q 842 858 893 908 q 743 728 791 808 q 645 551 694 648 q 554 357 595 454 q 479 180 512 260 q 426 50 446 100 q 404 0 406 0 l 278 0 l 349 199 q 476 744 476 559 q 336 929 477 929 q 240 900 284 929 q 167 825 195 870 q 118 724 138 780 q 81 522 81 620 q 165 197 81 337 l 139 175 q 69 340 93 249 q 45 504 45 431 q 55 636 45 576 q 89 759 65 697 q 147 869 113 821 q 236 947 182 917 q 345 978 290 978 q 435 963 399 978 q 493 923 470 948 q 532 863 516 897 q 560 720 560 798 q 544 542 560 643 q 496 317 524 419 q 534 410 518 377 q 571 489 550 443 q 610 572 593 535 q 654 662 627 609 q 707 755 682 715 q 763 840 731 796 q 826 912 795 884 q 959 978 897 978 q 1053 937 1021 978 q 1084 832 1084 896 q 1065 684 1084 768 q 1021 519 1047 600 q 968 361 994 438 q 905 121 905 179 q 924 64 905 64 q 982 114 944 64 q 1032 192 1021 165 m 841 1037 q 824 1037 841 1037 q 746 1060 808 1037 q 652 1084 684 1084 q 593 1060 620 1084 l 586 1067 q 632 1128 599 1103 q 701 1154 665 1154 q 802 1130 736 1154 q 893 1105 867 1105 q 936 1118 918 1105 q 959 1131 954 1131 l 966 1124 q 917 1065 960 1093 q 841 1037 873 1037 z "},"":{"ha":978,"x_min":14,"x_max":1012,"o":"m 414 359 q 375 359 414 359 q 291 416 337 359 q 245 553 245 473 q 280 711 245 634 q 370 847 314 788 q 501 942 425 905 q 652 978 577 978 q 791 955 728 978 q 904 890 855 932 q 983 784 954 848 q 1012 631 1012 719 q 980 446 1012 543 q 890 267 949 349 q 753 121 831 184 q 576 21 675 57 q 370 -16 476 -16 q 106 72 199 -16 q 14 322 14 160 q 119 652 14 500 q 245 779 173 729 l 266 753 q 172 574 206 682 q 137 378 137 466 q 152 232 137 290 q 198 126 168 173 q 398 25 264 25 q 730 229 589 25 q 844 494 810 344 q 859 629 859 565 q 846 746 859 694 q 806 840 833 799 q 630 928 749 928 q 467 872 541 928 q 353 731 393 817 q 313 561 313 645 q 342 440 313 477 q 416 404 370 404 q 509 434 462 404 q 589 515 556 463 q 625 623 623 566 l 690 633 q 653 499 690 563 q 553 398 616 436 q 414 359 490 359 m 716 1039 l 680 1039 q 509 1205 629 1091 l 468 1243 l 583 1243 q 716 1039 589 1235 z "},"":{"ha":978,"x_min":14,"x_max":1012,"o":"m 414 359 q 375 359 414 359 q 291 416 337 359 q 245 553 245 473 q 280 711 245 634 q 370 847 314 788 q 501 942 425 905 q 652 978 577 978 q 791 955 728 978 q 904 890 855 932 q 983 784 954 848 q 1012 631 1012 719 q 980 446 1012 543 q 890 267 949 349 q 753 121 831 184 q 576 21 675 57 q 370 -16 476 -16 q 106 72 199 -16 q 14 322 14 160 q 119 652 14 500 q 245 779 173 729 l 266 753 q 172 574 206 682 q 137 378 137 466 q 152 232 137 290 q 198 126 168 173 q 398 25 264 25 q 730 229 589 25 q 844 494 810 344 q 859 629 859 565 q 846 746 859 694 q 806 840 833 799 q 630 928 749 928 q 467 872 541 928 q 353 731 393 817 q 313 561 313 645 q 342 440 313 477 q 416 404 370 404 q 509 434 462 404 q 589 515 556 463 q 625 623 623 566 l 690 633 q 653 499 690 563 q 553 398 616 436 q 414 359 490 359 m 679 1039 l 642 1039 q 749 1205 669 1078 l 773 1243 l 888 1243 q 835 1188 879 1234 q 679 1039 723 1073 z "},"":{"ha":978,"x_min":14,"x_max":1012,"o":"m 414 359 q 375 359 414 359 q 291 416 337 359 q 245 553 245 473 q 280 711 245 634 q 370 847 314 788 q 501 942 425 905 q 652 978 577 978 q 791 955 728 978 q 904 890 855 932 q 983 784 954 848 q 1012 631 1012 719 q 980 446 1012 543 q 890 267 949 349 q 753 121 831 184 q 576 21 675 57 q 370 -16 476 -16 q 106 72 199 -16 q 14 322 14 160 q 119 652 14 500 q 245 779 173 729 l 266 753 q 172 574 206 682 q 137 378 137 466 q 152 232 137 290 q 198 126 168 173 q 398 25 264 25 q 730 229 589 25 q 844 494 810 344 q 859 629 859 565 q 846 746 859 694 q 806 840 833 799 q 630 928 749 928 q 467 872 541 928 q 353 731 393 817 q 313 561 313 645 q 342 440 313 477 q 416 404 370 404 q 509 434 462 404 q 589 515 556 463 q 625 623 623 566 l 690 633 q 653 499 690 563 q 553 398 616 436 q 414 359 490 359 m 701 1242 l 737 1242 l 873 1038 l 758 1038 l 714 1215 l 595 1038 l 480 1038 l 701 1242 z "},"":{"ha":978,"x_min":14,"x_max":1012,"o":"m 414 359 q 375 359 414 359 q 291 416 337 359 q 245 553 245 473 q 280 711 245 634 q 370 847 314 788 q 501 942 425 905 q 652 978 577 978 q 791 955 728 978 q 904 890 855 932 q 983 784 954 848 q 1012 631 1012 719 q 980 446 1012 543 q 890 267 949 349 q 753 121 831 184 q 576 21 675 57 q 370 -16 476 -16 q 106 72 199 -16 q 14 322 14 160 q 119 652 14 500 q 245 779 173 729 l 266 753 q 172 574 206 682 q 137 378 137 466 q 152 232 137 290 q 198 126 168 173 q 398 25 264 25 q 730 229 589 25 q 844 494 810 344 q 859 629 859 565 q 846 746 859 694 q 806 840 833 799 q 630 928 749 928 q 467 872 541 928 q 353 731 393 817 q 313 561 313 645 q 342 440 313 477 q 416 404 370 404 q 509 434 462 404 q 589 515 556 463 q 625 623 623 566 l 690 633 q 653 499 690 563 q 553 398 616 436 q 414 359 490 359 m 776 1053 q 760 1053 776 1053 q 682 1077 743 1053 q 588 1100 620 1100 q 528 1076 555 1100 l 522 1084 q 567 1145 534 1119 q 636 1171 600 1171 q 738 1146 672 1171 q 828 1122 803 1122 q 872 1134 854 1122 q 895 1147 890 1147 l 901 1141 q 852 1081 896 1109 q 776 1053 809 1053 z "},"":{"ha":978,"x_min":14,"x_max":1012,"o":"m 414 359 q 375 359 414 359 q 291 416 337 359 q 245 553 245 473 q 280 711 245 634 q 370 847 314 788 q 501 942 425 905 q 652 978 577 978 q 791 955 728 978 q 904 890 855 932 q 983 784 954 848 q 1012 631 1012 719 q 980 446 1012 543 q 890 267 949 349 q 753 121 831 184 q 576 21 675 57 q 370 -16 476 -16 q 106 72 199 -16 q 14 322 14 160 q 119 652 14 500 q 245 779 173 729 l 266 753 q 172 574 206 682 q 137 378 137 466 q 152 232 137 290 q 198 126 168 173 q 398 25 264 25 q 730 229 589 25 q 844 494 810 344 q 859 629 859 565 q 846 746 859 694 q 806 840 833 799 q 630 928 749 928 q 467 872 541 928 q 353 731 393 817 q 313 561 313 645 q 342 440 313 477 q 416 404 370 404 q 509 434 462 404 q 589 515 556 463 q 625 623 623 566 l 690 633 q 653 499 690 563 q 553 398 616 436 q 414 359 490 359 m 590 1176 q 604 1176 590 1176 q 635 1160 618 1176 q 653 1112 653 1144 q 631 1059 653 1079 q 581 1039 608 1039 q 535 1056 553 1039 q 517 1104 517 1072 q 539 1156 517 1137 q 590 1176 562 1176 m 836 1176 q 850 1176 836 1176 q 881 1160 863 1176 q 899 1112 899 1144 q 876 1059 899 1079 q 826 1039 854 1039 q 781 1056 799 1039 q 762 1104 762 1072 q 785 1156 762 1136 q 836 1176 808 1176 z "},"":{"ha":484,"x_min":110,"x_max":424,"o":"m 369 109 l 267 212 l 165 109 l 110 160 l 214 266 l 110 372 l 165 422 l 267 319 l 369 422 l 424 372 l 319 266 l 424 160 l 369 109 z "},"":{"ha":978,"x_min":14,"x_max":1012,"o":"m 103 -192 l 936 1202 l 967 1178 l 135 -214 l 103 -192 m 414 359 q 375 359 414 359 q 291 416 337 359 q 245 553 245 473 q 280 711 245 634 q 370 847 314 788 q 501 942 425 905 q 652 978 577 978 q 791 955 728 978 q 904 890 855 932 q 983 784 954 848 q 1012 631 1012 719 q 980 446 1012 543 q 890 267 949 349 q 753 121 831 184 q 576 21 675 57 q 370 -16 476 -16 q 106 72 199 -16 q 14 322 14 160 q 119 652 14 500 q 245 779 173 729 l 266 753 q 172 574 206 682 q 137 378 137 466 q 152 232 137 290 q 198 126 168 173 q 398 25 264 25 q 730 229 589 25 q 844 494 810 344 q 859 629 859 565 q 846 746 859 694 q 806 840 833 799 q 630 928 749 928 q 467 872 541 928 q 353 731 393 817 q 313 561 313 645 q 342 440 313 477 q 416 404 370 404 q 509 434 462 404 q 589 515 556 463 q 625 623 623 566 l 690 633 q 653 499 690 563 q 553 398 616 436 q 414 359 490 359 z "},"":{"ha":1136,"x_min":7,"x_max":1125,"o":"m 969 43 q 1083 160 1019 43 l 1119 139 q 1035 23 1083 63 q 937 -17 987 -17 q 851 28 886 -17 q 817 146 817 74 q 829 297 817 218 q 872 508 846 403 q 899 618 898 614 q 905 643 902 629 q 876 570 897 622 q 837 474 855 519 q 789 367 818 429 q 734 254 761 304 q 672 151 707 203 q 601 64 636 99 q 440 -17 522 -17 q 351 24 382 -17 q 319 133 319 65 q 338 290 319 200 q 378 454 356 380 q 436 783 436 652 q 400 897 436 852 q 306 942 365 942 q 202 912 246 942 q 129 835 157 882 q 80 730 100 788 q 43 522 43 622 q 127 197 43 337 l 101 175 q 31 340 55 249 q 7 504 7 431 q 17 636 7 576 q 51 758 27 696 q 109 868 75 820 q 198 946 144 916 q 308 977 252 977 q 401 961 364 977 q 463 921 439 946 q 503 861 487 895 q 533 721 533 798 q 517 565 533 644 q 480 422 500 485 q 428 134 428 257 q 469 53 428 53 q 561 103 510 53 q 662 233 612 153 q 761 410 711 313 q 853 604 811 507 q 979 911 939 800 l 998 961 l 1125 961 q 924 155 924 398 q 969 43 924 43 m 828 1022 l 792 1022 q 621 1188 741 1074 l 580 1226 l 695 1226 q 828 1022 701 1218 z "},"":{"ha":1136,"x_min":7,"x_max":1125,"o":"m 969 43 q 1083 160 1019 43 l 1119 139 q 1035 23 1083 63 q 937 -17 987 -17 q 851 28 886 -17 q 817 146 817 74 q 829 297 817 218 q 872 508 846 403 q 899 618 898 614 q 905 643 902 629 q 876 570 897 622 q 837 474 855 519 q 789 367 818 429 q 734 254 761 304 q 672 151 707 203 q 601 64 636 99 q 440 -17 522 -17 q 351 24 382 -17 q 319 133 319 65 q 338 290 319 200 q 378 454 356 380 q 436 783 436 652 q 400 897 436 852 q 306 942 365 942 q 202 912 246 942 q 129 835 157 882 q 80 730 100 788 q 43 522 43 622 q 127 197 43 337 l 101 175 q 31 340 55 249 q 7 504 7 431 q 17 636 7 576 q 51 758 27 696 q 109 868 75 820 q 198 946 144 916 q 308 977 252 977 q 401 961 364 977 q 463 921 439 946 q 503 861 487 895 q 533 721 533 798 q 517 565 533 644 q 480 422 500 485 q 428 134 428 257 q 469 53 428 53 q 561 103 510 53 q 662 233 612 153 q 761 410 711 313 q 853 604 811 507 q 979 911 939 800 l 998 961 l 1125 961 q 924 155 924 398 q 969 43 924 43 m 791 1022 l 754 1022 q 861 1188 781 1061 l 885 1226 l 1000 1226 q 947 1171 991 1217 q 791 1022 835 1056 z "},"":{"ha":1136,"x_min":7,"x_max":1125,"o":"m 969 43 q 1083 160 1019 43 l 1119 139 q 1035 23 1083 63 q 937 -17 987 -17 q 851 28 886 -17 q 817 146 817 74 q 829 297 817 218 q 872 508 846 403 q 899 618 898 614 q 905 643 902 629 q 876 570 897 622 q 837 474 855 519 q 789 367 818 429 q 734 254 761 304 q 672 151 707 203 q 601 64 636 99 q 440 -17 522 -17 q 351 24 382 -17 q 319 133 319 65 q 338 290 319 200 q 378 454 356 380 q 436 783 436 652 q 400 897 436 852 q 306 942 365 942 q 202 912 246 942 q 129 835 157 882 q 80 730 100 788 q 43 522 43 622 q 127 197 43 337 l 101 175 q 31 340 55 249 q 7 504 7 431 q 17 636 7 576 q 51 758 27 696 q 109 868 75 820 q 198 946 144 916 q 308 977 252 977 q 401 961 364 977 q 463 921 439 946 q 503 861 487 895 q 533 721 533 798 q 517 565 533 644 q 480 422 500 485 q 428 134 428 257 q 469 53 428 53 q 561 103 510 53 q 662 233 612 153 q 761 410 711 313 q 853 604 811 507 q 979 911 939 800 l 998 961 l 1125 961 q 924 155 924 398 q 969 43 924 43 m 813 1225 l 849 1225 l 985 1021 l 869 1021 l 826 1198 l 707 1021 l 592 1021 l 813 1225 z "},"":{"ha":1136,"x_min":7,"x_max":1125,"o":"m 969 43 q 1083 160 1019 43 l 1119 139 q 1035 23 1083 63 q 937 -17 987 -17 q 851 28 886 -17 q 817 146 817 74 q 829 297 817 218 q 872 508 846 403 q 899 618 898 614 q 905 643 902 629 q 876 570 897 622 q 837 474 855 519 q 789 367 818 429 q 734 254 761 304 q 672 151 707 203 q 601 64 636 99 q 440 -17 522 -17 q 351 24 382 -17 q 319 133 319 65 q 338 290 319 200 q 378 454 356 380 q 436 783 436 652 q 400 897 436 852 q 306 942 365 942 q 202 912 246 942 q 129 835 157 882 q 80 730 100 788 q 43 522 43 622 q 127 197 43 337 l 101 175 q 31 340 55 249 q 7 504 7 431 q 17 636 7 576 q 51 758 27 696 q 109 868 75 820 q 198 946 144 916 q 308 977 252 977 q 401 961 364 977 q 463 921 439 946 q 503 861 487 895 q 533 721 533 798 q 517 565 533 644 q 480 422 500 485 q 428 134 428 257 q 469 53 428 53 q 561 103 510 53 q 662 233 612 153 q 761 410 711 313 q 853 604 811 507 q 979 911 939 800 l 998 961 l 1125 961 q 924 155 924 398 q 969 43 924 43 m 702 1159 q 716 1159 702 1159 q 747 1143 730 1159 q 765 1095 765 1127 q 743 1042 765 1062 q 693 1022 720 1022 q 647 1039 665 1022 q 629 1087 629 1055 q 651 1139 629 1120 q 702 1159 674 1159 m 948 1159 q 961 1159 948 1159 q 993 1143 975 1159 q 1010 1095 1010 1127 q 988 1042 1010 1062 q 938 1022 966 1022 q 892 1039 911 1022 q 874 1087 874 1055 q 897 1139 874 1119 q 948 1159 920 1159 z "},"":{"ha":1050,"x_min":-7,"x_max":1133,"o":"m 424 143 q 651 76 559 76 q 840 268 802 76 q 854 342 845 296 q 868 418 863 389 q 883 491 873 448 q 900 564 892 534 q 919 631 907 593 q 944 696 931 669 q 973 753 956 723 q 1009 807 990 784 q 1105 887 1051 857 l 1133 866 q 1029 718 1067 817 q 981 537 991 618 q 963 345 970 456 q 952 197 956 235 q 941 93 949 160 q 924 -12 933 25 q 897 -103 914 -48 q 858 -189 880 -158 q 803 -256 836 -219 q 729 -311 770 -292 q 513 -356 631 -356 q 316 -249 316 -356 q 342 -192 316 -214 q 400 -171 368 -171 q 452 -190 431 -171 q 473 -243 473 -209 q 458 -312 473 -277 q 525 -317 488 -317 q 600 -304 562 -317 q 665 -271 637 -292 q 715 -216 692 -250 q 753 -146 738 -182 q 783 -62 769 -111 q 821 134 802 12 q 739 27 789 58 q 621 -3 688 -3 q 332 64 494 -3 q 237 15 303 37 q 112 -7 172 -7 q -7 83 -7 -7 q 48 170 -7 133 q 195 208 104 208 q 372 165 286 208 q 504 308 439 220 q 613 503 568 397 q 659 694 659 609 q 597 892 659 827 q 440 958 535 958 q 317 931 380 958 q 204 861 255 905 q 121 752 153 817 q 88 612 88 686 q 124 468 88 538 l 90 453 q 50 625 50 537 q 85 789 50 713 q 178 913 121 864 q 450 1016 301 1016 q 660 937 573 1016 q 752 684 752 852 q 654 396 752 551 q 424 143 556 242 m 288 96 q 129 136 184 136 q 35 87 35 136 q 106 43 35 43 q 207 60 152 43 q 288 96 262 77 m 803 1022 l 766 1022 q 873 1188 794 1061 l 897 1226 l 1013 1226 q 959 1171 1003 1217 q 803 1022 847 1056 z "},"":{"ha":1031,"x_min":-18,"x_max":1080,"o":"m 19 81 q -18 184 -18 130 q 0 279 -18 239 q 48 345 18 319 q 119 390 79 372 q 288 425 193 424 q 365 602 299 528 q 734 746 492 746 q 787 744 760 746 q 924 932 849 860 l 975 908 q 872 730 926 855 q 1029 649 978 702 q 1080 541 1080 597 q 1054 438 1080 486 q 983 354 1027 391 q 876 294 939 317 q 747 271 814 271 q 728 271 734 271 q 548 58 673 132 q 243 -16 423 -16 q 19 81 93 -16 m 123 315 q 55 260 82 296 q 28 184 28 225 q 51 112 28 142 q 107 64 73 81 q 254 26 178 26 q 387 43 329 26 q 481 86 445 59 q 547 155 518 113 q 591 241 575 196 q 625 342 608 286 q 655 452 642 399 q 745 682 690 585 q 680 688 724 688 q 513 651 592 688 q 386 552 434 614 q 338 422 338 490 q 528 345 433 408 l 498 300 q 340 354 404 354 q 351 293 340 339 q 376 208 361 247 l 336 196 q 308 274 319 222 q 292 354 296 326 q 123 315 208 354 m 840 654 q 740 318 787 537 q 907 386 836 326 q 979 515 979 446 q 945 595 979 558 q 840 654 911 631 z "},"":{"ha":640,"x_min":-37,"x_max":610,"o":"m 154 10 l 163 58 q 295 20 217 20 q 412 61 372 20 q 452 170 452 103 q 423 313 452 237 q 354 445 394 389 q 277 522 313 502 l 279 528 q 306 546 283 531 q 350 575 328 560 q 400 615 372 589 q 449 669 428 642 q 498 817 498 736 q 481 882 498 859 q 438 905 465 905 q 283 717 353 905 q 122 39 224 557 q 83 -157 96 -90 l -37 -157 q 213 751 53 464 q 456 947 322 947 q 564 912 518 947 q 610 815 610 878 q 549 675 610 741 q 397 553 491 612 q 372 537 372 538 q 526 396 472 483 q 581 220 581 310 q 511 49 581 120 q 298 -24 438 -24 q 154 10 214 -24 z "},"":{"ha":577,"x_min":-1,"x_max":541,"o":"m 375 395 l 481 395 l 427 192 q 414 114 414 149 q 427 79 414 79 q 460 101 439 79 q 496 144 481 122 l 512 165 l 541 138 q 484 59 519 95 q 368 -11 417 -11 q 309 79 309 -11 q 311 102 309 94 q 272 41 300 67 q 150 -11 218 -11 q 40 36 81 -11 q -1 152 -1 82 q 70 335 -1 260 q 235 410 140 410 q 314 384 283 410 q 355 315 345 357 l 375 395 m 262 351 q 188 318 222 351 q 136 239 154 286 q 117 149 117 193 q 137 77 117 104 q 196 50 156 50 q 269 87 237 50 q 331 254 331 157 q 262 351 331 351 m 284 456 l 248 456 q 77 622 197 508 l 36 660 l 151 660 q 284 456 157 652 z "},"":{"ha":577,"x_min":-1,"x_max":541,"o":"m 375 395 l 481 395 l 427 192 q 414 114 414 149 q 427 79 414 79 q 460 101 439 79 q 496 144 481 122 l 512 165 l 541 138 q 484 59 519 95 q 368 -11 417 -11 q 309 79 309 -11 q 311 102 309 94 q 272 41 300 67 q 150 -11 218 -11 q 40 36 81 -11 q -1 152 -1 82 q 70 335 -1 260 q 235 410 140 410 q 314 384 283 410 q 355 315 345 357 l 375 395 m 262 351 q 188 318 222 351 q 136 239 154 286 q 117 149 117 193 q 137 77 117 104 q 196 50 156 50 q 269 87 237 50 q 331 254 331 157 q 262 351 331 351 m 247 456 l 210 456 q 317 622 238 494 l 341 660 l 456 660 q 403 605 447 650 q 247 456 291 490 z "},"":{"ha":577,"x_min":-1,"x_max":541,"o":"m 375 395 l 481 395 l 427 192 q 414 114 414 149 q 427 79 414 79 q 460 101 439 79 q 496 144 481 122 l 512 165 l 541 138 q 484 59 519 95 q 368 -11 417 -11 q 309 79 309 -11 q 311 102 309 94 q 272 41 300 67 q 150 -11 218 -11 q 40 36 81 -11 q -1 152 -1 82 q 70 335 -1 260 q 235 410 140 410 q 314 384 283 410 q 355 315 345 357 l 375 395 m 262 351 q 188 318 222 351 q 136 239 154 286 q 117 149 117 193 q 137 77 117 104 q 196 50 156 50 q 269 87 237 50 q 331 254 331 157 q 262 351 331 351 m 269 659 l 305 659 l 441 455 l 326 455 l 282 632 l 163 455 l 48 455 l 269 659 z "},"":{"ha":577,"x_min":-1,"x_max":541,"o":"m 375 395 l 481 395 l 427 192 q 414 114 414 149 q 427 79 414 79 q 460 101 439 79 q 496 144 481 122 l 512 165 l 541 138 q 484 59 519 95 q 368 -11 417 -11 q 309 79 309 -11 q 311 102 309 94 q 272 41 300 67 q 150 -11 218 -11 q 40 36 81 -11 q -1 152 -1 82 q 70 335 -1 260 q 235 410 140 410 q 314 384 283 410 q 355 315 345 357 l 375 395 m 262 351 q 188 318 222 351 q 136 239 154 286 q 117 149 117 193 q 137 77 117 104 q 196 50 156 50 q 269 87 237 50 q 331 254 331 157 q 262 351 331 351 m 344 470 q 328 470 344 470 q 250 493 311 470 q 156 517 188 517 q 96 493 123 517 l 90 500 q 135 562 102 536 q 204 587 168 587 q 306 563 240 587 q 396 538 371 538 q 440 551 422 538 q 463 564 458 564 l 469 557 q 420 498 464 526 q 344 470 377 470 z "},"":{"ha":577,"x_min":-1,"x_max":541,"o":"m 375 395 l 481 395 l 427 192 q 414 114 414 149 q 427 79 414 79 q 460 101 439 79 q 496 144 481 122 l 512 165 l 541 138 q 484 59 519 95 q 368 -11 417 -11 q 309 79 309 -11 q 311 102 309 94 q 272 41 300 67 q 150 -11 218 -11 q 40 36 81 -11 q -1 152 -1 82 q 70 335 -1 260 q 235 410 140 410 q 314 384 283 410 q 355 315 345 357 l 375 395 m 262 351 q 188 318 222 351 q 136 239 154 286 q 117 149 117 193 q 137 77 117 104 q 196 50 156 50 q 269 87 237 50 q 331 254 331 157 q 262 351 331 351 m 158 593 q 172 593 158 593 q 203 577 186 593 q 221 528 221 561 q 199 476 221 496 q 149 456 176 456 q 103 472 121 456 q 85 521 85 489 q 107 573 85 553 q 158 593 130 593 m 404 593 q 418 593 404 593 q 449 577 431 593 q 467 528 467 561 q 444 476 467 496 q 394 456 422 456 q 349 472 367 456 q 330 521 330 489 q 353 573 330 553 q 404 593 376 593 z "},"":{"ha":577,"x_min":-1,"x_max":541,"o":"m 375 395 l 481 395 l 427 192 q 414 114 414 149 q 427 79 414 79 q 460 101 439 79 q 496 144 481 122 l 512 165 l 541 138 q 484 59 519 95 q 368 -11 417 -11 q 309 79 309 -11 q 311 102 309 94 q 272 41 300 67 q 150 -11 218 -11 q 40 36 81 -11 q -1 152 -1 82 q 70 335 -1 260 q 235 410 140 410 q 314 384 283 410 q 355 315 345 357 l 375 395 m 262 351 q 188 318 222 351 q 136 239 154 286 q 117 149 117 193 q 137 77 117 104 q 196 50 156 50 q 269 87 237 50 q 331 254 331 157 q 262 351 331 351 m 310 501 q 325 501 310 501 q 365 525 340 501 q 390 587 390 549 q 370 644 390 625 q 320 663 351 663 q 264 639 290 663 q 239 577 239 615 q 259 520 239 540 q 310 501 279 501 m 322 704 q 347 704 322 704 q 405 674 372 704 q 437 586 437 645 q 399 493 437 527 q 310 458 360 458 q 225 489 260 458 q 190 576 190 519 q 231 668 190 633 q 322 704 271 704 z "},"":{"ha":839,"x_min":0,"x_max":791,"o":"m 485 134 q 590 56 489 56 q 668 77 627 56 q 733 127 708 98 l 762 109 q 643 5 718 31 q 530 -16 582 -16 q 403 60 450 -16 l 385 -2 l 311 -2 l 331 66 q 155 -16 261 -16 q 44 36 89 -16 q 0 159 0 87 q 37 290 0 232 q 131 378 73 347 q 242 410 189 410 q 332 386 295 410 q 387 329 370 363 l 410 401 l 488 401 l 460 321 q 537 381 478 351 q 653 410 597 410 q 749 381 709 410 q 790 304 789 351 q 762 221 791 256 q 688 168 733 186 q 514 132 600 132 l 485 134 m 267 351 q 164 295 205 351 q 123 175 123 239 q 207 50 123 50 q 269 72 240 50 q 315 125 298 94 q 350 250 350 194 q 267 351 350 351 m 481 171 q 602 195 556 174 q 666 244 648 216 q 684 301 684 271 q 668 346 684 332 q 635 361 652 361 q 555 331 591 361 q 500 257 519 300 q 481 171 481 214 z "},"":{"ha":455,"x_min":-2,"x_max":422,"o":"m 353 140 l 380 121 q 289 25 351 60 q 159 -11 227 -11 q 44 31 91 -11 q -2 148 -2 72 q 44 284 -2 223 q 159 377 91 345 q 296 410 227 410 q 410 369 380 410 q 422 328 422 353 q 405 286 422 303 q 364 269 388 269 q 324 284 340 269 q 308 323 308 300 q 337 367 308 347 q 290 375 311 375 q 203 340 243 375 q 144 257 164 306 q 123 160 123 208 q 146 84 123 113 q 212 55 169 55 q 294 79 254 55 q 353 140 333 103 m 43 -220 l 131 -229 q 197 -189 197 -229 q 106 -150 197 -150 l 90 -150 l 140 0 l 184 0 l 161 -74 q 243 -101 212 -74 q 275 -171 275 -127 q 240 -236 275 -215 q 145 -258 205 -258 q 41 -230 85 -258 q 35 -223 35 -227 q 43 -220 35 -220 z "},"":{"ha":479,"x_min":-1,"x_max":431,"o":"m 125 134 q 230 56 129 56 q 308 77 267 56 q 373 127 348 98 l 402 109 q 222 -7 346 14 q 170 -11 195 -11 q 48 38 97 -11 q -1 156 -1 86 q 42 285 -1 226 q 149 377 85 345 q 275 410 213 410 q 384 381 338 410 q 430 304 429 353 q 402 221 431 256 q 328 168 373 186 q 154 132 239 132 l 125 134 m 121 171 q 242 195 196 174 q 306 244 288 216 q 323 301 323 271 q 308 346 323 332 q 275 361 292 361 q 195 331 231 361 q 140 257 159 300 q 121 171 121 214 m 316 456 l 280 456 q 109 622 229 508 l 68 660 l 183 660 q 316 456 189 652 z "},"":{"ha":479,"x_min":-1,"x_max":488,"o":"m 125 134 q 230 56 129 56 q 308 77 267 56 q 373 127 348 98 l 402 109 q 222 -7 346 14 q 170 -11 195 -11 q 48 38 97 -11 q -1 156 -1 86 q 42 285 -1 226 q 149 377 85 345 q 275 410 213 410 q 384 381 338 410 q 430 304 429 353 q 402 221 431 256 q 328 168 373 186 q 154 132 239 132 l 125 134 m 121 171 q 242 195 196 174 q 306 244 288 216 q 323 301 323 271 q 308 346 323 332 q 275 361 292 361 q 195 331 231 361 q 140 257 159 300 q 121 171 121 214 m 279 456 l 242 456 q 349 622 269 494 l 373 660 l 488 660 q 435 605 479 650 q 279 456 323 490 z "},"":{"ha":479,"x_min":-1,"x_max":473,"o":"m 125 134 q 230 56 129 56 q 308 77 267 56 q 373 127 348 98 l 402 109 q 222 -7 346 14 q 170 -11 195 -11 q 48 38 97 -11 q -1 156 -1 86 q 42 285 -1 226 q 149 377 85 345 q 275 410 213 410 q 384 381 338 410 q 430 304 429 353 q 402 221 431 256 q 328 168 373 186 q 154 132 239 132 l 125 134 m 121 171 q 242 195 196 174 q 306 244 288 216 q 323 301 323 271 q 308 346 323 332 q 275 361 292 361 q 195 331 231 361 q 140 257 159 300 q 121 171 121 214 m 301 659 l 337 659 l 473 455 l 357 455 l 314 632 l 195 455 l 80 455 l 301 659 z "},"":{"ha":479,"x_min":-1,"x_max":498,"o":"m 125 134 q 230 56 129 56 q 308 77 267 56 q 373 127 348 98 l 402 109 q 222 -7 346 14 q 170 -11 195 -11 q 48 38 97 -11 q -1 156 -1 86 q 42 285 -1 226 q 149 377 85 345 q 275 410 213 410 q 384 381 338 410 q 430 304 429 353 q 402 221 431 256 q 328 168 373 186 q 154 132 239 132 l 125 134 m 121 171 q 242 195 196 174 q 306 244 288 216 q 323 301 323 271 q 308 346 323 332 q 275 361 292 361 q 195 331 231 361 q 140 257 159 300 q 121 171 121 214 m 190 593 q 204 593 190 593 q 235 577 218 593 q 253 528 253 561 q 231 476 253 496 q 181 456 208 456 q 135 472 153 456 q 117 521 117 489 q 139 573 117 553 q 190 593 162 593 m 436 593 q 449 593 436 593 q 481 577 463 593 q 498 528 498 561 q 476 476 498 496 q 426 456 454 456 q 380 472 399 456 q 362 521 362 489 q 385 573 362 553 q 436 593 408 593 z "},"":{"ha":290,"x_min":-58,"x_max":288,"o":"m 121 -11 q 107 -11 121 -11 q 76 7 92 -11 q 60 55 60 24 q 76 139 60 86 q 107 236 92 193 q 123 294 123 279 q 114 309 123 309 q 37 215 90 309 l -8 241 q 175 410 92 410 q 232 338 232 410 q 218 271 232 317 l 170 131 q 162 95 162 111 q 174 79 162 79 q 259 165 197 79 l 288 138 q 200 30 251 71 q 121 -11 150 -11 m 190 456 l 154 456 q -18 622 103 508 l -58 660 l 57 660 q 190 456 62 652 z "},"":{"ha":290,"x_min":-8,"x_max":362,"o":"m 121 -11 q 107 -11 121 -11 q 76 7 92 -11 q 60 55 60 24 q 76 139 60 86 q 107 236 92 193 q 123 294 123 279 q 114 309 123 309 q 37 215 90 309 l -8 241 q 175 410 92 410 q 232 338 232 410 q 218 271 232 317 l 170 131 q 162 95 162 111 q 174 79 162 79 q 259 165 197 79 l 288 138 q 200 30 251 71 q 121 -11 150 -11 m 153 456 l 116 456 q 223 622 144 494 l 247 660 l 362 660 q 309 605 353 650 q 153 456 197 490 z "},"":{"ha":290,"x_min":-46,"x_max":347,"o":"m 121 -11 q 107 -11 121 -11 q 76 7 92 -11 q 60 55 60 24 q 76 139 60 86 q 107 236 92 193 q 123 294 123 279 q 114 309 123 309 q 37 215 90 309 l -8 241 q 175 410 92 410 q 232 338 232 410 q 218 271 232 317 l 170 131 q 162 95 162 111 q 174 79 162 79 q 259 165 197 79 l 288 138 q 200 30 251 71 q 121 -11 150 -11 m 175 659 l 211 659 l 347 455 l 231 455 l 188 632 l 69 455 l -46 455 l 175 659 z "},"":{"ha":290,"x_min":-9,"x_max":372,"o":"m 121 -11 q 107 -11 121 -11 q 76 7 92 -11 q 60 55 60 24 q 76 139 60 86 q 107 236 92 193 q 123 294 123 279 q 114 309 123 309 q 37 215 90 309 l -8 241 q 175 410 92 410 q 232 338 232 410 q 218 271 232 317 l 170 131 q 162 95 162 111 q 174 79 162 79 q 259 165 197 79 l 288 138 q 200 30 251 71 q 121 -11 150 -11 m 64 593 q 78 593 64 593 q 109 577 92 593 q 127 528 127 561 q 104 476 127 496 q 55 456 82 456 q 9 472 27 456 q -9 521 -9 489 q 13 573 -9 553 q 64 593 36 593 m 310 593 q 323 593 310 593 q 355 577 337 593 q 372 528 372 561 q 350 476 372 496 q 300 456 328 456 q 254 472 273 456 q 236 521 236 489 q 259 573 236 553 q 310 593 282 593 z "},"":{"ha":496,"x_min":1,"x_max":428,"o":"m 127 408 l 94 459 q 168 519 123 486 q 71 556 128 539 q 1 578 13 574 l 9 642 q 233 566 129 628 q 339 640 302 615 l 370 594 q 286 529 332 563 q 428 221 428 412 q 405 120 428 166 q 343 45 381 74 q 167 -16 264 -16 q 59 30 103 -16 q 14 137 14 76 q 45 248 14 198 q 129 330 76 298 q 239 363 182 363 q 306 335 271 363 q 222 484 291 429 q 127 408 154 437 m 232 328 q 214 328 232 328 q 168 277 197 328 q 138 161 138 226 q 197 26 138 26 q 254 47 230 26 q 292 100 279 68 q 317 222 317 165 q 292 303 317 279 q 232 328 267 328 z "},"":{"ha":613,"x_min":-22,"x_max":577,"o":"m 184 191 q 439 410 326 410 q 496 387 477 410 q 515 328 515 363 q 483 206 515 293 q 452 99 452 119 q 462 78 452 78 q 502 106 475 78 q 549 165 528 134 l 577 138 q 488 27 536 64 q 409 -11 439 -11 q 362 9 379 -11 q 345 64 345 29 q 373 177 345 98 q 400 288 400 255 q 378 321 400 321 q 317 288 352 321 q 248 208 281 255 q 140 33 195 132 l 122 0 l 26 0 l 47 64 q 106 273 106 240 q 96 306 106 306 q 49 259 76 306 q 39 242 43 248 q 30 226 35 235 q 23 215 24 217 l -22 241 q 75 369 31 328 q 165 410 119 410 q 201 392 186 410 q 216 349 216 374 q 212 300 216 324 q 204 260 208 276 q 192 219 199 244 q 184 191 185 194 m 408 470 q 391 470 408 470 q 313 493 375 470 q 219 517 252 517 q 160 493 187 517 l 153 500 q 199 562 166 536 q 268 587 232 587 q 369 563 304 587 q 460 538 435 538 q 504 551 486 538 q 526 564 522 564 l 533 557 q 484 498 528 526 q 408 470 441 470 z "},"":{"ha":526,"x_min":-1,"x_max":471,"o":"m -1 161 q 24 259 -1 212 q 88 339 49 307 q 265 410 175 410 q 413 361 355 410 q 471 241 471 313 q 431 111 471 169 q 326 21 391 54 q 184 -11 261 -11 q 53 38 107 -11 q -1 161 -1 86 m 221 31 q 280 52 252 31 q 321 104 307 72 q 349 233 349 167 q 325 334 349 300 q 256 368 300 368 q 167 310 211 368 q 123 161 123 252 q 221 31 123 31 m 309 456 l 273 456 q 102 622 222 508 l 61 660 l 176 660 q 309 456 182 652 z "},"":{"ha":526,"x_min":-1,"x_max":481,"o":"m -1 161 q 24 259 -1 212 q 88 339 49 307 q 265 410 175 410 q 413 361 355 410 q 471 241 471 313 q 431 111 471 169 q 326 21 391 54 q 184 -11 261 -11 q 53 38 107 -11 q -1 161 -1 86 m 221 31 q 280 52 252 31 q 321 104 307 72 q 349 233 349 167 q 325 334 349 300 q 256 368 300 368 q 167 310 211 368 q 123 161 123 252 q 221 31 123 31 m 272 456 l 235 456 q 342 622 262 494 l 366 660 l 481 660 q 428 605 472 650 q 272 456 316 490 z "},"":{"ha":526,"x_min":-1,"x_max":471,"o":"m -1 161 q 24 259 -1 212 q 88 339 49 307 q 265 410 175 410 q 413 361 355 410 q 471 241 471 313 q 431 111 471 169 q 326 21 391 54 q 184 -11 261 -11 q 53 38 107 -11 q -1 161 -1 86 m 221 31 q 280 52 252 31 q 321 104 307 72 q 349 233 349 167 q 325 334 349 300 q 256 368 300 368 q 167 310 211 368 q 123 161 123 252 q 221 31 123 31 m 294 659 l 330 659 l 466 455 l 351 455 l 307 632 l 189 455 l 73 455 l 294 659 z "},"":{"ha":526,"x_min":-1,"x_max":494,"o":"m -1 161 q 24 259 -1 212 q 88 339 49 307 q 265 410 175 410 q 413 361 355 410 q 471 241 471 313 q 431 111 471 169 q 326 21 391 54 q 184 -11 261 -11 q 53 38 107 -11 q -1 161 -1 86 m 221 31 q 280 52 252 31 q 321 104 307 72 q 349 233 349 167 q 325 334 349 300 q 256 368 300 368 q 167 310 211 368 q 123 161 123 252 q 221 31 123 31 m 369 470 q 353 470 369 470 q 275 493 336 470 q 181 517 213 517 q 121 493 149 517 l 115 500 q 160 562 127 536 q 229 587 193 587 q 331 563 265 587 q 421 538 396 538 q 465 551 447 538 q 488 564 483 564 l 494 557 q 446 498 489 526 q 369 470 402 470 z "},"":{"ha":526,"x_min":-1,"x_max":492,"o":"m -1 161 q 24 259 -1 212 q 88 339 49 307 q 265 410 175 410 q 413 361 355 410 q 471 241 471 313 q 431 111 471 169 q 326 21 391 54 q 184 -11 261 -11 q 53 38 107 -11 q -1 161 -1 86 m 221 31 q 280 52 252 31 q 321 104 307 72 q 349 233 349 167 q 325 334 349 300 q 256 368 300 368 q 167 310 211 368 q 123 161 123 252 q 221 31 123 31 m 183 593 q 197 593 183 593 q 229 577 211 593 q 246 528 246 561 q 224 476 246 496 q 174 456 201 456 q 128 472 146 456 q 110 521 110 489 q 133 573 110 553 q 183 593 155 593 m 429 593 q 443 593 429 593 q 474 577 456 593 q 492 528 492 561 q 469 476 492 496 q 419 456 447 456 q 374 472 392 456 q 355 521 355 489 q 378 573 355 553 q 429 593 401 593 z "},"":{"ha":410,"x_min":18,"x_max":418,"o":"m 185 186 q 199 186 185 186 q 231 171 213 186 q 248 122 248 155 q 226 69 248 89 q 176 49 204 49 q 130 66 149 49 q 112 115 112 83 q 135 166 112 146 q 185 186 158 186 m 263 518 q 277 518 263 518 q 309 502 291 518 q 326 453 326 486 q 304 400 326 420 q 255 380 282 380 q 209 397 227 380 q 191 446 191 414 q 213 498 191 478 q 263 518 236 518 m 418 302 l 411 274 q 347 266 391 272 q 215 252 256 252 q 143 256 174 252 q 75 266 113 259 q 18 274 37 272 q 26 302 18 283 q 90 311 48 304 q 221 325 185 325 q 290 321 257 325 q 360 311 322 317 q 418 302 397 304 z "},"":{"ha":526,"x_min":-1,"x_max":471,"o":"m 54 -178 l 27 -161 l 414 583 l 439 567 l 54 -178 m -1 161 q 24 259 -1 212 q 88 339 49 307 q 265 410 175 410 q 413 361 355 410 q 471 241 471 313 q 431 111 471 169 q 326 21 391 54 q 184 -11 261 -11 q 53 38 107 -11 q -1 161 -1 86 m 221 31 q 280 52 252 31 q 321 104 307 72 q 349 233 349 167 q 325 334 349 300 q 256 368 300 368 q 167 310 211 368 q 123 161 123 252 q 221 31 123 31 z "},"":{"ha":608,"x_min":-17,"x_max":572,"o":"m 536 395 q 445 101 445 153 q 456 79 445 79 q 543 166 486 79 l 572 138 q 487 32 536 74 q 407 -11 437 -11 q 344 53 344 -11 q 367 174 344 102 q 390 245 390 245 q 374 217 387 239 q 355 184 361 195 q 335 152 349 174 q 312 117 321 130 q 287 85 302 104 q 260 54 272 65 q 232 28 248 42 q 201 7 216 14 q 134 -11 167 -11 q 54 78 54 -11 q 83 204 54 119 q 112 306 112 290 q 102 321 112 321 q 27 235 75 321 l -17 261 q 162 410 76 410 q 208 394 191 410 q 223 345 224 378 q 190 228 222 312 q 158 98 158 143 q 180 74 158 74 q 242 107 206 74 q 311 187 277 140 q 420 362 363 262 l 439 395 l 536 395 m 357 456 l 321 456 q 149 622 270 508 l 109 660 l 224 660 q 357 456 229 652 z "},"":{"ha":608,"x_min":-17,"x_max":572,"o":"m 536 395 q 445 101 445 153 q 456 79 445 79 q 543 166 486 79 l 572 138 q 487 32 536 74 q 407 -11 437 -11 q 344 53 344 -11 q 367 174 344 102 q 390 245 390 245 q 374 217 387 239 q 355 184 361 195 q 335 152 349 174 q 312 117 321 130 q 287 85 302 104 q 260 54 272 65 q 232 28 248 42 q 201 7 216 14 q 134 -11 167 -11 q 54 78 54 -11 q 83 204 54 119 q 112 306 112 290 q 102 321 112 321 q 27 235 75 321 l -17 261 q 162 410 76 410 q 208 394 191 410 q 223 345 224 378 q 190 228 222 312 q 158 98 158 143 q 180 74 158 74 q 242 107 206 74 q 311 187 277 140 q 420 362 363 262 l 439 395 l 536 395 m 319 456 l 283 456 q 390 622 310 494 l 414 660 l 529 660 q 475 605 519 650 q 319 456 363 490 z "},"":{"ha":608,"x_min":-17,"x_max":572,"o":"m 536 395 q 445 101 445 153 q 456 79 445 79 q 543 166 486 79 l 572 138 q 487 32 536 74 q 407 -11 437 -11 q 344 53 344 -11 q 367 174 344 102 q 390 245 390 245 q 374 217 387 239 q 355 184 361 195 q 335 152 349 174 q 312 117 321 130 q 287 85 302 104 q 260 54 272 65 q 232 28 248 42 q 201 7 216 14 q 134 -11 167 -11 q 54 78 54 -11 q 83 204 54 119 q 112 306 112 290 q 102 321 112 321 q 27 235 75 321 l -17 261 q 162 410 76 410 q 208 394 191 410 q 223 345 224 378 q 190 228 222 312 q 158 98 158 143 q 180 74 158 74 q 242 107 206 74 q 311 187 277 140 q 420 362 363 262 l 439 395 l 536 395 m 342 659 l 378 659 l 513 455 l 398 455 l 355 632 l 236 455 l 121 455 l 342 659 z "},"":{"ha":608,"x_min":-17,"x_max":572,"o":"m 536 395 q 445 101 445 153 q 456 79 445 79 q 543 166 486 79 l 572 138 q 487 32 536 74 q 407 -11 437 -11 q 344 53 344 -11 q 367 174 344 102 q 390 245 390 245 q 374 217 387 239 q 355 184 361 195 q 335 152 349 174 q 312 117 321 130 q 287 85 302 104 q 260 54 272 65 q 232 28 248 42 q 201 7 216 14 q 134 -11 167 -11 q 54 78 54 -11 q 83 204 54 119 q 112 306 112 290 q 102 321 112 321 q 27 235 75 321 l -17 261 q 162 410 76 410 q 208 394 191 410 q 223 345 224 378 q 190 228 222 312 q 158 98 158 143 q 180 74 158 74 q 242 107 206 74 q 311 187 277 140 q 420 362 363 262 l 439 395 l 536 395 m 231 593 q 244 593 231 593 q 276 577 258 593 q 294 528 294 561 q 271 476 294 496 q 221 456 249 456 q 176 472 194 456 q 157 521 157 489 q 180 573 157 553 q 231 593 203 593 m 476 593 q 490 593 476 593 q 522 577 504 593 q 539 528 539 561 q 517 476 539 496 q 467 456 494 456 q 421 472 439 456 q 403 521 403 489 q 426 573 403 553 q 476 593 449 593 z "},"":{"ha":542,"x_min":-54,"x_max":525,"o":"m 32 235 l -12 261 q 72 365 22 320 q 163 410 123 410 q 228 351 228 410 q 194 233 228 327 q 161 113 161 138 q 164 81 161 88 q 179 74 168 74 q 306 120 241 74 q 391 223 372 167 l 439 361 q 462 395 446 382 q 492 407 477 407 q 516 397 507 407 q 525 372 525 388 q 519 340 525 357 l 467 189 q 335 -73 425 56 q 474 -100 413 -81 l 469 -138 q 303 -116 375 -119 q 169 -251 237 -201 q 48 -302 100 -302 q -28 -281 -3 -302 q -54 -224 -54 -260 q -26 -159 -54 -189 q 46 -111 1 -130 q 258 -68 138 -73 q 303 8 267 -57 q 342 91 339 74 q 130 -11 222 -11 q 76 15 93 -11 q 59 77 59 40 q 87 205 59 115 q 115 308 115 296 q 110 321 115 321 q 97 318 104 321 q 84 308 90 315 q 72 296 77 302 q 60 280 66 290 q 50 264 54 270 q 32 235 36 242 m 228 -116 q 116 -136 173 -119 q 6 -209 6 -167 q 37 -234 6 -234 q 139 -189 68 -234 q 228 -116 210 -144 m 292 456 l 255 456 q 362 622 283 494 l 386 660 l 501 660 q 448 605 492 650 q 292 456 336 490 z "},"":{"ha":553,"x_min":-182,"x_max":498,"o":"m 468 130 q 452 100 468 130 q 381 29 437 69 q 252 -11 325 -11 q 136 45 180 -11 q 82 -134 104 -81 q -111 -301 12 -300 q -161 -281 -141 -301 q -182 -234 -182 -260 q -168 -192 -182 -207 q -132 -176 -155 -176 q -95 -187 -110 -176 q -80 -219 -80 -197 q -104 -267 -80 -241 l -100 -272 q -23 -149 -58 -272 q -3 -72 -9 -100 q 4 -39 3 -44 l 75 241 q -9 157 42 220 l -36 188 q 90 317 7 249 l 124 437 q 296 901 215 743 l 404 901 q 220 381 328 751 q 343 410 273 410 q 456 368 413 410 q 498 259 498 327 q 468 130 498 191 m 203 319 l 151 92 q 192 52 163 65 q 258 38 220 38 q 326 70 295 38 q 385 225 385 130 q 338 340 385 311 q 290 353 320 353 q 203 319 260 353 z "},"":{"ha":542,"x_min":-54,"x_max":525,"o":"m 32 235 l -12 261 q 72 365 22 320 q 163 410 123 410 q 228 351 228 410 q 194 233 228 327 q 161 113 161 138 q 164 81 161 88 q 179 74 168 74 q 306 120 241 74 q 391 223 372 167 l 439 361 q 462 395 446 382 q 492 407 477 407 q 516 397 507 407 q 525 372 525 388 q 519 340 525 357 l 467 189 q 335 -73 425 56 q 474 -100 413 -81 l 469 -138 q 303 -116 375 -119 q 169 -251 237 -201 q 48 -302 100 -302 q -28 -281 -3 -302 q -54 -224 -54 -260 q -26 -159 -54 -189 q 46 -111 1 -130 q 258 -68 138 -73 q 303 8 267 -57 q 342 91 339 74 q 130 -11 222 -11 q 76 15 93 -11 q 59 77 59 40 q 87 205 59 115 q 115 308 115 296 q 110 321 115 321 q 97 318 104 321 q 84 308 90 315 q 72 296 77 302 q 60 280 66 290 q 50 264 54 270 q 32 235 36 242 m 228 -116 q 116 -136 173 -119 q 6 -209 6 -167 q 37 -234 6 -234 q 139 -189 68 -234 q 228 -116 210 -144 m 203 593 q 217 593 203 593 q 248 577 231 593 q 266 528 266 561 q 243 476 266 496 q 194 456 221 456 q 148 472 166 456 q 130 521 130 489 q 152 573 130 553 q 203 593 175 593 m 449 593 q 462 593 449 593 q 494 577 476 593 q 511 528 511 561 q 489 476 511 496 q 439 456 467 456 q 393 472 412 456 q 375 521 375 489 q 398 573 375 553 q 449 593 421 593 z "},"":{"ha":823,"x_min":21,"x_max":890,"o":"m 701 204 l 734 174 q 363 -26 580 -26 q 123 65 221 -26 q 48 178 76 109 q 21 334 21 246 q 54 518 21 422 q 146 694 87 613 q 281 840 205 776 q 449 941 357 904 q 642 978 541 978 q 817 913 743 978 q 890 733 890 849 q 859 589 890 665 q 778 452 827 513 q 660 351 728 391 q 525 311 592 311 q 418 354 458 311 q 379 455 379 397 q 461 647 379 554 q 673 783 544 739 l 689 747 q 566 675 624 726 q 476 566 509 624 q 444 465 444 508 q 543 376 444 376 q 682 437 612 376 q 793 581 751 498 q 835 740 835 663 q 783 864 835 816 q 646 913 732 913 q 471 861 561 913 q 311 729 380 810 q 197 544 241 648 q 153 338 153 439 q 262 98 153 174 q 407 53 326 53 q 566 93 488 53 q 701 204 645 132 m 698 1242 l 734 1242 l 869 1038 l 754 1038 l 711 1215 l 592 1038 l 477 1038 l 698 1242 z "},"":{"ha":455,"x_min":-2,"x_max":488,"o":"m 353 140 l 380 121 q 289 25 351 60 q 159 -11 227 -11 q 44 31 91 -11 q -2 148 -2 72 q 44 284 -2 223 q 159 377 91 345 q 296 410 227 410 q 410 369 380 410 q 422 328 422 353 q 405 286 422 303 q 364 269 388 269 q 324 284 340 269 q 308 323 308 300 q 337 367 308 347 q 290 375 311 375 q 203 340 243 375 q 144 257 164 306 q 123 160 123 208 q 146 84 123 113 q 212 55 169 55 q 294 79 254 55 q 353 140 333 103 m 317 659 l 353 659 l 488 455 l 373 455 l 330 632 l 211 455 l 96 455 l 317 659 z "},"":{"ha":529,"x_min":-11,"x_max":507,"o":"m 349 294 q 326 321 349 321 q 269 288 302 321 q 205 208 236 255 q 104 33 155 131 l 87 0 l -11 0 q 144 652 45 415 l 98 652 q 39 647 64 652 l 43 709 q 111 713 78 713 l 172 713 q 336 932 244 863 l 388 908 q 277 712 331 851 q 429 709 379 711 l 426 654 q 254 651 353 651 q 120 149 196 484 q 137 177 124 155 q 156 211 149 199 q 177 244 163 222 q 200 280 191 267 q 225 313 210 293 q 252 344 240 332 q 280 370 264 356 q 311 392 296 384 q 385 410 346 410 q 445 388 425 410 q 465 329 465 366 q 430 202 465 292 q 395 92 395 113 q 408 72 395 72 q 435 87 420 72 q 464 121 450 102 q 479 143 477 140 l 507 119 q 326 -17 428 -17 q 293 0 305 -17 q 283 48 281 17 q 317 164 284 79 q 349 294 349 250 z "},"":{"ha":897,"x_min":-24,"x_max":1034,"o":"m 1029 933 q 828 488 832 729 l 957 488 l 957 436 l 825 436 q 577 46 806 168 q 288 -24 445 -24 q 53 33 130 -24 q -24 171 -24 89 q 45 310 -24 252 q 239 368 115 368 q 285 367 268 368 q 239 576 239 467 q 299 778 239 684 q 465 925 359 872 q 703 978 571 978 q 866 956 758 978 q 1029 933 975 933 m 709 488 q 873 847 729 677 q 654 890 770 890 q 388 801 488 890 q 288 568 288 711 q 342 361 288 469 l 503 315 l 489 273 q 367 307 418 297 q 425 214 382 278 l 379 199 l 309 315 q 253 319 279 319 q 104 279 155 319 q 53 178 53 239 q 111 70 53 117 q 263 22 170 22 q 428 44 356 22 q 557 113 499 65 q 704 437 674 210 l 558 437 l 558 488 l 709 488 m 909 1036 q 893 1036 909 1036 q 814 1059 876 1036 q 721 1082 753 1082 q 661 1059 688 1082 l 654 1066 q 700 1127 667 1101 q 769 1153 733 1153 q 870 1128 805 1153 q 961 1104 936 1104 q 1005 1117 987 1104 q 1027 1130 1023 1129 l 1034 1123 q 985 1063 1029 1091 q 909 1036 942 1036 z "},"":{"ha":290,"x_min":-8,"x_max":375,"o":"m 121 -11 q 107 -11 121 -11 q 76 7 92 -11 q 60 55 60 24 q 76 139 60 86 q 107 236 92 193 q 123 294 123 279 q 114 309 123 309 q 37 215 90 309 l -8 241 q 175 410 92 410 q 232 338 232 410 q 218 271 232 317 l 170 131 q 162 95 162 111 q 174 79 162 79 q 259 165 197 79 l 288 138 q 200 30 251 71 q 121 -11 150 -11 m 250 470 q 233 470 250 470 q 155 493 217 470 q 61 517 94 517 q 2 493 29 517 l -5 500 q 41 562 8 536 q 110 587 74 587 q 211 563 146 587 q 302 538 277 538 q 346 551 328 538 q 368 564 363 564 l 375 557 q 326 498 370 526 q 250 470 283 470 z "},"":{"ha":897,"x_min":-24,"x_max":1029,"o":"m 1029 933 q 828 488 832 729 l 957 488 l 957 436 l 825 436 q 577 46 806 168 q 288 -24 445 -24 q 53 33 130 -24 q -24 171 -24 89 q 45 310 -24 252 q 239 368 115 368 q 285 367 268 368 q 239 576 239 467 q 299 778 239 684 q 465 925 359 872 q 703 978 571 978 q 866 956 758 978 q 1029 933 975 933 m 709 488 q 873 847 729 677 q 654 890 770 890 q 388 801 488 890 q 288 568 288 711 q 342 361 288 469 l 503 315 l 489 273 q 367 307 418 297 q 425 214 382 278 l 379 199 l 309 315 q 253 319 279 319 q 104 279 155 319 q 53 178 53 239 q 111 70 53 117 q 263 22 170 22 q 428 44 356 22 q 557 113 499 65 q 704 437 674 210 l 558 437 l 558 488 l 709 488 m 279 -220 l 286 -237 q 209 -256 254 -256 q 113 -195 113 -256 q 258 0 113 -124 l 302 0 q 222 -107 256 -46 q 187 -200 187 -169 q 229 -228 187 -228 q 279 -220 248 -228 z "},"":{"ha":304,"x_min":-47,"x_max":297,"o":"m 104 -11 q 90 -11 104 -11 q 59 7 75 -11 q 43 55 43 24 q 59 139 43 86 q 91 236 75 193 q 106 294 106 279 q 97 309 106 309 q 20 215 73 309 l -25 241 q 158 410 75 410 q 215 338 215 410 q 201 271 215 317 l 153 131 q 145 95 145 111 q 157 79 145 79 q 242 165 180 79 l 271 138 q 183 30 234 71 q 104 -11 133 -11 m 297 610 q 297 596 297 610 q 279 560 297 583 q 229 538 260 538 q 182 556 198 538 q 167 604 167 575 q 186 654 167 632 q 236 676 205 676 q 282 657 267 676 q 297 610 297 637 m 119 -220 l 125 -237 q 49 -256 94 -256 q -47 -195 -47 -256 q 98 0 -47 -124 l 142 0 q 62 -107 96 -46 q 27 -200 27 -169 q 68 -228 27 -228 q 119 -220 88 -228 z "},"":{"ha":328,"x_min":-8,"x_max":288,"o":"m 121 -11 q 107 -11 121 -11 q 76 7 92 -11 q 60 55 60 24 q 76 139 60 86 q 107 236 92 193 q 123 294 123 279 q 114 309 123 309 q 37 215 90 309 l -8 241 q 175 410 92 410 q 232 338 232 410 q 218 271 232 317 l 170 131 q 162 95 162 111 q 174 79 162 79 q 259 165 197 79 l 288 138 q 200 30 251 71 q 121 -11 150 -11 z "},"":{"ha":897,"x_min":-24,"x_max":1928,"o":"m 1029 933 q 828 488 832 729 l 957 488 l 957 436 l 825 436 q 577 46 806 168 q 288 -24 445 -24 q 53 33 130 -24 q -24 171 -24 89 q 45 310 -24 252 q 239 368 115 368 q 285 367 268 368 q 239 576 239 467 q 299 778 239 684 q 465 925 359 872 q 703 978 571 978 q 866 956 758 978 q 1029 933 975 933 m 709 488 q 873 847 729 677 q 654 890 770 890 q 388 801 488 890 q 288 568 288 711 q 342 361 288 469 l 503 315 l 489 273 q 367 307 418 297 q 425 214 382 278 l 379 199 l 309 315 q 253 319 279 319 q 104 279 155 319 q 53 178 53 239 q 111 70 53 117 q 263 22 170 22 q 428 44 356 22 q 557 113 499 65 q 704 437 674 210 l 558 437 l 558 488 l 709 488 m 1928 933 q 1727 488 1731 729 l 1855 488 l 1855 436 l 1724 436 q 1681 200 1717 307 q 1589 21 1645 94 q 1460 -101 1533 -52 q 1139 -196 1318 -196 q 871 -52 930 -196 q 854 40 854 -11 q 877 145 854 91 q 940 243 900 199 q 1040 314 979 287 q 1171 342 1101 342 q 1211 339 1183 342 q 1137 567 1137 450 q 1197 778 1137 684 q 1363 925 1257 872 q 1601 978 1470 978 q 1765 956 1657 978 q 1928 933 1873 933 m 1607 488 q 1772 847 1628 677 q 1553 890 1668 890 q 1286 801 1386 890 q 1186 568 1186 711 q 1268 334 1186 455 l 1429 288 l 1415 245 q 1293 279 1350 268 q 1352 186 1308 250 l 1305 171 l 1235 288 q 1165 293 1208 293 q 1073 271 1121 293 q 994 212 1025 248 q 928 46 928 134 q 983 -96 928 -41 q 1139 -151 1038 -151 q 1314 -119 1240 -151 q 1449 -18 1389 -87 q 1603 437 1571 122 l 1457 437 l 1457 488 l 1607 488 z "},"":{"ha":591,"x_min":-25,"x_max":622,"o":"m 104 -11 q 90 -11 104 -11 q 59 7 75 -11 q 43 55 43 24 q 59 139 43 86 q 91 236 75 193 q 106 294 106 279 q 97 309 106 309 q 20 215 73 309 l -25 241 q 158 410 75 410 q 215 338 215 410 q 201 271 215 317 l 153 131 q 145 95 145 111 q 157 79 145 79 q 242 165 180 79 l 271 138 q 183 30 234 71 q 104 -11 133 -11 m 297 610 q 297 596 297 610 q 279 560 297 583 q 229 538 260 538 q 182 556 198 538 q 167 604 167 575 q 186 654 167 632 q 236 676 205 676 q 282 657 267 676 q 297 610 297 637 m 254 -88 q 211 -51 254 -51 q 178 -64 191 -51 q 165 -98 165 -77 q 188 -136 165 -119 q 245 -153 210 -153 q 304 -148 281 -153 q 347 -136 328 -143 q 381 -113 365 -128 q 410 -83 398 -97 q 434 -43 422 -68 q 454 3 446 -18 q 473 58 463 23 q 492 119 484 92 q 511 189 499 145 q 535 271 524 232 q 547 345 547 310 q 483 410 547 410 q 300 241 399 410 l 345 215 q 422 309 398 309 q 431 286 431 309 q 400 184 421 250 q 369 82 378 118 q 352 24 359 47 q 334 -28 345 1 q 311 -75 322 -58 q 248 -117 283 -114 q 254 -88 254 -108 m 622 610 q 622 596 622 610 q 604 560 622 583 q 554 538 585 538 q 507 556 523 538 q 492 604 492 575 q 511 654 492 632 q 561 676 530 676 q 607 657 591 676 q 622 610 622 637 z "},"":{"ha":901,"x_min":-43,"x_max":1031,"o":"m 1031 933 q 829 488 833 729 l 958 488 l 958 436 l 827 436 q 784 200 820 307 q 692 21 747 94 q 563 -101 636 -52 q 241 -196 421 -196 q -26 -52 33 -196 q -43 40 -43 -11 q -20 145 -43 91 q 42 243 3 199 q 143 314 82 287 q 274 342 203 342 q 314 339 286 342 q 240 567 240 450 q 300 778 240 684 q 466 925 360 872 q 704 978 572 978 q 868 956 760 978 q 1031 933 976 933 m 710 488 q 875 847 730 677 q 656 890 771 890 q 389 801 489 890 q 289 568 289 711 q 371 334 289 455 l 532 288 l 518 245 q 396 279 452 268 q 454 186 411 250 l 408 171 l 338 288 q 268 293 311 293 q 176 271 224 293 q 96 212 127 248 q 31 46 31 134 q 85 -96 31 -41 q 241 -151 140 -151 q 417 -119 342 -151 q 552 -18 492 -87 q 705 437 674 122 l 559 437 l 559 488 l 710 488 m 745 1226 l 781 1226 l 917 1022 l 802 1022 l 758 1199 l 640 1022 l 524 1022 l 745 1226 z "},"":{"ha":287,"x_min":-138,"x_max":383,"o":"m -50 -88 q -93 -51 -50 -51 q -126 -64 -113 -51 q -138 -98 -138 -77 q -116 -136 -138 -119 q -59 -153 -94 -153 q 1 -148 -23 -153 q 43 -136 24 -143 q 78 -113 61 -128 q 106 -83 94 -97 q 130 -43 118 -68 q 151 3 142 -18 q 170 58 159 23 q 188 119 180 92 q 208 189 195 145 q 231 271 220 232 q 243 345 243 310 q 179 410 243 410 q -4 241 96 410 l 41 215 q 118 309 94 309 q 127 286 127 309 q 96 184 117 250 q 65 82 75 118 q 48 24 56 47 q 30 -28 41 1 q 7 -75 18 -58 q -56 -117 -20 -114 q -50 -88 -50 -108 m 212 659 l 248 659 l 383 455 l 268 455 l 224 632 l 106 455 l -9 455 l 212 659 z "},"":{"ha":583,"x_min":-11,"x_max":620,"o":"m 188 733 q 317 900 236 837 q 488 964 397 964 q 581 937 542 964 q 620 854 620 909 q 598 805 620 823 q 548 787 577 787 q 499 804 519 787 q 479 846 479 821 q 498 899 479 871 q 453 909 475 909 q 403 892 431 909 q 353 845 376 874 q 278 719 312 793 q 170 359 243 644 q 96 0 96 73 l -11 0 q 55 351 -11 116 q 188 733 120 585 m 528 119 q 453 28 498 68 q 362 -11 407 -11 q 294 28 317 -11 q 252 98 271 66 q 222 148 233 130 q 201 182 211 167 q 188 206 192 198 q 179 220 183 214 q 173 235 175 227 l 193 256 q 495 461 385 461 q 560 441 537 461 q 583 395 583 420 q 567 351 583 370 q 522 332 551 332 q 478 345 494 332 q 460 372 463 359 l 458 386 q 274 261 354 330 q 254 243 257 246 q 389 82 273 229 q 414 66 401 66 q 446 83 427 66 q 500 143 464 100 l 528 119 m 117 -304 l 95 -304 q 142 -87 132 -149 l 257 -50 q 203 -175 257 -81 q 117 -304 150 -269 z "},"":{"ha":583,"x_min":-11,"x_max":583,"o":"m 66 391 l 180 395 q 96 0 96 79 l -11 0 q 66 391 -11 128 m 291 25 q 173 201 179 177 l 193 222 q 495 427 385 427 q 560 407 537 427 q 583 361 583 387 q 567 317 583 336 q 522 298 551 298 q 478 311 494 298 q 460 338 463 325 l 458 352 q 274 227 354 296 q 254 209 257 212 q 389 82 285 186 q 415 66 404 66 q 446 83 427 66 q 500 143 464 100 l 528 119 q 453 24 498 66 q 360 -17 407 -17 q 291 25 313 -17 z "},"":{"ha":1079,"x_min":-20,"x_max":1187,"o":"m 1083 782 q 945 928 1083 928 q 842 891 886 928 q 775 797 799 854 q 729 658 751 739 q 688 496 706 576 q 564 168 644 299 q 638 133 588 157 q 719 95 688 109 q 869 56 804 56 q 922 71 897 56 q 961 101 947 85 q 984 132 974 118 q 996 146 994 146 l 1026 129 q 900 -11 966 16 q 823 -23 870 -23 q 721 -6 777 -23 q 595 41 665 10 q 497 83 526 73 q 358 6 443 36 q 165 -23 274 -23 q 65 -3 110 -23 q -20 97 -20 37 q 18 199 -20 157 q 215 277 89 277 q 406 240 305 277 q 501 201 442 226 q 551 387 530 281 q 589 561 571 492 q 625 687 606 629 q 674 800 644 745 q 741 894 704 855 q 951 978 821 978 q 1111 921 1049 978 q 1173 761 1173 864 q 1142 612 1173 684 q 1061 485 1112 540 q 943 392 1010 430 q 805 342 876 354 l 795 379 q 945 462 878 399 q 1047 609 1011 525 q 1083 782 1083 694 m 23 105 q 90 33 23 52 q 363 57 227 -5 q 441 116 414 81 q 195 208 306 208 q 23 105 23 208 m 1125 375 q 1138 375 1125 375 q 1170 359 1152 375 q 1187 310 1187 343 q 1165 257 1187 277 q 1116 237 1143 237 q 1069 254 1088 237 q 1051 303 1051 271 q 1074 355 1051 335 q 1125 375 1097 375 z "},"":{"ha":275,"x_min":7,"x_max":506,"o":"m 252 902 l 362 902 q 273 679 333 852 q 162 332 212 507 q 113 118 113 157 q 122 79 113 79 q 211 165 151 79 l 239 138 q 175 52 210 87 q 76 -11 114 -11 q 7 73 7 -11 q 89 464 7 197 q 252 902 172 731 m 443 482 q 457 482 443 482 q 488 466 471 482 q 506 417 506 450 q 484 365 506 385 q 434 345 462 345 q 388 361 406 345 q 370 410 370 378 q 393 462 370 442 q 443 482 416 482 z "},"":{"ha":1079,"x_min":-20,"x_max":1173,"o":"m 320 408 l 313 446 l 853 585 l 861 546 l 320 408 m 1083 782 q 945 928 1083 928 q 842 891 886 928 q 775 797 799 854 q 729 658 751 739 q 688 496 706 576 q 564 168 644 299 q 638 133 588 157 q 719 95 688 109 q 869 56 804 56 q 922 71 897 56 q 961 101 947 85 q 984 132 974 118 q 996 146 994 146 l 1026 129 q 900 -11 966 16 q 823 -23 870 -23 q 721 -6 777 -23 q 595 41 665 10 q 497 83 526 73 q 358 6 443 36 q 165 -23 274 -23 q 65 -3 110 -23 q -20 97 -20 37 q 18 199 -20 157 q 215 277 89 277 q 406 240 305 277 q 501 201 442 226 q 551 387 530 281 q 589 561 571 492 q 625 687 606 629 q 674 800 644 745 q 741 894 704 855 q 951 978 821 978 q 1111 921 1049 978 q 1173 761 1173 864 q 1142 612 1173 684 q 1061 485 1112 540 q 943 392 1010 430 q 805 342 876 354 l 795 379 q 945 462 878 399 q 1047 609 1011 525 q 1083 782 1083 694 m 23 105 q 90 33 23 52 q 363 57 227 -5 q 441 116 414 81 q 195 208 306 208 q 23 105 23 208 z "},"":{"ha":275,"x_min":-116,"x_max":432,"o":"m -109 408 l -116 446 l 425 585 l 432 546 l -109 408 m 252 902 l 362 902 q 273 679 333 852 q 162 332 212 507 q 113 118 113 157 q 122 79 113 79 q 211 165 151 79 l 239 138 q 175 52 210 87 q 76 -11 114 -11 q 7 73 7 -11 q 89 464 7 197 q 252 902 172 731 z "},"":{"ha":1095,"x_min":45,"x_max":1084,"o":"m 1032 192 l 1067 163 q 979 32 1034 80 q 871 -16 925 -16 q 817 14 840 -16 q 793 95 793 43 q 822 251 793 147 q 884 453 850 354 q 975 828 975 718 q 934 908 975 908 q 842 858 893 908 q 743 728 791 808 q 645 551 694 648 q 554 357 595 454 q 479 180 512 260 q 426 50 446 100 q 404 0 406 0 l 278 0 l 349 199 q 476 744 476 559 q 336 929 477 929 q 240 900 284 929 q 167 825 195 870 q 118 724 138 780 q 81 522 81 620 q 165 197 81 337 l 139 175 q 69 340 93 249 q 45 504 45 431 q 55 636 45 576 q 89 759 65 697 q 147 869 113 821 q 236 947 182 917 q 345 978 290 978 q 435 963 399 978 q 493 923 470 948 q 532 863 516 897 q 560 720 560 798 q 544 542 560 643 q 496 317 524 419 q 534 410 518 377 q 571 489 550 443 q 610 572 593 535 q 654 662 627 609 q 707 755 682 715 q 763 840 731 796 q 826 912 795 884 q 959 978 897 978 q 1053 937 1021 978 q 1084 832 1084 896 q 1065 684 1084 768 q 1021 519 1047 600 q 968 361 994 438 q 905 121 905 179 q 924 64 905 64 q 982 114 944 64 q 1032 192 1021 165 m 743 1023 l 707 1023 q 814 1189 734 1061 l 838 1227 l 953 1227 q 899 1172 943 1217 q 743 1023 787 1057 z "},"":{"ha":613,"x_min":-22,"x_max":577,"o":"m 184 191 q 439 410 326 410 q 496 387 477 410 q 515 328 515 363 q 483 206 515 293 q 452 99 452 119 q 462 78 452 78 q 502 106 475 78 q 549 165 528 134 l 577 138 q 488 27 536 64 q 409 -11 439 -11 q 362 9 379 -11 q 345 64 345 29 q 373 177 345 98 q 400 288 400 255 q 378 321 400 321 q 317 288 352 321 q 248 208 281 255 q 140 33 195 132 l 122 0 l 26 0 l 47 64 q 106 273 106 240 q 96 306 106 306 q 49 259 76 306 q 39 242 43 248 q 30 226 35 235 q 23 215 24 217 l -22 241 q 75 369 31 328 q 165 410 119 410 q 201 392 186 410 q 216 349 216 374 q 212 300 216 324 q 204 260 208 276 q 192 219 199 244 q 184 191 185 194 m 311 456 l 274 456 q 381 622 302 494 l 405 660 l 520 660 q 467 605 511 650 q 311 456 355 490 z "},"":{"ha":1622,"x_min":14,"x_max":1636,"o":"m 1368 629 q 1404 605 1404 629 q 1367 581 1404 581 q 1144 538 1249 581 q 975 421 1040 496 q 910 256 910 345 q 986 110 910 168 q 1211 53 1061 53 q 1462 133 1379 53 q 1506 242 1506 175 q 1461 347 1506 309 q 1349 386 1417 386 q 1212 359 1280 386 q 1105 286 1145 332 l 1068 319 q 1185 400 1107 370 q 1326 431 1262 431 q 1429 419 1390 431 q 1499 385 1468 408 q 1572 235 1568 336 q 1535 125 1569 174 q 1446 45 1501 76 q 1195 -17 1333 -17 q 950 28 1057 -17 q 795 157 844 74 q 600 30 709 76 q 370 -16 490 -16 q 106 72 199 -16 q 14 322 14 160 q 119 652 14 500 q 245 779 173 729 l 266 753 q 172 574 206 682 q 137 378 137 466 q 152 232 137 290 q 198 126 168 173 q 398 25 264 25 q 730 229 589 25 q 844 494 810 344 q 859 629 859 565 q 846 746 859 694 q 806 840 833 799 q 630 928 749 928 q 467 872 541 928 q 353 731 393 817 q 313 561 313 645 q 342 440 313 477 q 416 404 370 404 q 509 434 462 404 q 589 515 556 463 q 625 623 623 566 l 690 633 q 653 499 690 563 q 553 398 616 436 q 414 359 490 359 q 291 416 337 359 q 245 553 245 473 q 280 711 245 634 q 370 847 314 788 q 501 942 425 905 q 656 978 577 978 q 896 882 810 978 q 982 628 982 787 q 972 522 982 579 q 1060 572 1005 551 q 1154 600 1116 593 l 1194 606 q 1070 674 1112 631 q 1029 767 1029 717 q 1124 913 1029 848 q 1359 978 1219 978 q 1571 910 1486 978 q 1636 778 1634 860 q 1614 721 1636 740 q 1560 701 1592 701 q 1507 719 1529 701 q 1485 759 1485 736 q 1493 795 1485 782 q 1511 815 1501 808 q 1534 825 1521 821 q 1565 829 1553 829 q 1488 901 1543 874 q 1376 928 1432 928 q 1279 912 1319 928 q 1213 871 1238 897 q 1158 759 1158 818 q 1198 663 1158 699 q 1316 627 1239 627 l 1368 629 z "},"":{"ha":1003,"x_min":-1,"x_max":775,"o":"m 469 134 q 574 56 473 56 q 651 77 611 56 q 717 127 692 98 l 746 109 q 627 5 702 31 q 514 -16 566 -16 q 384 57 431 -16 q 185 -16 298 -16 q 53 34 106 -16 q -1 161 -1 83 q 23 259 -1 212 q 87 339 48 307 q 277 410 174 410 q 362 387 321 410 q 428 324 402 364 q 623 410 517 410 q 727 381 682 410 q 774 304 773 353 q 746 221 775 256 q 671 168 717 186 q 498 132 583 132 l 469 134 m 123 158 q 145 65 123 104 q 210 26 167 26 q 279 47 252 26 q 321 100 307 68 q 349 232 349 165 q 324 334 349 300 q 255 368 300 368 q 166 310 210 368 q 123 158 123 252 m 465 171 q 586 195 540 174 q 649 244 631 216 q 667 301 667 271 q 652 346 667 332 q 618 361 636 361 q 509 300 553 361 q 465 171 465 239 z "},"":{"ha":1242,"x_min":-1,"x_max":1231,"o":"m 1188 144 l 1231 123 q 1180 38 1211 71 q 1057 -20 1126 -20 q 947 58 994 -20 q 886 189 910 119 q 848 293 861 259 q 788 371 817 371 q 595 75 723 173 q 287 -23 467 -23 q 94 24 178 -23 q 25 87 51 47 q -1 181 -1 127 q 27 283 -1 235 q 100 359 55 330 q 311 421 194 421 q 433 746 315 601 q 715 949 551 894 q 872 978 801 978 q 995 964 943 978 q 1090 923 1046 950 q 1161 849 1135 896 q 1188 742 1188 802 q 1165 627 1188 682 q 1102 528 1143 572 q 909 386 1026 445 q 1009 202 955 348 q 1055 110 1029 151 q 1109 69 1082 69 q 1153 92 1135 69 q 1188 144 1175 121 m 388 212 l 347 203 q 316 317 330 235 l 311 345 q 111 292 199 345 q 63 244 82 273 q 43 177 43 215 q 64 107 43 139 q 121 58 85 76 q 275 22 190 22 q 508 100 420 22 q 645 321 596 177 q 672 402 655 351 q 699 485 688 454 q 726 563 709 516 q 759 640 744 609 q 797 711 774 671 q 846 780 821 750 q 979 896 906 850 q 919 913 962 905 q 828 921 876 921 q 662 878 747 921 q 508 765 576 834 q 396 603 440 696 q 351 418 351 510 q 585 288 500 397 l 563 264 q 541 278 559 266 q 505 300 522 291 q 463 321 488 310 q 351 346 412 346 q 371 258 354 302 q 388 212 387 214 m 791 385 q 992 511 912 422 q 1072 721 1072 600 q 1055 805 1072 762 q 1010 871 1039 847 q 899 749 935 817 q 865 683 878 709 q 838 602 852 656 q 808 469 821 536 q 791 385 794 401 m 918 1023 l 881 1023 q 988 1189 909 1061 l 1012 1227 l 1127 1227 q 1074 1172 1118 1217 q 918 1023 962 1057 z "},"":{"ha":1242,"x_min":-1,"x_max":1231,"o":"m 1188 144 l 1231 123 q 1180 38 1211 71 q 1057 -20 1126 -20 q 947 58 994 -20 q 886 189 910 119 q 848 293 861 259 q 788 371 817 371 q 595 75 723 173 q 287 -23 467 -23 q 94 24 178 -23 q 25 87 51 47 q -1 181 -1 127 q 27 283 -1 235 q 100 359 55 330 q 311 421 194 421 q 433 746 315 601 q 715 949 551 894 q 872 978 801 978 q 995 964 943 978 q 1090 923 1046 950 q 1161 849 1135 896 q 1188 742 1188 802 q 1165 627 1188 682 q 1102 528 1143 572 q 909 386 1026 445 q 1009 202 955 348 q 1055 110 1029 151 q 1109 69 1082 69 q 1153 92 1135 69 q 1188 144 1175 121 m 388 212 l 347 203 q 316 317 330 235 l 311 345 q 111 292 199 345 q 63 244 82 273 q 43 177 43 215 q 64 107 43 139 q 121 58 85 76 q 275 22 190 22 q 508 100 420 22 q 645 321 596 177 q 672 402 655 351 q 699 485 688 454 q 726 563 709 516 q 759 640 744 609 q 797 711 774 671 q 846 780 821 750 q 979 896 906 850 q 919 913 962 905 q 828 921 876 921 q 662 878 747 921 q 508 765 576 834 q 396 603 440 696 q 351 418 351 510 q 585 288 500 397 l 563 264 q 541 278 559 266 q 505 300 522 291 q 463 321 488 310 q 351 346 412 346 q 371 258 354 302 q 388 212 387 214 m 791 385 q 992 511 912 422 q 1072 721 1072 600 q 1055 805 1072 762 q 1010 871 1039 847 q 899 749 935 817 q 865 683 878 709 q 838 602 852 656 q 808 469 821 536 q 791 385 794 401 m 571 -304 l 549 -304 q 596 -87 587 -149 l 711 -50 q 658 -175 711 -81 q 571 -304 604 -269 z "},"":{"ha":518,"x_min":-31,"x_max":508,"o":"m 372 321 q 311 288 347 321 q 243 208 276 255 q 135 33 190 132 l 117 0 l 21 0 q 42 64 21 0 q 101 273 101 240 q 90 306 101 306 q 43 259 71 306 q 33 242 37 248 q 24 226 29 235 q 18 215 19 217 l -28 241 q 69 369 25 328 q 159 410 113 410 q 196 392 180 410 q 211 350 211 374 q 208 308 211 326 q 202 273 205 289 q 193 236 199 258 q 183 203 186 214 q 173 172 179 191 q 165 149 167 152 q 207 220 178 173 q 245 280 236 268 q 269 313 254 292 q 297 344 285 333 q 325 370 309 355 q 357 392 342 385 q 430 410 395 410 q 487 389 465 410 q 508 341 508 368 q 491 293 508 313 q 451 272 473 272 q 415 280 428 272 q 397 296 402 288 q 372 321 383 321 m -9 -304 l -31 -304 q 16 -87 7 -149 l 132 -50 q 78 -175 132 -81 q -9 -304 24 -269 z "},"":{"ha":1242,"x_min":-1,"x_max":1231,"o":"m 1188 144 l 1231 123 q 1180 38 1211 71 q 1057 -20 1126 -20 q 947 58 994 -20 q 886 189 910 119 q 848 293 861 259 q 788 371 817 371 q 595 75 723 173 q 287 -23 467 -23 q 94 24 178 -23 q 25 87 51 47 q -1 181 -1 127 q 27 283 -1 235 q 100 359 55 330 q 311 421 194 421 q 433 746 315 601 q 715 949 551 894 q 872 978 801 978 q 995 964 943 978 q 1090 923 1046 950 q 1161 849 1135 896 q 1188 742 1188 802 q 1165 627 1188 682 q 1102 528 1143 572 q 909 386 1026 445 q 1009 202 955 348 q 1055 110 1029 151 q 1109 69 1082 69 q 1153 92 1135 69 q 1188 144 1175 121 m 388 212 l 347 203 q 316 317 330 235 l 311 345 q 111 292 199 345 q 63 244 82 273 q 43 177 43 215 q 64 107 43 139 q 121 58 85 76 q 275 22 190 22 q 508 100 420 22 q 645 321 596 177 q 672 402 655 351 q 699 485 688 454 q 726 563 709 516 q 759 640 744 609 q 797 711 774 671 q 846 780 821 750 q 979 896 906 850 q 919 913 962 905 q 828 921 876 921 q 662 878 747 921 q 508 765 576 834 q 396 603 440 696 q 351 418 351 510 q 585 288 500 397 l 563 264 q 541 278 559 266 q 505 300 522 291 q 463 321 488 310 q 351 346 412 346 q 371 258 354 302 q 388 212 387 214 m 791 385 q 992 511 912 422 q 1072 721 1072 600 q 1055 805 1072 762 q 1010 871 1039 847 q 899 749 935 817 q 865 683 878 709 q 838 602 852 656 q 808 469 821 536 q 791 385 794 401 m 939 1023 l 903 1023 l 767 1227 l 882 1227 l 926 1050 l 1044 1227 l 1160 1227 l 939 1023 z "},"":{"ha":518,"x_min":-28,"x_max":547,"o":"m 372 321 q 311 288 347 321 q 243 208 276 255 q 135 33 190 132 l 117 0 l 21 0 q 42 64 21 0 q 101 273 101 240 q 90 306 101 306 q 43 259 71 306 q 33 242 37 248 q 24 226 29 235 q 18 215 19 217 l -28 241 q 69 369 25 328 q 159 410 113 410 q 196 392 180 410 q 211 350 211 374 q 208 308 211 326 q 202 273 205 289 q 193 236 199 258 q 183 203 186 214 q 173 172 179 191 q 165 149 167 152 q 207 220 178 173 q 245 280 236 268 q 269 313 254 292 q 297 344 285 333 q 325 370 309 355 q 357 392 342 385 q 430 410 395 410 q 487 389 465 410 q 508 341 508 368 q 491 293 508 313 q 451 272 473 272 q 415 280 428 272 q 397 296 402 288 q 372 321 383 321 m 326 456 l 290 456 l 155 660 l 270 660 l 313 483 l 432 660 l 547 660 l 326 456 z "},"":{"ha":899,"x_min":-14,"x_max":1031,"o":"m 615 32 q 582 17 615 32 q 480 -10 549 3 q 352 -22 412 -22 q 242 -16 291 -22 q 146 6 194 -9 q 64 47 98 22 q -14 203 -14 102 q 14 314 -14 262 q 87 400 42 366 q 294 473 182 473 q 495 394 429 473 q 528 297 528 354 q 474 198 528 240 q 360 157 420 157 q 346 171 346 157 q 359 192 346 186 q 392 204 373 199 q 430 218 411 210 q 477 287 477 239 q 434 358 477 334 q 284 382 391 382 q 119 328 178 382 q 61 199 61 274 q 149 60 61 101 q 335 22 227 22 q 637 129 522 22 q 718 317 718 203 q 670 448 718 385 q 623 505 649 477 q 572 560 597 532 q 525 616 546 588 q 477 730 477 677 q 494 821 477 783 q 540 887 511 859 q 606 936 569 916 q 766 978 682 978 q 902 943 839 978 q 971 827 971 905 q 949 773 971 796 q 901 750 928 750 q 856 766 873 750 q 839 801 839 781 q 856 842 839 820 q 872 879 872 864 q 860 905 872 893 q 829 924 848 918 q 760 935 791 935 q 636 892 688 935 q 585 774 585 850 q 636 677 585 732 q 687 625 659 652 q 742 566 714 597 q 793 502 770 535 q 844 350 844 429 q 813 208 844 271 q 731 102 782 144 q 615 32 681 60 m 810 1039 l 774 1039 l 639 1243 l 754 1243 l 798 1066 l 916 1243 l 1031 1243 l 810 1039 z "},"":{"ha":446,"x_min":-19,"x_max":492,"o":"m 63 5 q 41 13 63 5 q 0 42 19 20 q -19 89 -19 63 q -5 132 -19 115 q 33 149 9 149 q 74 135 56 149 q 92 95 92 121 q 61 53 92 70 q 140 31 87 31 q 254 96 254 31 q 182 161 254 136 q 122 182 152 171 q 69 216 92 194 q 45 271 47 239 q 75 349 45 317 q 248 410 133 410 q 347 388 304 410 q 391 333 391 367 q 373 284 391 299 q 333 269 356 269 q 294 282 310 269 q 278 317 278 294 q 304 355 278 339 q 248 367 288 367 q 176 355 208 367 q 144 323 144 343 q 168 289 144 302 q 224 264 191 275 q 291 237 258 252 q 348 195 324 222 q 371 126 371 167 q 338 52 371 85 q 165 -11 275 -11 q 63 5 108 -11 m 271 456 l 235 456 l 100 660 l 215 660 l 258 483 l 377 660 l 492 660 l 271 456 z "},"":{"ha":1136,"x_min":7,"x_max":1125,"o":"m 969 43 q 1083 160 1019 43 l 1119 139 q 1035 23 1083 63 q 937 -17 987 -17 q 851 28 886 -17 q 817 146 817 74 q 829 297 817 218 q 872 508 846 403 q 899 618 898 614 q 905 643 902 629 q 876 570 897 622 q 837 474 855 519 q 789 367 818 429 q 734 254 761 304 q 672 151 707 203 q 601 64 636 99 q 440 -17 522 -17 q 351 24 382 -17 q 319 133 319 65 q 338 290 319 200 q 378 454 356 380 q 436 783 436 652 q 400 897 436 852 q 306 942 365 942 q 202 912 246 942 q 129 835 157 882 q 80 730 100 788 q 43 522 43 622 q 127 197 43 337 l 101 175 q 31 340 55 249 q 7 504 7 431 q 17 636 7 576 q 51 758 27 696 q 109 868 75 820 q 198 946 144 916 q 308 977 252 977 q 401 961 364 977 q 463 921 439 946 q 503 861 487 895 q 533 721 533 798 q 517 565 533 644 q 480 422 500 485 q 428 134 428 257 q 469 53 428 53 q 561 103 510 53 q 662 233 612 153 q 761 410 711 313 q 853 604 811 507 q 979 911 939 800 l 998 961 l 1125 961 q 924 155 924 398 q 969 43 924 43 m 841 1063 l 702 1063 q 643 1059 667 1063 l 646 1120 q 768 1125 682 1125 q 951 1120 855 1125 l 948 1065 q 841 1063 902 1063 z "},"":{"ha":608,"x_min":-17,"x_max":572,"o":"m 536 395 q 445 101 445 153 q 456 79 445 79 q 543 166 486 79 l 572 138 q 487 32 536 74 q 407 -11 437 -11 q 344 53 344 -11 q 367 174 344 102 q 390 245 390 245 q 374 217 387 239 q 355 184 361 195 q 335 152 349 174 q 312 117 321 130 q 287 85 302 104 q 260 54 272 65 q 232 28 248 42 q 201 7 216 14 q 134 -11 167 -11 q 54 78 54 -11 q 83 204 54 119 q 112 306 112 290 q 102 321 112 321 q 27 235 75 321 l -17 261 q 162 410 76 410 q 208 394 191 410 q 223 345 224 378 q 190 228 222 312 q 158 98 158 143 q 180 74 158 74 q 242 107 206 74 q 311 187 277 140 q 420 362 363 262 l 439 395 l 536 395 m 370 496 l 231 497 q 172 492 196 497 l 175 554 q 297 559 210 559 q 480 554 384 559 l 477 499 q 370 496 431 496 z "},"":{"ha":1136,"x_min":7,"x_max":1125,"o":"m 969 43 q 1083 160 1019 43 l 1119 139 q 1035 23 1083 63 q 937 -17 987 -17 q 851 28 886 -17 q 817 146 817 74 q 829 297 817 218 q 872 508 846 403 q 899 618 898 614 q 905 643 902 629 q 876 570 897 622 q 837 474 855 519 q 789 367 818 429 q 734 254 761 304 q 672 151 707 203 q 601 64 636 99 q 440 -17 522 -17 q 351 24 382 -17 q 319 133 319 65 q 338 290 319 200 q 378 454 356 380 q 436 783 436 652 q 400 897 436 852 q 306 942 365 942 q 202 912 246 942 q 129 835 157 882 q 80 730 100 788 q 43 522 43 622 q 127 197 43 337 l 101 175 q 31 340 55 249 q 7 504 7 431 q 17 636 7 576 q 51 758 27 696 q 109 868 75 820 q 198 946 144 916 q 308 977 252 977 q 401 961 364 977 q 463 921 439 946 q 503 861 487 895 q 533 721 533 798 q 517 565 533 644 q 480 422 500 485 q 428 134 428 257 q 469 53 428 53 q 561 103 510 53 q 662 233 612 153 q 761 410 711 313 q 853 604 811 507 q 979 911 939 800 l 998 961 l 1125 961 q 924 155 924 398 q 969 43 924 43 m 908 -221 l 914 -237 q 838 -257 883 -257 q 742 -195 742 -257 q 886 -1 742 -125 l 931 -1 q 850 -108 885 -47 q 816 -201 816 -170 q 857 -229 816 -229 q 908 -221 877 -229 z "},"":{"ha":608,"x_min":-17,"x_max":572,"o":"m 536 395 q 445 101 445 153 q 456 79 445 79 q 543 166 486 79 l 572 138 q 487 32 536 74 q 407 -11 437 -11 q 344 53 344 -11 q 367 174 344 102 q 390 245 390 245 q 374 217 387 239 q 355 184 361 195 q 335 152 349 174 q 312 117 321 130 q 287 85 302 104 q 260 54 272 65 q 232 28 248 42 q 201 7 216 14 q 134 -11 167 -11 q 54 78 54 -11 q 83 204 54 119 q 112 306 112 290 q 102 321 112 321 q 27 235 75 321 l -17 261 q 162 410 76 410 q 208 394 191 410 q 223 345 224 378 q 190 228 222 312 q 158 98 158 143 q 180 74 158 74 q 242 107 206 74 q 311 187 277 140 q 420 362 363 262 l 439 395 l 536 395 m 399 -221 l 406 -237 q 329 -257 374 -257 q 233 -195 233 -257 q 378 -1 233 -125 l 422 -1 q 342 -108 376 -47 q 307 -201 307 -170 q 349 -229 307 -229 q 399 -221 368 -229 z "},"":{"ha":1050,"x_min":-7,"x_max":1133,"o":"m 424 143 q 651 76 559 76 q 840 268 802 76 q 854 342 845 296 q 868 418 863 389 q 883 491 873 448 q 900 564 892 534 q 919 631 907 593 q 944 696 931 669 q 973 753 956 723 q 1009 807 990 784 q 1105 887 1051 857 l 1133 866 q 1029 718 1067 817 q 981 537 991 618 q 963 345 970 456 q 952 197 956 235 q 941 93 949 160 q 924 -12 933 25 q 897 -103 914 -48 q 858 -189 880 -158 q 803 -256 836 -219 q 729 -311 770 -292 q 513 -356 631 -356 q 316 -249 316 -356 q 342 -192 316 -214 q 400 -171 368 -171 q 452 -190 431 -171 q 473 -243 473 -209 q 458 -312 473 -277 q 525 -317 488 -317 q 600 -304 562 -317 q 665 -271 637 -292 q 715 -216 692 -250 q 753 -146 738 -182 q 783 -62 769 -111 q 821 134 802 12 q 739 27 789 58 q 621 -3 688 -3 q 332 64 494 -3 q 237 15 303 37 q 112 -7 172 -7 q -7 83 -7 -7 q 48 170 -7 133 q 195 208 104 208 q 372 165 286 208 q 504 308 439 220 q 613 503 568 397 q 659 694 659 609 q 597 892 659 827 q 440 958 535 958 q 317 931 380 958 q 204 861 255 905 q 121 752 153 817 q 88 612 88 686 q 124 468 88 538 l 90 453 q 50 625 50 537 q 85 789 50 713 q 178 913 121 864 q 450 1016 301 1016 q 660 937 573 1016 q 752 684 752 852 q 654 396 752 551 q 424 143 556 242 m 288 96 q 129 136 184 136 q 35 87 35 136 q 106 43 35 43 q 207 60 152 43 q 288 96 262 77 m 714 1159 q 728 1159 714 1159 q 760 1143 742 1159 q 777 1095 777 1127 q 755 1042 777 1062 q 705 1022 732 1022 q 659 1039 677 1022 q 641 1087 641 1055 q 664 1139 641 1120 q 714 1159 686 1159 m 960 1159 q 974 1159 960 1159 q 1005 1143 987 1159 q 1023 1095 1023 1127 q 1000 1042 1023 1062 q 950 1022 978 1022 q 905 1039 923 1022 q 886 1087 886 1055 q 909 1139 886 1119 q 960 1159 932 1159 z "},"":{"ha":1194,"x_min":21,"x_max":1249,"o":"m 254 550 q 421 615 356 550 l 458 590 q 358 533 419 554 q 219 513 296 513 q 81 561 142 513 q 21 705 21 609 q 126 899 21 821 q 410 978 231 978 q 581 953 500 978 q 709 898 662 928 q 815 828 757 867 q 907 774 873 789 q 1012 850 953 823 q 1126 878 1072 878 q 1214 851 1180 878 q 1249 769 1249 824 q 1188 681 1249 715 q 1053 648 1128 648 q 921 668 978 648 l 817 497 l 1090 497 l 1110 457 l 793 457 l 633 200 q 787 113 684 155 q 947 71 889 71 q 1096 199 1074 71 l 1160 189 q 1085 46 1160 107 q 895 -16 1010 -16 q 656 57 789 -16 q 601 89 637 67 q 550 118 565 110 q 275 -16 424 -16 q 107 36 164 -16 q 50 164 50 87 q 115 296 50 237 q 295 359 183 359 q 517 285 393 359 q 583 245 541 271 l 716 457 l 464 457 l 500 497 l 741 497 l 859 689 q 620 823 730 741 q 538 879 580 852 q 342 935 452 935 q 234 914 283 935 q 155 861 185 894 q 90 712 90 793 q 138 591 90 631 q 254 550 186 550 m 500 153 q 361 233 448 195 q 214 271 275 271 q 124 239 154 271 q 95 161 95 208 q 139 75 95 113 q 267 36 183 36 q 500 153 393 36 m 958 746 q 1070 720 1013 720 q 1162 736 1128 720 q 1196 778 1196 753 q 1179 816 1196 803 q 1129 829 1162 829 q 1047 807 1095 829 q 958 746 999 785 m 678 1078 l 642 1078 l 507 1282 l 622 1282 l 665 1105 l 784 1282 l 899 1282 l 678 1078 z "},"":{"ha":469,"x_min":-24,"x_max":481,"o":"m 75 37 q 20 -1 57 28 l -24 33 q 111 179 -20 47 q 250 322 241 312 q 114 368 158 368 l 107 367 q 136 313 136 338 q 115 274 136 288 q 69 260 94 260 q 25 275 43 260 q 7 315 7 290 q 42 389 7 363 q 120 415 77 415 q 229 394 162 415 q 328 372 296 372 q 402 387 359 372 l 430 347 q 351 293 402 293 q 328 300 342 293 l 131 89 q 226 62 167 89 q 319 33 286 35 q 296 79 296 52 q 316 122 296 106 q 359 138 336 138 q 400 120 382 138 q 418 70 418 103 q 390 13 418 36 q 315 -11 361 -11 q 75 37 221 -11 m 260 456 l 224 456 l 88 660 l 203 660 l 247 483 l 366 660 l 481 660 l 260 456 z "},"":{"ha":541,"x_min":-138,"x_max":677,"o":"m 71 -110 q 57 -128 71 -110 q 5 -170 43 -147 q -70 -193 -33 -193 q -122 -179 -106 -193 q -138 -143 -138 -164 q -124 -108 -138 -123 q -90 -93 -111 -93 q -56 -102 -69 -93 q -42 -127 -42 -112 q -52 -160 -42 -142 q 56 30 7 -159 q 96 205 77 115 q 178 543 149 462 l 39 543 l 50 587 l 192 587 q 425 932 286 863 q 539 958 479 958 q 677 859 677 958 q 656 809 677 827 q 606 791 635 791 q 557 808 577 791 q 537 851 537 825 q 555 903 537 878 q 512 914 522 914 q 310 600 387 914 q 308 593 309 596 q 307 587 307 589 l 458 587 l 447 543 l 294 543 q 251 380 274 481 q 209 214 227 280 q 171 92 190 148 q 126 -18 153 37 q 71 -110 100 -72 z "},"":{"ha":1097,"x_min":75,"x_max":2317,"o":"m 195 265 l 149 245 q 75 521 75 388 q 180 803 75 686 q 435 958 283 917 q 593 978 511 978 q 744 961 676 978 q 870 896 812 944 q 1048 947 933 947 l 1061 905 q 916 855 952 884 q 1023 683 987 789 q 1060 478 1060 577 q 1048 313 1060 380 q 1011 188 1037 247 q 945 88 985 130 q 730 -2 862 -2 q 445 64 597 -2 q 343 15 409 37 q 219 -7 277 -7 q 103 83 103 -7 q 162 172 103 136 q 310 208 221 208 q 484 165 398 208 q 604 439 560 264 q 643 579 621 508 q 825 861 693 744 q 731 912 789 895 q 616 930 672 930 q 384 880 487 930 q 220 728 281 829 q 158 488 158 626 q 195 265 158 389 m 981 476 q 981 526 981 476 q 950 666 981 575 q 873 806 920 757 q 806 618 832 743 q 653 260 760 397 q 534 142 603 196 q 758 75 665 75 q 900 138 851 75 q 966 290 950 202 q 981 476 981 377 m 399 96 q 226 134 307 134 q 146 85 146 134 q 220 43 146 43 q 312 57 262 43 q 399 96 362 72 m 1323 550 q 1490 615 1425 550 l 1527 590 q 1427 533 1488 554 q 1288 513 1365 513 q 1150 561 1211 513 q 1090 705 1090 609 q 1195 899 1090 821 q 1479 978 1300 978 q 1650 953 1569 978 q 1778 898 1731 928 q 1884 828 1826 867 q 1976 774 1942 789 q 2081 850 2022 823 q 2195 878 2140 878 q 2283 851 2249 878 q 2317 769 2317 824 q 2257 681 2317 715 q 2122 648 2197 648 q 1990 668 2047 648 l 1886 497 l 2159 497 l 2179 457 l 1862 457 l 1702 200 q 1855 113 1753 155 q 2016 71 1958 71 q 2165 199 2142 71 l 2228 189 q 2154 46 2228 107 q 1963 -16 2079 -16 q 1725 57 1858 -16 q 1670 89 1706 67 q 1619 118 1634 110 q 1344 -16 1493 -16 q 1176 36 1233 -16 q 1119 164 1119 87 q 1183 296 1119 237 q 1364 359 1252 359 q 1586 285 1462 359 q 1652 245 1609 271 l 1785 457 l 1533 457 l 1569 497 l 1809 497 l 1927 689 q 1689 823 1799 741 q 1607 879 1649 852 q 1411 935 1521 935 q 1303 914 1352 935 q 1223 861 1254 894 q 1159 712 1159 793 q 1207 591 1159 631 q 1323 550 1255 550 m 1569 153 q 1430 233 1516 195 q 1283 271 1343 271 q 1193 239 1223 271 q 1164 161 1164 208 q 1208 75 1164 113 q 1336 36 1252 36 q 1569 153 1462 36 m 2027 746 q 2139 720 2082 720 q 2231 736 2197 720 q 2265 778 2265 753 q 2248 816 2265 803 q 2198 829 2231 829 q 2116 807 2164 829 q 2027 746 2068 785 z "},"":{"ha":1097,"x_min":75,"x_max":1530,"o":"m 195 265 l 149 245 q 75 521 75 388 q 180 803 75 686 q 435 958 283 917 q 593 978 511 978 q 744 961 676 978 q 870 896 812 944 q 1048 947 933 947 l 1061 905 q 916 855 952 884 q 1023 683 987 789 q 1060 478 1060 577 q 1048 313 1060 380 q 1011 188 1037 247 q 945 88 985 130 q 730 -2 862 -2 q 445 64 597 -2 q 343 15 409 37 q 219 -7 277 -7 q 103 83 103 -7 q 162 172 103 136 q 310 208 221 208 q 484 165 398 208 q 604 439 560 264 q 643 579 621 508 q 825 861 693 744 q 731 912 789 895 q 616 930 672 930 q 384 880 487 930 q 220 728 281 829 q 158 488 158 626 q 195 265 158 389 m 981 476 q 981 526 981 476 q 950 666 981 575 q 873 806 920 757 q 806 618 832 743 q 653 260 760 397 q 534 142 603 196 q 758 75 665 75 q 900 138 851 75 q 966 290 950 202 q 981 476 981 377 m 399 96 q 226 134 307 134 q 146 85 146 134 q 220 43 146 43 q 312 57 262 43 q 399 96 362 72 m 1175 37 q 1120 -1 1157 28 l 1076 33 q 1211 179 1080 47 q 1350 322 1341 312 q 1214 368 1258 368 l 1207 367 q 1236 313 1236 338 q 1215 274 1236 288 q 1169 260 1194 260 q 1125 275 1143 260 q 1107 315 1107 290 q 1142 389 1107 363 q 1220 415 1177 415 q 1329 394 1262 415 q 1428 372 1396 372 q 1502 387 1459 372 l 1530 347 q 1451 293 1502 293 q 1428 300 1442 293 l 1231 89 q 1326 62 1267 89 q 1419 33 1385 35 q 1396 79 1396 52 q 1416 122 1396 106 q 1459 138 1436 138 q 1500 120 1482 138 q 1518 70 1518 103 q 1490 13 1518 36 q 1415 -11 1461 -11 q 1175 37 1321 -11 z "},"":{"ha":328,"x_min":-8,"x_max":288,"o":"m 121 -11 q 107 -11 121 -11 q 76 7 92 -11 q 60 55 60 24 q 76 139 60 86 q 107 236 92 193 q 123 294 123 279 q 114 309 123 309 q 37 215 90 309 l -8 241 q 175 410 92 410 q 232 338 232 410 q 218 271 232 317 l 170 131 q 162 95 162 111 q 174 79 162 79 q 259 165 197 79 l 288 138 q 200 30 251 71 q 121 -11 150 -11 m 103 458 l 56 458 q 107 550 62 515 q 193 585 151 585 q 277 509 277 585 q 269 458 277 484 l 220 458 q 223 484 223 469 q 214 508 223 498 q 185 517 204 517 q 140 500 166 517 q 103 458 114 483 z "},"":{"ha":978,"x_min":14,"x_max":1012,"o":"m 414 359 q 375 359 414 359 q 291 416 337 359 q 245 553 245 473 q 280 711 245 634 q 370 847 314 788 q 501 942 425 905 q 652 978 577 978 q 791 955 728 978 q 904 890 855 932 q 983 784 954 848 q 1012 631 1012 719 q 980 446 1012 543 q 890 267 949 349 q 753 121 831 184 q 576 21 675 57 q 370 -16 476 -16 q 106 72 199 -16 q 14 322 14 160 q 119 652 14 500 q 245 779 173 729 l 266 753 q 172 574 206 682 q 137 378 137 466 q 152 232 137 290 q 198 126 168 173 q 398 25 264 25 q 730 229 589 25 q 844 494 810 344 q 859 629 859 565 q 846 746 859 694 q 806 840 833 799 q 630 928 749 928 q 467 872 541 928 q 353 731 393 817 q 313 561 313 645 q 342 440 313 477 q 416 404 370 404 q 509 434 462 404 q 589 515 556 463 q 625 623 623 566 l 690 633 q 653 499 690 563 q 553 398 616 436 q 414 359 490 359 m 828 1039 l 791 1039 q 669 1153 747 1073 q 582 1243 591 1234 l 697 1243 q 828 1039 787 1097 m 651 1039 l 614 1039 q 492 1153 570 1073 q 405 1243 414 1234 l 520 1243 q 651 1039 610 1097 z "},"":{"ha":526,"x_min":-2,"x_max":471,"o":"m -1 161 q 24 259 -1 212 q 88 339 49 307 q 265 410 175 410 q 413 361 355 410 q 471 241 471 313 q 431 111 471 169 q 326 21 391 54 q 184 -11 261 -11 q 53 38 107 -11 q -1 161 -1 86 m 221 31 q 280 52 252 31 q 321 104 307 72 q 349 233 349 167 q 325 334 349 300 q 256 368 300 368 q 167 310 211 368 q 123 161 123 252 q 221 31 123 31 m 421 456 l 385 456 q 262 570 340 490 q 175 660 184 650 l 290 660 q 421 456 380 514 m 244 456 l 208 456 q 85 570 163 490 q -2 660 7 650 l 113 660 q 244 456 203 514 z "},"":{"ha":978,"x_min":14,"x_max":1012,"o":"m 414 359 q 375 359 414 359 q 291 416 337 359 q 245 553 245 473 q 280 711 245 634 q 370 847 314 788 q 501 942 425 905 q 652 978 577 978 q 791 955 728 978 q 904 890 855 932 q 983 784 954 848 q 1012 631 1012 719 q 980 446 1012 543 q 890 267 949 349 q 753 121 831 184 q 576 21 675 57 q 370 -16 476 -16 q 106 72 199 -16 q 14 322 14 160 q 119 652 14 500 q 245 779 173 729 l 266 753 q 172 574 206 682 q 137 378 137 466 q 152 232 137 290 q 198 126 168 173 q 398 25 264 25 q 730 229 589 25 q 844 494 810 344 q 859 629 859 565 q 846 746 859 694 q 806 840 833 799 q 630 928 749 928 q 467 872 541 928 q 353 731 393 817 q 313 561 313 645 q 342 440 313 477 q 416 404 370 404 q 509 434 462 404 q 589 515 556 463 q 625 623 623 566 l 690 633 q 653 499 690 563 q 553 398 616 436 q 414 359 490 359 m 642 1042 l 594 1042 q 645 1133 601 1098 q 731 1168 690 1168 q 816 1092 816 1168 q 808 1042 816 1067 l 759 1042 q 762 1067 762 1053 q 752 1091 762 1082 q 724 1100 743 1100 q 679 1083 705 1100 q 642 1042 652 1066 z "},"":{"ha":526,"x_min":-1,"x_max":471,"o":"m -1 161 q 24 259 -1 212 q 88 339 49 307 q 265 410 175 410 q 413 361 355 410 q 471 241 471 313 q 431 111 471 169 q 326 21 391 54 q 184 -11 261 -11 q 53 38 107 -11 q -1 161 -1 86 m 221 31 q 280 52 252 31 q 321 104 307 72 q 349 233 349 167 q 325 334 349 300 q 256 368 300 368 q 167 310 211 368 q 123 161 123 252 q 221 31 123 31 m 235 458 l 187 458 q 238 550 194 515 q 324 585 283 585 q 409 509 409 585 q 401 458 409 484 l 352 458 q 355 484 355 469 q 345 508 355 498 q 317 517 336 517 q 272 500 298 517 q 235 458 245 483 z "},"":{"ha":1242,"x_min":-1,"x_max":1231,"o":"m 1188 144 l 1231 123 q 1180 38 1211 71 q 1057 -20 1126 -20 q 947 58 994 -20 q 886 189 910 119 q 848 293 861 259 q 788 371 817 371 q 595 75 723 173 q 287 -23 467 -23 q 94 24 178 -23 q 25 87 51 47 q -1 181 -1 127 q 27 283 -1 235 q 100 359 55 330 q 311 421 194 421 q 433 746 315 601 q 715 949 551 894 q 872 978 801 978 q 995 964 943 978 q 1090 923 1046 950 q 1161 849 1135 896 q 1188 742 1188 802 q 1165 627 1188 682 q 1102 528 1143 572 q 909 386 1026 445 q 1009 202 955 348 q 1055 110 1029 151 q 1109 69 1082 69 q 1153 92 1135 69 q 1188 144 1175 121 m 388 212 l 347 203 q 316 317 330 235 l 311 345 q 111 292 199 345 q 63 244 82 273 q 43 177 43 215 q 64 107 43 139 q 121 58 85 76 q 275 22 190 22 q 508 100 420 22 q 645 321 596 177 q 672 402 655 351 q 699 485 688 454 q 726 563 709 516 q 759 640 744 609 q 797 711 774 671 q 846 780 821 750 q 979 896 906 850 q 919 913 962 905 q 828 921 876 921 q 662 878 747 921 q 508 765 576 834 q 396 603 440 696 q 351 418 351 510 q 585 288 500 397 l 563 264 q 541 278 559 266 q 505 300 522 291 q 463 321 488 310 q 351 346 412 346 q 371 258 354 302 q 388 212 387 214 m 791 385 q 992 511 912 422 q 1072 721 1072 600 q 1055 805 1072 762 q 1010 871 1039 847 q 899 749 935 817 q 865 683 878 709 q 838 602 852 656 q 808 469 821 536 q 791 385 794 401 m 1067 1023 l 1030 1023 q 908 1137 986 1057 q 821 1227 830 1217 l 936 1227 q 1067 1023 1026 1081 m 890 1023 l 853 1023 q 731 1137 809 1057 q 644 1227 653 1217 l 759 1227 q 890 1023 849 1081 z "},"":{"ha":518,"x_min":-28,"x_max":508,"o":"m 372 321 q 311 288 347 321 q 243 208 276 255 q 135 33 190 132 l 117 0 l 21 0 q 42 64 21 0 q 101 273 101 240 q 90 306 101 306 q 43 259 71 306 q 33 242 37 248 q 24 226 29 235 q 18 215 19 217 l -28 241 q 69 369 25 328 q 159 410 113 410 q 196 392 180 410 q 211 350 211 374 q 208 308 211 326 q 202 273 205 289 q 193 236 199 258 q 183 203 186 214 q 173 172 179 191 q 165 149 167 152 q 207 220 178 173 q 245 280 236 268 q 269 313 254 292 q 297 344 285 333 q 325 370 309 355 q 357 392 342 385 q 430 410 395 410 q 487 389 465 410 q 508 341 508 368 q 491 293 508 313 q 451 272 473 272 q 415 280 428 272 q 397 296 402 288 q 372 321 383 321 m 454 456 l 418 456 q 296 570 374 490 q 208 660 218 650 l 323 660 q 454 456 414 514 m 277 456 l 241 456 q 119 570 197 490 q 31 660 41 650 l 146 660 q 277 456 237 514 z "},"":{"ha":1242,"x_min":-1,"x_max":1231,"o":"m 1188 144 l 1231 123 q 1180 38 1211 71 q 1057 -20 1126 -20 q 947 58 994 -20 q 886 189 910 119 q 848 293 861 259 q 788 371 817 371 q 595 75 723 173 q 287 -23 467 -23 q 94 24 178 -23 q 25 87 51 47 q -1 181 -1 127 q 27 283 -1 235 q 100 359 55 330 q 311 421 194 421 q 433 746 315 601 q 715 949 551 894 q 872 978 801 978 q 995 964 943 978 q 1090 923 1046 950 q 1161 849 1135 896 q 1188 742 1188 802 q 1165 627 1188 682 q 1102 528 1143 572 q 909 386 1026 445 q 1009 202 955 348 q 1055 110 1029 151 q 1109 69 1082 69 q 1153 92 1135 69 q 1188 144 1175 121 m 388 212 l 347 203 q 316 317 330 235 l 311 345 q 111 292 199 345 q 63 244 82 273 q 43 177 43 215 q 64 107 43 139 q 121 58 85 76 q 275 22 190 22 q 508 100 420 22 q 645 321 596 177 q 672 402 655 351 q 699 485 688 454 q 726 563 709 516 q 759 640 744 609 q 797 711 774 671 q 846 780 821 750 q 979 896 906 850 q 919 913 962 905 q 828 921 876 921 q 662 878 747 921 q 508 765 576 834 q 396 603 440 696 q 351 418 351 510 q 585 288 500 397 l 563 264 q 541 278 559 266 q 505 300 522 291 q 463 321 488 310 q 351 346 412 346 q 371 258 354 302 q 388 212 387 214 m 791 385 q 992 511 912 422 q 1072 721 1072 600 q 1055 805 1072 762 q 1010 871 1039 847 q 899 749 935 817 q 865 683 878 709 q 838 602 852 656 q 808 469 821 536 q 791 385 794 401 m 880 1025 l 833 1025 q 884 1117 840 1082 q 970 1152 928 1152 q 1055 1076 1055 1152 q 1046 1025 1055 1050 l 998 1025 q 1000 1051 1000 1036 q 991 1075 1000 1065 q 962 1084 981 1084 q 917 1067 943 1084 q 880 1025 891 1050 z "},"":{"ha":518,"x_min":-28,"x_max":508,"o":"m 372 321 q 311 288 347 321 q 243 208 276 255 q 135 33 190 132 l 117 0 l 21 0 q 42 64 21 0 q 101 273 101 240 q 90 306 101 306 q 43 259 71 306 q 33 242 37 248 q 24 226 29 235 q 18 215 19 217 l -28 241 q 69 369 25 328 q 159 410 113 410 q 196 392 180 410 q 211 350 211 374 q 208 308 211 326 q 202 273 205 289 q 193 236 199 258 q 183 203 186 214 q 173 172 179 191 q 165 149 167 152 q 207 220 178 173 q 245 280 236 268 q 269 313 254 292 q 297 344 285 333 q 325 370 309 355 q 357 392 342 385 q 430 410 395 410 q 487 389 465 410 q 508 341 508 368 q 491 293 508 313 q 451 272 473 272 q 415 280 428 272 q 397 296 402 288 q 372 321 383 321 m 268 458 l 220 458 q 272 550 227 515 q 357 585 316 585 q 442 509 442 585 q 434 458 442 484 l 385 458 q 388 484 388 469 q 378 508 388 498 q 350 517 369 517 q 305 500 331 517 q 268 458 279 483 z "},"":{"ha":1136,"x_min":7,"x_max":1125,"o":"m 969 43 q 1083 160 1019 43 l 1119 139 q 1035 23 1083 63 q 937 -17 987 -17 q 851 28 886 -17 q 817 146 817 74 q 829 297 817 218 q 872 508 846 403 q 899 618 898 614 q 905 643 902 629 q 876 570 897 622 q 837 474 855 519 q 789 367 818 429 q 734 254 761 304 q 672 151 707 203 q 601 64 636 99 q 440 -17 522 -17 q 351 24 382 -17 q 319 133 319 65 q 338 290 319 200 q 378 454 356 380 q 436 783 436 652 q 400 897 436 852 q 306 942 365 942 q 202 912 246 942 q 129 835 157 882 q 80 730 100 788 q 43 522 43 622 q 127 197 43 337 l 101 175 q 31 340 55 249 q 7 504 7 431 q 17 636 7 576 q 51 758 27 696 q 109 868 75 820 q 198 946 144 916 q 308 977 252 977 q 401 961 364 977 q 463 921 439 946 q 503 861 487 895 q 533 721 533 798 q 517 565 533 644 q 480 422 500 485 q 428 134 428 257 q 469 53 428 53 q 561 103 510 53 q 662 233 612 153 q 761 410 711 313 q 853 604 811 507 q 979 911 939 800 l 998 961 l 1125 961 q 924 155 924 398 q 969 43 924 43 m 940 1022 l 903 1022 q 781 1136 859 1056 q 694 1226 703 1217 l 809 1226 q 940 1022 899 1080 m 763 1022 l 726 1022 q 604 1136 682 1056 q 517 1226 526 1217 l 632 1226 q 763 1022 722 1080 z "},"":{"ha":608,"x_min":-17,"x_max":572,"o":"m 536 395 q 445 101 445 153 q 456 79 445 79 q 543 166 486 79 l 572 138 q 487 32 536 74 q 407 -11 437 -11 q 344 53 344 -11 q 367 174 344 102 q 390 245 390 245 q 374 217 387 239 q 355 184 361 195 q 335 152 349 174 q 312 117 321 130 q 287 85 302 104 q 260 54 272 65 q 232 28 248 42 q 201 7 216 14 q 134 -11 167 -11 q 54 78 54 -11 q 83 204 54 119 q 112 306 112 290 q 102 321 112 321 q 27 235 75 321 l -17 261 q 162 410 76 410 q 208 394 191 410 q 223 345 224 378 q 190 228 222 312 q 158 98 158 143 q 180 74 158 74 q 242 107 206 74 q 311 187 277 140 q 420 362 363 262 l 439 395 l 536 395 m 469 456 l 432 456 q 310 570 388 490 q 222 660 232 650 l 338 660 q 469 456 428 514 m 292 456 l 255 456 q 133 570 211 490 q 45 660 55 650 l 161 660 q 292 456 251 514 z "},"":{"ha":1136,"x_min":7,"x_max":1125,"o":"m 969 43 q 1083 160 1019 43 l 1119 139 q 1035 23 1083 63 q 937 -17 987 -17 q 851 28 886 -17 q 817 146 817 74 q 829 297 817 218 q 872 508 846 403 q 899 618 898 614 q 905 643 902 629 q 876 570 897 622 q 837 474 855 519 q 789 367 818 429 q 734 254 761 304 q 672 151 707 203 q 601 64 636 99 q 440 -17 522 -17 q 351 24 382 -17 q 319 133 319 65 q 338 290 319 200 q 378 454 356 380 q 436 783 436 652 q 400 897 436 852 q 306 942 365 942 q 202 912 246 942 q 129 835 157 882 q 80 730 100 788 q 43 522 43 622 q 127 197 43 337 l 101 175 q 31 340 55 249 q 7 504 7 431 q 17 636 7 576 q 51 758 27 696 q 109 868 75 820 q 198 946 144 916 q 308 977 252 977 q 401 961 364 977 q 463 921 439 946 q 503 861 487 895 q 533 721 533 798 q 517 565 533 644 q 480 422 500 485 q 428 134 428 257 q 469 53 428 53 q 561 103 510 53 q 662 233 612 153 q 761 410 711 313 q 853 604 811 507 q 979 911 939 800 l 998 961 l 1125 961 q 924 155 924 398 q 969 43 924 43 m 753 1025 l 706 1025 q 757 1116 713 1081 q 843 1152 802 1152 q 928 1075 928 1152 q 920 1025 928 1050 l 871 1025 q 873 1050 873 1036 q 864 1074 873 1065 q 836 1083 854 1083 q 790 1066 817 1083 q 753 1025 764 1049 z "},"":{"ha":608,"x_min":-17,"x_max":572,"o":"m 536 395 q 445 101 445 153 q 456 79 445 79 q 543 166 486 79 l 572 138 q 487 32 536 74 q 407 -11 437 -11 q 344 53 344 -11 q 367 174 344 102 q 390 245 390 245 q 374 217 387 239 q 355 184 361 195 q 335 152 349 174 q 312 117 321 130 q 287 85 302 104 q 260 54 272 65 q 232 28 248 42 q 201 7 216 14 q 134 -11 167 -11 q 54 78 54 -11 q 83 204 54 119 q 112 306 112 290 q 102 321 112 321 q 27 235 75 321 l -17 261 q 162 410 76 410 q 208 394 191 410 q 223 345 224 378 q 190 228 222 312 q 158 98 158 143 q 180 74 158 74 q 242 107 206 74 q 311 187 277 140 q 420 362 363 262 l 439 395 l 536 395 m 282 458 l 235 458 q 286 550 241 515 q 372 585 330 585 q 456 509 456 585 q 448 458 456 484 l 399 458 q 402 484 402 469 q 393 508 402 498 q 364 517 383 517 q 319 500 345 517 q 282 458 293 483 z "},"":{"ha":287,"x_min":-138,"x_max":243,"o":"m -93 -51 q -50 -88 -50 -51 q -56 -117 -50 -108 q 30 -28 -2 -112 q 61 68 48 19 q 96 184 75 118 q 127 286 117 250 q 118 309 127 309 q 41 215 94 309 l -4 241 q 179 410 96 410 q 243 345 243 410 q 231 271 243 310 q 208 189 220 232 q 188 119 195 145 q 170 58 180 92 q 151 3 159 23 q 130 -43 142 -18 q 106 -83 118 -68 q 78 -113 94 -97 q 43 -136 61 -128 q -47 -153 -1 -153 q -116 -136 -94 -153 q -138 -98 -138 -119 q -126 -64 -138 -77 q -93 -51 -113 -51 z "},"":{"ha":514,"x_min":65,"x_max":458,"o":"m 286 659 l 322 659 l 458 455 l 342 455 l 299 632 l 180 455 l 65 455 l 286 659 z "},"":{"ha":514,"x_min":113,"x_max":506,"o":"m 285 456 l 249 456 l 113 660 l 229 660 l 272 483 l 391 660 l 506 660 l 285 456 z "},"":{"ha":364,"x_min":96,"x_max":317,"o":"m 270 587 l 317 587 q 266 495 311 530 q 180 460 222 460 q 96 536 96 460 q 104 587 96 562 l 153 587 q 150 561 150 576 q 159 537 150 547 q 188 528 169 528 q 233 545 207 528 q 270 587 259 562 z "},"":{"ha":364,"x_min":119,"x_max":271,"o":"m 201 663 q 216 663 201 663 q 251 644 231 663 q 271 587 271 625 q 245 525 271 549 q 190 501 220 501 q 140 520 160 501 q 119 577 119 540 q 145 639 119 615 q 201 663 170 663 z "},"":{"ha":364,"x_min":71,"x_max":318,"o":"m 190 501 q 205 501 190 501 q 245 525 220 501 q 271 587 271 549 q 251 644 271 625 q 201 663 231 663 q 145 639 170 663 q 119 577 119 615 q 140 520 119 540 q 190 501 160 501 m 202 704 q 228 704 202 704 q 286 674 253 704 q 318 586 318 645 q 279 493 318 527 q 191 458 241 458 q 105 489 140 458 q 71 576 71 519 q 111 668 71 633 q 202 704 152 704 z "},"":{"ha":885,"x_min":314,"x_max":503,"o":"m 480 -221 l 486 -237 q 410 -257 455 -257 q 314 -195 314 -257 q 458 -1 314 -125 l 503 -1 q 422 -108 457 -47 q 388 -201 388 -170 q 429 -229 388 -229 q 480 -221 449 -229 z "},"":{"ha":1158,"x_min":441,"x_max":821,"o":"m 696 470 q 680 470 696 470 q 602 493 663 470 q 508 517 540 517 q 448 493 475 517 l 441 500 q 487 562 454 536 q 556 587 520 587 q 657 563 592 587 q 748 538 723 538 q 792 551 774 538 q 814 564 810 564 l 821 557 q 772 498 816 526 q 696 470 729 470 z "},"":{"ha":334,"x_min":64,"x_max":487,"o":"m 100 456 l 64 456 q 171 622 92 494 l 195 660 l 310 660 q 256 605 300 650 q 100 456 144 490 m 277 456 l 241 456 q 348 622 269 494 l 372 660 l 487 660 q 433 605 477 650 q 277 456 321 490 z "},"":{"ha":364,"x_min":119,"x_max":271,"o":"m 201 663 q 216 663 201 663 q 251 644 231 663 q 271 587 271 625 q 245 525 271 549 q 190 501 220 501 q 140 520 160 501 q 119 577 119 540 q 145 639 119 615 q 201 663 170 663 z "},"":{"ha":334,"x_min":-113,"x_max":310,"o":"m 310 456 l 273 456 q 151 570 229 490 q 64 660 73 650 l 179 660 q 310 456 269 514 m 133 456 l 96 456 q -26 570 52 490 q -113 660 -104 650 l 2 660 q 133 456 92 514 z "},"":{"ha":364,"x_min":85,"x_max":307,"o":"m 133 458 l 85 458 q 137 550 92 515 q 222 585 181 585 q 307 509 307 585 q 299 458 307 484 l 250 458 q 253 484 253 469 q 243 508 253 498 q 215 517 234 517 q 170 500 196 517 q 133 458 144 483 z "},"":{"ha":251,"x_min":31,"x_max":193,"o":"m 52 -304 l 31 -304 q 77 -87 68 -149 l 193 -50 q 139 -175 193 -81 q 52 -304 85 -269 z "},"":{"ha":1249,"x_min":-12,"x_max":1243,"o":"m 31 81 q -12 184 -12 130 q 7 279 -12 239 q 55 345 25 319 q 126 390 85 372 q 295 425 200 424 q 343 637 301 537 q 456 813 386 738 q 627 933 526 889 q 848 978 728 978 q 1045 920 968 978 q 1122 775 1122 861 q 1068 594 1122 690 q 927 428 1014 498 q 751 346 840 358 q 582 77 697 169 q 290 -16 466 -16 q 31 81 118 -16 m 130 315 q 62 260 89 296 q 35 184 35 225 q 60 112 35 142 q 123 63 85 81 q 272 26 203 26 q 387 42 341 26 q 465 81 432 57 q 526 144 498 106 q 573 220 555 182 q 610 308 591 257 q 640 399 629 359 q 693 578 672 515 q 907 895 770 807 q 772 917 846 917 q 615 874 699 917 q 474 763 532 832 q 380 605 415 694 q 345 422 345 515 q 534 345 439 408 l 505 300 q 347 354 410 354 q 357 293 347 339 q 382 208 368 247 l 342 196 q 314 274 326 222 q 299 354 302 326 q 130 315 215 354 m 957 869 q 831 666 880 793 q 761 386 781 538 q 884 468 821 410 q 990 601 947 526 q 1034 739 1034 675 q 957 869 1034 825 m 1042 -11 q 1028 -11 1042 -11 q 997 7 1013 -11 q 981 55 981 24 q 997 139 981 86 q 1028 236 1013 193 q 1044 294 1044 279 q 1035 309 1044 309 q 958 215 1011 309 l 913 241 q 1096 410 1013 410 q 1153 338 1153 410 q 1139 271 1153 317 l 1090 131 q 1083 95 1083 111 q 1095 79 1083 79 q 1180 165 1118 79 l 1208 138 q 1121 30 1172 71 q 1042 -11 1071 -11 m 1243 576 q 1243 562 1243 576 q 1225 526 1243 549 q 1175 504 1206 504 q 1128 523 1144 504 q 1113 570 1113 541 q 1132 620 1113 598 q 1182 642 1152 642 q 1228 623 1213 642 q 1243 576 1243 604 z "},"":{"ha":605,"x_min":24,"x_max":581,"o":"m 581 225 q 323 203 372 203 q 79 220 244 203 l 24 225 l 25 253 q 288 276 241 276 q 525 259 360 276 l 580 253 l 581 225 z "},"":{"ha":749,"x_min":24,"x_max":716,"o":"m 716 225 q 391 203 439 203 q 96 220 312 203 l 24 225 l 25 253 q 355 276 309 276 q 644 259 428 276 l 715 253 l 716 225 z "},"":{"ha":258,"x_min":31,"x_max":203,"o":"m 171 895 l 193 895 q 149 696 157 743 q 188 667 174 686 q 203 625 203 648 q 181 585 203 602 q 119 568 159 568 q 55 587 80 568 q 31 638 31 605 q 84 765 31 671 q 171 895 138 859 z "},"":{"ha":258,"x_min":31,"x_max":203,"o":"m 62 568 l 41 568 q 84 767 77 720 q 45 796 60 777 q 31 838 31 815 q 53 878 31 861 q 114 895 75 895 q 178 876 153 895 q 203 825 203 858 q 149 698 203 791 q 62 568 96 604 z "},"":{"ha":251,"x_min":31,"x_max":203,"o":"m 62 -199 l 41 -199 q 84 0 77 -47 q 45 29 60 9 q 31 71 31 48 q 53 111 31 94 q 114 127 75 127 q 178 109 153 127 q 203 58 203 91 q 149 -69 203 24 q 62 -199 96 -163 z "},"":{"ha":473,"x_min":31,"x_max":425,"o":"m 393 895 l 415 895 q 372 696 379 743 q 411 667 396 686 q 425 625 425 648 q 403 585 425 602 q 342 568 381 568 q 278 587 302 568 q 253 638 253 605 q 307 765 253 671 q 393 895 360 859 m 171 895 l 193 895 q 149 696 157 743 q 188 667 174 686 q 203 625 203 648 q 181 585 203 602 q 119 568 159 568 q 55 587 80 568 q 31 638 31 605 q 84 765 31 671 q 171 895 138 859 z "},"":{"ha":479,"x_min":31,"x_max":446,"o":"m 62 568 l 41 568 q 84 767 77 720 q 45 796 60 777 q 31 838 31 815 q 53 878 31 861 q 114 895 75 895 q 178 876 153 895 q 203 825 203 858 q 149 698 203 791 q 62 568 96 604 m 305 568 l 283 568 q 327 767 319 720 q 288 796 302 777 q 273 838 273 815 q 295 878 273 861 q 357 895 317 895 q 421 876 396 895 q 446 825 446 858 q 392 698 446 791 q 305 568 338 604 z "},"":{"ha":479,"x_min":31,"x_max":446,"o":"m 62 -199 l 41 -199 q 84 0 77 -47 q 45 29 60 9 q 31 71 31 48 q 53 111 31 94 q 114 127 75 127 q 178 109 153 127 q 203 58 203 91 q 149 -69 203 24 q 62 -199 96 -163 m 305 -199 l 283 -199 q 327 0 319 -47 q 288 29 302 9 q 273 71 273 48 q 295 111 273 94 q 357 127 317 127 q 421 109 396 127 q 446 58 446 91 q 392 -69 446 24 q 305 -199 338 -163 z "},"":{"ha":269,"x_min":28,"x_max":233,"o":"m 139 494 q 160 494 139 494 q 207 470 180 494 q 233 396 233 446 q 199 317 233 347 q 125 287 166 287 q 56 312 83 287 q 28 385 28 337 q 62 464 28 433 q 139 494 97 494 z "},"":{"ha":808,"x_min":54,"x_max":729,"o":"m 128 122 q 142 122 128 122 q 173 106 155 122 q 191 57 191 90 q 169 4 191 24 q 119 -16 146 -16 q 73 1 91 -16 q 54 50 54 18 q 77 102 54 82 q 128 122 100 122 m 397 122 q 411 122 397 122 q 442 106 425 122 q 460 57 460 90 q 438 4 460 24 q 388 -16 416 -16 q 342 1 360 -16 q 323 50 323 18 q 347 102 323 82 q 397 122 370 122 m 666 122 q 680 122 666 122 q 711 106 694 122 q 729 57 729 90 q 707 4 729 24 q 657 -16 685 -16 q 611 1 629 -16 q 593 50 593 18 q 616 102 593 82 q 666 122 639 122 z "},"":{"ha":452,"x_min":37,"x_max":339,"o":"m 279 46 l 219 -1 q 37 232 37 222 q 178 358 104 296 q 296 446 252 419 l 339 389 q 127 229 206 298 q 279 46 147 214 z "},"":{"ha":406,"x_min":14,"x_max":311,"o":"m 66 -5 l 14 46 q 214 228 189 216 l 212 228 q 39 389 142 304 l 84 443 q 182 358 125 414 q 275 262 239 302 l 311 220 q 294 204 311 219 q 66 -5 221 141 z "},"":{"ha":743,"x_min":-56,"x_max":808,"o":"m -56 -192 l 777 1202 l 808 1178 l -24 -214 l -56 -192 z "},"":{"ha":529,"x_min":31,"x_max":447,"o":"m 319 158 l 295 55 q 320 33 298 41 q 366 23 342 24 l 364 0 l 118 0 l 120 23 q 152 29 129 23 q 197 51 188 39 l 222 158 l 39 158 l 31 188 l 361 486 l 394 486 l 328 192 l 371 192 q 404 217 386 192 q 429 267 422 242 l 447 267 l 409 77 l 391 77 q 385 127 391 98 q 367 158 380 156 l 319 158 m 273 364 l 92 192 l 231 192 l 273 364 z "},"":{"ha":935,"x_min":18,"x_max":1002,"o":"m 49 283 l 39 328 l 425 328 l 415 283 l 49 283 m 28 374 l 18 419 l 446 419 l 435 374 l 28 374 m 812 204 l 845 174 q 474 -26 691 -26 q 235 65 332 -26 q 160 178 187 109 q 132 334 132 246 q 165 518 132 422 q 258 694 199 613 q 393 840 317 776 q 560 941 469 904 q 753 978 652 978 q 928 913 854 978 q 1002 733 1002 849 q 970 589 1002 665 q 889 452 939 513 q 771 351 839 391 q 636 311 703 311 q 530 354 569 311 q 490 455 490 397 q 573 647 490 554 q 785 783 655 739 l 800 747 q 677 675 735 726 q 588 566 620 624 q 555 465 555 508 q 654 376 555 376 q 793 437 724 376 q 904 581 863 498 q 946 740 946 663 q 895 864 946 816 q 758 913 843 913 q 582 861 672 913 q 422 729 492 810 q 308 544 353 648 q 264 338 264 439 q 373 98 264 174 q 518 53 437 53 q 677 93 599 53 q 812 204 756 132 z "},"":{"ha":1150,"x_min":36,"x_max":1106,"o":"m 1017 450 l 918 450 q 967 585 941 506 q 992 697 992 665 q 968 729 992 729 q 803 541 913 729 q 753 450 773 490 l 653 450 l 666 494 q 684 559 671 517 q 709 703 709 648 q 687 729 709 729 q 635 700 665 729 q 578 630 606 671 q 526 548 551 589 q 487 478 502 507 q 471 450 471 450 l 375 450 q 397 527 379 465 q 427 631 415 589 q 462 803 460 750 l 564 803 q 527 649 551 732 q 499 557 502 567 q 526 608 515 589 q 552 652 538 628 q 574 688 566 677 q 596 721 582 699 q 622 752 611 742 q 648 778 633 763 q 677 800 664 793 q 747 818 711 818 q 804 796 784 818 q 825 744 825 774 q 815 683 825 715 q 790 609 806 651 q 769 551 774 566 q 861 705 829 661 q 1021 818 942 818 q 1086 796 1067 818 q 1106 744 1106 774 q 1088 654 1106 713 q 1045 530 1069 595 q 1017 450 1021 465 m 169 450 l 80 450 q 110 544 89 478 q 176 758 162 703 l 36 758 l 47 803 l 424 803 l 413 758 l 285 758 q 169 450 231 585 z "},"":{"ha":251,"x_min":31,"x_max":193,"o":"m 52 -304 l 31 -304 q 77 -87 68 -149 l 193 -50 q 139 -175 193 -81 q 52 -304 85 -269 z "},"":{"ha":677,"x_min":-117,"x_max":963,"o":"m -7 350 l 4 395 l 131 395 q 279 795 201 675 q 434 939 350 905 q 536 958 481 958 q 665 903 623 958 q 828 958 736 958 q 941 920 906 958 q 963 862 963 896 q 941 809 963 827 q 891 791 920 791 q 843 808 863 791 q 823 851 823 825 q 840 903 823 877 q 789 914 808 914 q 743 896 770 914 q 696 846 717 877 q 542 395 621 729 l 705 395 l 693 350 l 532 350 q 470 106 490 165 q 347 -92 422 -43 q 254 -123 300 -123 q 191 -109 207 -123 q 175 -74 175 -94 q 189 -39 175 -54 q 223 -24 202 -24 q 258 -33 244 -24 q 271 -53 271 -42 q 261 -90 271 -76 q 327 -22 300 -85 q 369 108 356 47 q 387 200 381 168 q 401 281 393 232 q 413 350 410 331 l 241 350 q 178 106 198 166 q 55 -92 130 -43 q -54 -123 8 -123 q -101 -109 -85 -123 q -117 -74 -117 -94 q -103 -39 -117 -54 q -68 -24 -90 -24 q -34 -33 -47 -24 q -20 -58 -20 -42 q -31 -90 -20 -73 q 23 -46 0 -86 q 59 41 48 0 q 77 111 71 83 q 91 175 84 138 q 102 237 98 211 q 112 297 106 263 q 121 350 118 332 l -7 350 m 422 395 q 514 685 464 565 q 633 875 564 806 q 558 913 600 913 q 482 896 516 913 q 423 851 448 878 q 374 782 397 825 q 335 700 351 740 q 304 605 319 659 q 263 453 275 506 q 250 395 252 399 l 422 395 z "},"":{"ha":646,"x_min":-144,"x_max":671,"o":"m 632 610 q 632 596 632 610 q 614 560 632 583 q 564 538 595 538 q 517 556 533 538 q 502 604 502 575 q 521 654 502 632 q 571 676 541 676 q 617 657 602 676 q 632 610 632 637 m 448 350 l 241 350 l 224 281 q 153 26 178 94 q 16 -170 99 -124 q -71 -193 -27 -193 q -144 -143 -144 -193 q -131 -108 -144 -123 q -96 -93 -117 -93 q -62 -102 -75 -93 q -48 -126 -48 -112 q -58 -160 -48 -141 q 68 104 15 -149 q 87 200 76 145 q 104 281 98 255 l 121 350 l -7 350 l 4 395 l 131 395 q 230 702 182 602 q 319 852 278 803 q 536 958 410 958 q 632 935 593 958 q 671 859 671 912 q 649 809 671 827 q 600 791 628 791 q 551 808 571 791 q 531 851 531 825 q 549 903 531 877 q 497 914 517 914 q 452 896 478 914 q 405 846 425 877 q 250 395 329 729 l 489 395 q 546 330 546 395 q 532 257 546 298 l 484 121 q 479 94 479 107 q 494 80 479 80 q 535 113 509 80 l 576 164 l 605 138 q 518 30 568 70 q 438 -11 467 -11 q 393 7 408 -11 q 377 59 377 26 q 397 154 377 92 q 437 268 417 217 q 457 335 457 319 q 448 350 457 350 z "},"":{"ha":679,"x_min":-144,"x_max":689,"o":"m 504 914 q 434 880 469 914 q 250 395 334 778 l 412 395 l 401 350 l 240 350 l 224 281 q 149 11 178 89 q 1 -177 91 -138 q -75 -193 -37 -193 q -129 -179 -113 -193 q -144 -143 -144 -164 q -131 -108 -144 -123 q -97 -93 -117 -93 q -62 -102 -76 -93 q -49 -127 -49 -112 q -58 -160 -49 -142 q 67 104 12 -149 q 87 200 76 144 q 104 281 98 255 l 121 350 l -7 350 l 4 395 l 130 395 q 250 746 188 625 q 522 958 357 958 q 650 919 612 958 q 689 814 689 880 q 664 649 689 749 q 607 460 638 550 q 517 122 523 219 q 528 85 517 85 q 608 171 549 85 q 615 182 615 181 l 644 157 q 551 30 600 71 q 471 -11 503 -11 q 408 87 408 -11 q 499 471 408 209 q 590 823 590 732 q 504 914 590 914 z "},"":{"ha":876,"x_min":-117,"x_max":962,"o":"m 422 395 q 633 875 508 751 q 554 913 600 913 q 471 890 509 913 q 404 828 433 868 q 353 741 376 789 q 312 633 330 692 q 262 454 273 506 q 250 395 252 400 l 422 395 m 879 610 q 879 596 879 610 q 861 560 879 582 q 811 538 843 538 q 764 556 780 538 q 749 603 749 575 q 768 654 749 631 q 818 676 788 676 q 864 657 848 676 q 879 610 879 637 m 542 395 l 750 395 q 799 343 799 395 q 779 257 799 313 l 734 131 q 725 95 725 104 q 726 81 725 85 q 741 74 726 74 q 771 96 755 74 l 807 143 l 835 119 q 754 17 798 52 q 681 -17 709 -17 q 639 2 652 -17 q 625 54 625 22 q 645 150 625 85 q 684 267 665 214 q 704 335 704 319 q 694 350 704 350 l 532 350 q 471 109 489 167 q 348 -92 422 -41 q 237 -123 301 -123 q 191 -109 207 -123 q 175 -74 175 -94 q 189 -39 175 -54 q 223 -24 202 -24 q 257 -33 244 -24 q 271 -58 271 -42 q 261 -90 271 -75 q 327 -22 300 -85 q 368 108 355 47 q 387 200 380 168 q 401 281 393 232 q 412 350 409 331 l 240 350 q 179 109 197 167 q 56 -92 131 -41 q -54 -123 9 -123 q -101 -109 -85 -123 q -117 -74 -117 -94 q -103 -39 -117 -54 q -69 -24 -90 -24 q -35 -33 -48 -24 q -21 -58 -21 -42 q -31 -90 -21 -75 q 35 -22 8 -85 q 76 108 64 47 q 95 200 89 168 q 109 281 101 232 q 121 350 117 331 l -7 350 l 4 395 l 130 395 q 230 702 181 601 q 319 852 278 803 q 536 958 410 958 q 665 903 623 958 q 828 958 736 958 q 923 935 884 958 q 962 859 962 912 q 941 809 962 827 q 891 791 920 791 q 842 808 863 791 q 822 850 822 825 q 840 903 822 876 q 788 914 807 914 q 743 896 770 914 q 696 846 717 877 q 542 395 621 729 z "},"":{"ha":972,"x_min":-117,"x_max":981,"o":"m 796 914 q 662 785 726 914 q 637 728 648 757 q 542 395 583 580 l 704 395 l 693 350 l 532 350 q 471 109 489 167 q 348 -92 422 -41 q 237 -123 301 -123 q 191 -109 207 -123 q 175 -74 175 -94 q 189 -39 175 -54 q 223 -24 202 -24 q 257 -33 244 -24 q 271 -58 271 -42 q 261 -90 271 -75 q 327 -22 300 -85 q 368 108 355 47 q 387 200 380 168 q 401 281 393 232 q 412 350 409 331 l 240 350 q 179 109 197 167 q 56 -92 131 -41 q -54 -123 9 -123 q -101 -109 -85 -123 q -117 -74 -117 -94 q -103 -39 -117 -54 q -68 -24 -90 -24 q -34 -33 -47 -24 q -21 -58 -21 -42 q -31 -90 -21 -75 q 35 -22 8 -85 q 76 108 64 47 q 95 200 89 168 q 109 281 101 232 q 121 350 117 331 l -7 350 l 4 395 l 131 395 q 230 702 182 602 q 319 852 278 803 q 536 958 410 958 q 663 905 620 958 q 817 958 730 958 q 981 808 981 958 q 899 460 981 696 q 808 122 814 219 q 819 85 808 85 q 900 171 840 85 q 907 182 907 181 l 936 157 q 843 30 890 71 q 762 -11 795 -11 q 700 87 700 -11 q 791 471 700 210 q 882 823 882 731 q 796 914 882 914 m 250 395 l 422 395 q 513 686 464 565 q 631 876 563 808 q 554 913 598 913 q 471 890 509 913 q 404 828 433 868 q 353 741 376 789 q 312 633 330 692 q 262 454 273 506 q 250 395 252 400 z "},"":{"ha":750,"x_min":-19,"x_max":764,"o":"m 597 585 q 460 739 597 739 q 365 714 412 739 q 284 642 317 688 q 252 547 252 595 q 340 396 252 448 q 391 335 391 367 q 375 286 391 303 q 335 269 359 269 q 294 282 311 269 q 277 318 277 295 q 303 366 277 342 q 249 376 286 376 q 178 360 212 376 q 144 323 144 344 q 168 289 144 302 q 224 264 191 275 q 291 237 258 252 q 348 195 324 222 q 371 125 371 167 q 338 49 371 83 q 165 -16 275 -16 q 63 0 106 -16 q -19 92 -19 30 q -5 132 -19 115 q 32 149 9 149 q 74 135 56 149 q 92 96 92 121 q 64 57 92 71 q 151 36 98 36 q 254 96 254 36 q 182 161 254 136 q 122 182 152 171 q 69 216 92 194 q 45 271 47 239 q 75 349 45 317 q 248 410 133 410 l 262 410 q 200 530 200 456 q 244 665 200 604 q 354 757 288 725 q 488 789 419 789 q 646 725 595 789 q 697 571 697 662 q 664 395 697 480 l 764 395 l 753 350 l 650 350 q 595 116 595 157 q 603 74 595 74 q 618 77 612 74 q 697 176 640 90 l 725 151 q 632 24 680 66 q 552 -17 583 -17 q 505 6 521 -17 q 489 66 489 29 q 541 350 489 155 l 464 350 l 475 395 l 554 395 q 597 585 597 503 z "}}}
